<?xml version="1.0" encoding="UTF-8" standalone="no"?>
<!-- Created with Inkscape (http://www.inkscape.org/) -->

<svg
   width="199.99998"
   height="214"
   viewBox="0 0 52.916659 56.620829"
   version="1.1"
   id="svg5"
   inkscape:version="1.1.2 (0a00cf5339, 2022-02-04, custom)"
   sodipodi:docname="winner.svg"
   xmlns:inkscape="http://www.inkscape.org/namespaces/inkscape"
   xmlns:sodipodi="http://sodipodi.sourceforge.net/DTD/sodipodi-0.dtd"
   xmlns="http://www.w3.org/2000/svg"
   xmlns:svg="http://www.w3.org/2000/svg">
  <sodipodi:namedview
     id="namedview7"
     pagecolor="#505050"
     bordercolor="#eeeeee"
     borderopacity="1"
     inkscape:pageshadow="0"
     inkscape:pageopacity="0"
     inkscape:pagecheckerboard="0"
     inkscape:document-units="mm"
     showgrid="false"
     units="px"
     width="32px"
     inkscape:snap-bbox="true"
     inkscape:bbox-nodes="true"
     inkscape:snap-bbox-midpoints="true"
     inkscape:snap-page="true"
     inkscape:zoom="0.7071068"
     inkscape:cx="580.53465"
     inkscape:cy="364.15998"
     inkscape:window-width="1920"
     inkscape:window-height="1007"
     inkscape:window-x="0"
     inkscape:window-y="0"
     inkscape:window-maximized="1"
     inkscape:current-layer="layer1"
     inkscape:snap-bbox-edge-midpoints="true"
     fit-margin-top="0"
     fit-margin-left="0"
     fit-margin-right="0"
     fit-margin-bottom="0"
     showguides="false" />
  <defs
     id="defs2" />
  <g
     inkscape:label="Layer 1"
     inkscape:groupmode="layer"
     id="layer1">
    <rect
       style="fill:#000000;fill-opacity:0.3019608;stroke-width:0.79375;stroke-linejoin:round"
       id="rect941"
       width="52.917"
       height="56.620834"
       x="0"
       y="0"
       rx="1.8520833" />
    <path
       d="m 28.045831,2.4000001 c -0.238125,0 -0.529166,0.2645832 -0.529166,0.5291666 h -2.116667 c 0,-0.2645834 -0.291042,-0.5291666 -0.529167,-0.5291666 h -1.058333 v 2.3812503 c 0,0.2645826 0.264583,0.529166 0.529167,0.529166 h 0.582083 c 0.105833,0.5291673 0.449792,0.9789593 1.27,1.058334 v 0.5503333 c -0.79375,0.121708 -0.79375,0.7725827 -0.79375,0.7725827 h 2.116667 c 0,0 0,-0.6508747 -0.79375,-0.7725827 V 6.3687504 c 0.820208,-0.07938 1.164166,-0.5291667 1.27,-1.058334 h 0.582083 c 0.264583,0 0.529167,-0.2645834 0.529167,-0.529166 V 2.4 h -1.058334 m -3.175,2.3812504 H 24.341665 V 2.9291667 h 0.529166 v 1.8520837 m 3.704167,0 H 28.045831 V 2.9291667 h 0.529167 z"
       id="path824"
       style="fill:#ffffff;fill-opacity:1;stroke-width:0.264583" />
  </g>
</svg>
