<?xml version="1.0" encoding="UTF-8" standalone="no"?>
<!-- Created with Inkscape (http://www.inkscape.org/) -->

<svg
   width="1024"
   height="1143"
   viewBox="0 0 270.93337 302.41878"
   version="1.1"
   id="svg5"
   inkscape:version="1.2 (dc2aedaf03, 2022-05-15)"
   sodipodi:docname="panel.svg"
   xml:space="preserve"
   xmlns:inkscape="http://www.inkscape.org/namespaces/inkscape"
   xmlns:sodipodi="http://sodipodi.sourceforge.net/DTD/sodipodi-0.dtd"
   xmlns="http://www.w3.org/2000/svg"
   xmlns:svg="http://www.w3.org/2000/svg"><sodipodi:namedview
     id="namedview7"
     pagecolor="#505050"
     bordercolor="#eeeeee"
     borderopacity="1"
     inkscape:pageshadow="0"
     inkscape:pageopacity="0"
     inkscape:pagecheckerboard="0"
     inkscape:document-units="px"
     showgrid="false"
     units="px"
     width="32px"
     inkscape:snap-bbox="true"
     inkscape:bbox-nodes="true"
     inkscape:snap-bbox-midpoints="true"
     inkscape:snap-page="true"
     inkscape:zoom="0.70710678"
     inkscape:cx="171.82695"
     inkscape:cy="1119.35"
     inkscape:window-width="1920"
     inkscape:window-height="1007"
     inkscape:window-x="0"
     inkscape:window-y="0"
     inkscape:window-maximized="1"
     inkscape:current-layer="layer1"
     inkscape:bbox-paths="true"
     inkscape:snap-bbox-edge-midpoints="true"
     inkscape:snap-object-midpoints="true"
     inkscape:snap-center="true"
     showguides="false"
     inkscape:guide-bbox="true"
     fit-margin-top="10"
     fit-margin-left="10"
     fit-margin-right="10"
     fit-margin-bottom="10"
     lock-margins="false"
     inkscape:showpageshadow="0"
     inkscape:deskcolor="#505050" /><defs
     id="defs2"><inkscape:path-effect
       effect="powerclip"
       id="path-effect2354"
       is_visible="true"
       lpeversion="1"
       inverse="true"
       flatten="false"
       hide_clip="false"
       message="Use fill-rule evenodd on &lt;b&gt;fill and stroke&lt;/b&gt; dialog if no flatten result after convert clip to paths." /><inkscape:path-effect
       effect="powerclip"
       id="path-effect1727"
       is_visible="true"
       lpeversion="1"
       inverse="true"
       flatten="false"
       hide_clip="false"
       message="Use fill-rule evenodd on &lt;b&gt;fill and stroke&lt;/b&gt; dialog if no flatten result after convert clip to paths." /><inkscape:path-effect
       effect="powerclip"
       id="path-effect14381"
       is_visible="true"
       lpeversion="1"
       inverse="true"
       flatten="false"
       hide_clip="false"
       message="Use fill-rule evenodd on &lt;b&gt;fill and stroke&lt;/b&gt; dialog if no flatten result after convert clip to paths." /><inkscape:path-effect
       effect="powerclip"
       id="path-effect2077-2-3"
       is_visible="true"
       lpeversion="1"
       inverse="true"
       flatten="false"
       hide_clip="false"
       message="Use fill-rule evenodd on &lt;b&gt;fill and stroke&lt;/b&gt; dialog if no flatten result after convert clip to paths." /><inkscape:path-effect
       effect="powerclip"
       id="path-effect8168-4-5-4"
       is_visible="true"
       lpeversion="1"
       inverse="true"
       flatten="false"
       hide_clip="false"
       message="Use fill-rule evenodd on &lt;b&gt;fill and stroke&lt;/b&gt; dialog if no flatten result after convert clip to paths." /><clipPath
       clipPathUnits="userSpaceOnUse"
       id="clipath_lpe_path-effect2077-2-3"><rect
         style="display:none;fill:#ffffff;fill-opacity:1;stroke-width:2.64567;stroke-linecap:round;stroke-linejoin:round"
         id="rect10804"
         width="19.579166"
         height="19.579166"
         x="146.57916"
         y="203.2"
         rx="1.8520833"
         clip-path="none"
         ry="1.8520833"
         d="m 148.43125,203.2 h 15.875 c 1.02605,0 1.85208,0.82603 1.85208,1.85208 v 15.875 c 0,1.02605 -0.82603,1.85208 -1.85208,1.85208 h -15.875 c -1.02606,0 -1.85209,-0.82603 -1.85209,-1.85208 v -15.875 c 0,-1.02605 0.82603,-1.85208 1.85209,-1.85208 z" /><path
         id="lpe_path-effect2077-2-3"
         style="display:block;fill:#ffffff;fill-opacity:1;stroke-width:2.64567;stroke-linecap:round;stroke-linejoin:round"
         class="powerclip"
         d="m 141.57916,198.2 h 30.6375 v 29.84375 h -30.6375 z m 6.85209,5 c -1.02606,0 -1.85209,0.82603 -1.85209,1.85208 v 15.875 c 0,1.02605 0.82603,1.85208 1.85209,1.85208 h 15.875 c 1.02605,0 1.85208,-0.82603 1.85208,-1.85208 v -15.875 c 0,-1.02605 -0.82603,-1.85208 -1.85208,-1.85208 z" /></clipPath><clipPath
       clipPathUnits="userSpaceOnUse"
       id="clipath_lpe_path-effect8168-4-5-4"><path
         style="display:none;fill:#ffffff;fill-opacity:1;stroke-width:2.64567;stroke-linecap:round;stroke-linejoin:round"
         id="path10809"
         width="194"
         height="7"
         x="283"
         y="169"
         ry="3.5"
         rx="3.5"
         sodipodi:type="rect"
         d="m 286.5,169 h 187 c 1.939,0 3.5,1.561 3.5,3.5 0,1.939 -1.561,3.5 -3.5,3.5 h -187 c -1.939,0 -3.5,-1.561 -3.5,-3.5 0,-1.939 1.561,-3.5 3.5,-3.5 z" /><path
         id="lpe_path-effect8168-4-5-4"
         style="display:block;fill:#ffffff;fill-opacity:1;stroke-width:2.64567;stroke-linecap:round;stroke-linejoin:round"
         class="powerclip"
         d="m 274.75,160.5 h 217.00002 v 24 H 274.75 Z m 11.75,8.5 c -1.939,0 -3.5,1.561 -3.5,3.5 0,1.939 1.561,3.5 3.5,3.5 h 187 c 1.939,0 3.5,-1.561 3.5,-3.5 0,-1.939 -1.561,-3.5 -3.5,-3.5 z" /></clipPath><clipPath
       clipPathUnits="userSpaceOnUse"
       id="clipPath14373"><g
         id="g14379"
         style="display:none;stroke-width:0.999999"><circle
           style="fill:#ffffff;fill-opacity:1;stroke-width:2.64583;stroke-linecap:round"
           id="circle14375"
           r="1.4552084"
           cy="186.16747"
           cx="297.12708"
           d="m 298.58228,186.16747 a 1.4552084,1.4552084 0 0 1 -1.4552,1.4552 1.4552084,1.4552084 0 0 1 -1.45521,-1.4552 1.4552084,1.4552084 0 0 1 1.45521,-1.45521 1.4552084,1.4552084 0 0 1 1.4552,1.45521 z" /><circle
           style="fill:#ffffff;fill-opacity:1;stroke-width:2.64583;stroke-linecap:round"
           id="circle14377"
           cx="297.12708"
           cy="194.63412"
           r="1.4552084"
           d="m 298.58228,194.63412 a 1.4552084,1.4552084 0 0 1 -1.4552,1.45521 1.4552084,1.4552084 0 0 1 -1.45521,-1.45521 1.4552084,1.4552084 0 0 1 1.45521,-1.4552 1.4552084,1.4552084 0 0 1 1.4552,1.4552 z" /></g><path
         id="lpe_path-effect14381"
         style="stroke-width:0.999999"
         class="powerclip"
         d="m 282.33749,173.06461 h 84.08334 v 64.76874 h -84.08334 z m 16.24479,13.10286 a 1.4552084,1.4552084 0 0 0 -1.4552,-1.45521 1.4552084,1.4552084 0 0 0 -1.45521,1.45521 1.4552084,1.4552084 0 0 0 1.45521,1.4552 1.4552084,1.4552084 0 0 0 1.4552,-1.4552 z m 0,8.46665 a 1.4552084,1.4552084 0 0 0 -1.4552,-1.4552 1.4552084,1.4552084 0 0 0 -1.45521,1.4552 1.4552084,1.4552084 0 0 0 1.45521,1.45521 1.4552084,1.4552084 0 0 0 1.4552,-1.45521 z" /></clipPath><clipPath
       clipPathUnits="userSpaceOnUse"
       id="clipPath1723"><rect
         style="display:none;fill:#ffffff;fill-opacity:1;stroke-width:2.64583;stroke-linecap:round"
         id="rect1725"
         width="84.666664"
         height="19.314495"
         x="56.620846"
         y="205.58138"
         d="m 56.620846,205.58138 h 84.666664 v 19.31449 H 56.620846 Z" /><path
         id="lpe_path-effect1727"
         style="display:block;fill:#ffffff;fill-opacity:1;stroke-width:2.64583;stroke-linecap:round"
         class="powerclip"
         d="M -5.000002,187.6167 H 201.84999 v 50.21666 H -5.000002 Z m 61.620848,17.96468 v 19.31449 h 84.666664 v -19.31449 z" /></clipPath><clipPath
       clipPathUnits="userSpaceOnUse"
       id="clipPath2326"><g
         id="g2352"
         style="display:none;stroke-width:0.999999"><rect
           style="fill:#ffffff;fill-opacity:1;stroke-width:0;stroke-linejoin:round"
           id="rect2328"
           width="28.045834"
           height="8.7312498"
           x="44.449997"
           y="254.79378"
           rx="1.8520833"
           ry="1.8520833"
           d="m 46.30208,254.79378 h 24.341667 c 1.026054,0 1.852084,0.82603 1.852084,1.85208 v 5.02708 c 0,1.02606 -0.82603,1.85209 -1.852084,1.85209 H 46.30208 c -1.026054,0 -1.852083,-0.82603 -1.852083,-1.85209 v -5.02708 c 0,-1.02605 0.826029,-1.85208 1.852083,-1.85208 z" /><rect
           style="fill:#ffffff;fill-opacity:1;stroke-width:0;stroke-linejoin:round"
           id="rect2330"
           width="28.045834"
           height="8.7312498"
           x="44.449997"
           y="264.8479"
           rx="1.8520833"
           ry="1.8520833"
           d="m 46.30208,264.8479 h 24.341667 c 1.026054,0 1.852084,0.82603 1.852084,1.85208 v 5.02709 c 0,1.02605 -0.82603,1.85208 -1.852084,1.85208 H 46.30208 c -1.026054,0 -1.852083,-0.82603 -1.852083,-1.85208 v -5.02709 c 0,-1.02605 0.826029,-1.85208 1.852083,-1.85208 z" /><rect
           style="fill:#ffffff;fill-opacity:1;stroke-width:0;stroke-linejoin:round"
           id="rect2332"
           width="28.045834"
           height="8.7312498"
           x="74.083328"
           y="254.79378"
           rx="1.8520833"
           ry="1.8520833"
           d="m 75.935412,254.79378 h 24.341668 c 1.02605,0 1.85208,0.82603 1.85208,1.85208 v 5.02708 c 0,1.02606 -0.82603,1.85209 -1.85208,1.85209 H 75.935412 c -1.026055,0 -1.852084,-0.82603 -1.852084,-1.85209 v -5.02708 c 0,-1.02605 0.826029,-1.85208 1.852084,-1.85208 z" /><rect
           style="fill:#ffffff;fill-opacity:1;stroke-width:0;stroke-linejoin:round"
           id="rect2334"
           width="28.045834"
           height="8.7312498"
           x="74.083328"
           y="264.8479"
           rx="1.8520833"
           ry="1.8520833"
           d="m 75.935412,264.8479 h 24.341668 c 1.02605,0 1.85208,0.82603 1.85208,1.85208 v 5.02709 c 0,1.02605 -0.82603,1.85208 -1.85208,1.85208 H 75.935412 c -1.026055,0 -1.852084,-0.82603 -1.852084,-1.85208 v -5.02709 c 0,-1.02605 0.826029,-1.85208 1.852084,-1.85208 z" /><rect
           style="fill:#ffffff;fill-opacity:1;stroke-width:0;stroke-linejoin:round"
           id="rect2336"
           width="28.045834"
           height="8.7312498"
           x="103.71666"
           y="254.79378"
           rx="1.8520833"
           ry="1.8520833"
           d="m 105.56874,254.79378 h 24.34167 c 1.02605,0 1.85208,0.82603 1.85208,1.85208 v 5.02708 c 0,1.02606 -0.82603,1.85209 -1.85208,1.85209 h -24.34167 c -1.02605,0 -1.85208,-0.82603 -1.85208,-1.85209 v -5.02708 c 0,-1.02605 0.82603,-1.85208 1.85208,-1.85208 z" /><rect
           style="fill:#ffffff;fill-opacity:1;stroke-width:0;stroke-linejoin:round"
           id="rect2338"
           width="28.045834"
           height="8.7312498"
           x="103.71666"
           y="264.8479"
           rx="1.8520833"
           ry="1.8520833"
           d="m 105.56874,264.8479 h 24.34167 c 1.02605,0 1.85208,0.82603 1.85208,1.85208 v 5.02709 c 0,1.02605 -0.82603,1.85208 -1.85208,1.85208 h -24.34167 c -1.02605,0 -1.85208,-0.82603 -1.85208,-1.85208 v -5.02709 c 0,-1.02605 0.82603,-1.85208 1.85208,-1.85208 z" /><rect
           style="fill:#ffffff;fill-opacity:1;stroke-width:0;stroke-linejoin:round"
           id="rect2340"
           width="44.979164"
           height="8.7312498"
           x="133.34998"
           y="254.79378"
           rx="1.8520833"
           ry="1.8520833"
           d="m 135.20206,254.79378 h 41.275 c 1.02605,0 1.85208,0.82603 1.85208,1.85208 v 5.02708 c 0,1.02606 -0.82603,1.85209 -1.85208,1.85209 h -41.275 c -1.02606,0 -1.85208,-0.82603 -1.85208,-1.85209 v -5.02708 c 0,-1.02605 0.82602,-1.85208 1.85208,-1.85208 z" /><rect
           style="fill:#ffffff;fill-opacity:1;stroke-width:0;stroke-linejoin:round"
           id="rect2342"
           width="44.979164"
           height="8.7312498"
           x="133.34998"
           y="264.8479"
           rx="1.8520833"
           ry="1.8520833"
           d="m 135.20206,264.8479 h 41.275 c 1.02605,0 1.85208,0.82603 1.85208,1.85208 v 5.02709 c 0,1.02605 -0.82603,1.85208 -1.85208,1.85208 h -41.275 c -1.02606,0 -1.85208,-0.82603 -1.85208,-1.85208 v -5.02709 c 0,-1.02605 0.82602,-1.85208 1.85208,-1.85208 z" /><rect
           style="fill:#ffffff;fill-opacity:1;stroke-width:0;stroke-linejoin:round"
           id="rect2344"
           width="44.979164"
           height="8.7312498"
           x="179.91666"
           y="254.79378"
           rx="1.8520833"
           ry="1.8520833"
           d="m 181.76874,254.79378 h 41.275 c 1.02605,0 1.85208,0.82603 1.85208,1.85208 v 5.02708 c 0,1.02606 -0.82603,1.85209 -1.85208,1.85209 h -41.275 c -1.02605,0 -1.85208,-0.82603 -1.85208,-1.85209 v -5.02708 c 0,-1.02605 0.82603,-1.85208 1.85208,-1.85208 z" /><rect
           style="fill:#ffffff;fill-opacity:1;stroke-width:0;stroke-linejoin:round"
           id="rect2346"
           width="44.979164"
           height="8.7312498"
           x="179.91666"
           y="264.8479"
           rx="1.8520833"
           ry="1.8520833"
           d="m 181.76874,264.8479 h 41.275 c 1.02605,0 1.85208,0.82603 1.85208,1.85208 v 5.02709 c 0,1.02605 -0.82603,1.85208 -1.85208,1.85208 h -41.275 c -1.02605,0 -1.85208,-0.82603 -1.85208,-1.85208 v -5.02709 c 0,-1.02605 0.82603,-1.85208 1.85208,-1.85208 z" /><rect
           style="fill:#ffffff;fill-opacity:1;stroke-width:0;stroke-linejoin:round"
           id="rect2348"
           width="28.045834"
           height="8.7312498"
           x="226.48335"
           y="254.79378"
           rx="1.8520833"
           ry="1.8520833"
           d="m 228.33544,254.79378 h 24.34166 c 1.02606,0 1.85209,0.82603 1.85209,1.85208 v 5.02708 c 0,1.02606 -0.82603,1.85209 -1.85209,1.85209 h -24.34166 c -1.02606,0 -1.85209,-0.82603 -1.85209,-1.85209 v -5.02708 c 0,-1.02605 0.82603,-1.85208 1.85209,-1.85208 z" /><rect
           style="fill:#ffffff;fill-opacity:1;stroke-width:0;stroke-linejoin:round"
           id="rect2350"
           width="28.045834"
           height="8.7312498"
           x="226.48335"
           y="264.8479"
           rx="1.8520833"
           ry="1.8520833"
           d="m 228.33544,264.8479 h 24.34166 c 1.02606,0 1.85209,0.82603 1.85209,1.85208 v 5.02709 c 0,1.02605 -0.82603,1.85208 -1.85209,1.85208 h -24.34166 c -1.02606,0 -1.85209,-0.82603 -1.85209,-1.85208 v -5.02709 c 0,-1.02605 0.82603,-1.85208 1.85209,-1.85208 z" /></g><path
         id="lpe_path-effect2354"
         style="stroke-width:0.999999"
         class="powerclip"
         d="M -5.0000019,227.83336 H 275.93332 v 81.96667 H -5.0000019 Z M 46.30208,254.79378 c -1.026054,0 -1.852083,0.82603 -1.852083,1.85208 v 5.02708 c 0,1.02606 0.826029,1.85209 1.852083,1.85209 h 24.341667 c 1.026054,0 1.852084,-0.82603 1.852084,-1.85209 v -5.02708 c 0,-1.02605 -0.82603,-1.85208 -1.852084,-1.85208 z m 0,10.05412 c -1.026054,0 -1.852083,0.82603 -1.852083,1.85208 v 5.02709 c 0,1.02605 0.826029,1.85208 1.852083,1.85208 h 24.341667 c 1.026054,0 1.852084,-0.82603 1.852084,-1.85208 v -5.02709 c 0,-1.02605 -0.82603,-1.85208 -1.852084,-1.85208 z m 29.633332,-10.05412 c -1.026055,0 -1.852084,0.82603 -1.852084,1.85208 v 5.02708 c 0,1.02606 0.826029,1.85209 1.852084,1.85209 h 24.341668 c 1.02605,0 1.85208,-0.82603 1.85208,-1.85209 v -5.02708 c 0,-1.02605 -0.82603,-1.85208 -1.85208,-1.85208 z m 0,10.05412 c -1.026055,0 -1.852084,0.82603 -1.852084,1.85208 v 5.02709 c 0,1.02605 0.826029,1.85208 1.852084,1.85208 h 24.341668 c 1.02605,0 1.85208,-0.82603 1.85208,-1.85208 v -5.02709 c 0,-1.02605 -0.82603,-1.85208 -1.85208,-1.85208 z m 29.633328,-10.05412 c -1.02605,0 -1.85208,0.82603 -1.85208,1.85208 v 5.02708 c 0,1.02606 0.82603,1.85209 1.85208,1.85209 h 24.34167 c 1.02605,0 1.85208,-0.82603 1.85208,-1.85209 v -5.02708 c 0,-1.02605 -0.82603,-1.85208 -1.85208,-1.85208 z m 0,10.05412 c -1.02605,0 -1.85208,0.82603 -1.85208,1.85208 v 5.02709 c 0,1.02605 0.82603,1.85208 1.85208,1.85208 h 24.34167 c 1.02605,0 1.85208,-0.82603 1.85208,-1.85208 v -5.02709 c 0,-1.02605 -0.82603,-1.85208 -1.85208,-1.85208 z m 29.63332,-10.05412 c -1.02606,0 -1.85208,0.82603 -1.85208,1.85208 v 5.02708 c 0,1.02606 0.82602,1.85209 1.85208,1.85209 h 41.275 c 1.02605,0 1.85208,-0.82603 1.85208,-1.85209 v -5.02708 c 0,-1.02605 -0.82603,-1.85208 -1.85208,-1.85208 z m 0,10.05412 c -1.02606,0 -1.85208,0.82603 -1.85208,1.85208 v 5.02709 c 0,1.02605 0.82602,1.85208 1.85208,1.85208 h 41.275 c 1.02605,0 1.85208,-0.82603 1.85208,-1.85208 v -5.02709 c 0,-1.02605 -0.82603,-1.85208 -1.85208,-1.85208 z m 46.56668,-10.05412 c -1.02605,0 -1.85208,0.82603 -1.85208,1.85208 v 5.02708 c 0,1.02606 0.82603,1.85209 1.85208,1.85209 h 41.275 c 1.02605,0 1.85208,-0.82603 1.85208,-1.85209 v -5.02708 c 0,-1.02605 -0.82603,-1.85208 -1.85208,-1.85208 z m 0,10.05412 c -1.02605,0 -1.85208,0.82603 -1.85208,1.85208 v 5.02709 c 0,1.02605 0.82603,1.85208 1.85208,1.85208 h 41.275 c 1.02605,0 1.85208,-0.82603 1.85208,-1.85208 v -5.02709 c 0,-1.02605 -0.82603,-1.85208 -1.85208,-1.85208 z m 46.5667,-10.05412 c -1.02606,0 -1.85209,0.82603 -1.85209,1.85208 v 5.02708 c 0,1.02606 0.82603,1.85209 1.85209,1.85209 h 24.34166 c 1.02606,0 1.85209,-0.82603 1.85209,-1.85209 v -5.02708 c 0,-1.02605 -0.82603,-1.85208 -1.85209,-1.85208 z m 0,10.05412 c -1.02606,0 -1.85209,0.82603 -1.85209,1.85208 v 5.02709 c 0,1.02605 0.82603,1.85208 1.85209,1.85208 h 24.34166 c 1.02606,0 1.85209,-0.82603 1.85209,-1.85208 v -5.02709 c 0,-1.02605 -0.82603,-1.85208 -1.85209,-1.85208 z" /></clipPath></defs><g
     inkscape:label="panels"
     inkscape:groupmode="layer"
     id="layer1"
     transform="translate(2e-6,-2.3812494)"><rect
       style="fill:#000000;fill-opacity:0.301961;stroke:#000000;stroke-width:0;stroke-linecap:round;stroke-miterlimit:4;stroke-dasharray:none;stroke-opacity:1"
       id="rect852"
       width="158.75"
       height="128.32292"
       x="2.6458333"
       y="5.0270839"
       rx="1.8520833"
       ry="1.8520833" /><rect
       style="fill:#000000;fill-opacity:1;stroke-width:0;stroke-linejoin:round"
       id="rect10894"
       width="196.84996"
       height="14.552083"
       x="1.121026e-05"
       y="178.06461" /><path
       style="fill:#000000;fill-opacity:1;stroke-width:0;stroke-linejoin:round"
       id="rect7218"
       width="270.93332"
       height="71.966675"
       x="-1.8732563e-06"
       y="232.83336"
       clip-path="url(#clipPath2326)"
       sodipodi:type="rect"
       d="M -1.8732563e-6,232.83336 H 270.93332 v 71.96667 H -1.8732563e-6 Z"
       inkscape:path-effect="#path-effect2354" /><path
       style="fill:#000000;fill-opacity:1;stroke-width:0;stroke-linejoin:round"
       id="rect2158"
       width="196.84999"
       height="40.216663"
       x="-2e-06"
       y="192.6167"
       clip-path="url(#clipPath1723)"
       sodipodi:type="rect"
       d="M -2e-6,192.6167 H 196.84999 v 40.21666 H -2e-6 Z"
       inkscape:path-effect="#path-effect1727" /><path
       style="fill:#000000;stroke-width:0;stroke-linejoin:round"
       id="rect804"
       width="74.083336"
       height="54.768749"
       x="287.33749"
       y="178.06461"
       clip-path="url(#clipPath14373)"
       sodipodi:type="rect"
       d="m 287.33749,178.06461 h 74.08334 v 54.76874 h -74.08334 z"
       inkscape:path-effect="#path-effect14381"
       transform="translate(-90.487506)" /><path
       style="display:inline;fill:#000000;fill-opacity:1;stroke-width:2.94684;stroke-linecap:round;stroke-linejoin:round"
       id="path8315"
       width="20.637499"
       height="19.843754"
       x="146.57916"
       y="203.2"
       sodipodi:type="rect"
       mask="none"
       clip-path="url(#clipath_lpe_path-effect2077-2-3)"
       d="m 146.57916,203.2 h 20.6375 v 19.84375 h -20.6375 z"
       inkscape:path-effect="#path-effect2077-2-3"
       transform="translate(-89.958331,2.2489856)" /><path
       style="display:inline;fill:#000000;fill-opacity:0.999569;stroke-width:2.18541;stroke-linecap:round;stroke-linejoin:round"
       id="rect3779-6"
       width="207.00002"
       height="14"
       x="279.75"
       y="165.5"
       mask="none"
       clip-path="url(#clipath_lpe_path-effect8168-4-5-4)"
       sodipodi:type="rect"
       rx="6.9999995"
       ry="6.9999995"
       transform="matrix(0.26458333,0,0,0.26458333,14.287504,178.1969)"
       d="m 286.75,165.5 h 193.00002 c 3.878,0 7,3.122 7,7 v 0 c 0,3.878 -3.122,7 -7,7 H 286.75 c -3.878,0 -7,-3.122 -7,-7 v 0 c 0,-3.878 3.122,-7 7,-7 z"
       inkscape:path-effect="#path-effect8168-4-5-4" /><path
       id="rect7456"
       clip-path="none"
       style="display:inline;fill:#000000;fill-opacity:0.999569;stroke-width:1.05833;stroke-linecap:round;stroke-linejoin:round"
       d="m 77.258353,223.17607 v 1.85208 h 1.85209 a 1.8520833,1.8520833 0 0 1 -1.85209,-1.85208 z" /><rect
       style="display:inline;fill:#000000;fill-opacity:1;stroke:none;stroke-width:1.05833;stroke-linecap:round;stroke-linejoin:round"
       id="rect2527"
       width="11.90625"
       height="0.26458272"
       x="77.258339"
       y="225.02814" /><path
       id="path7970"
       clip-path="none"
       style="display:inline;fill:#000000;fill-opacity:0.999569;stroke-width:1.05833;stroke-linecap:round;stroke-linejoin:round"
       d="m 77.258353,205.44898 v 1.85209 a 1.8520833,1.8520833 0 0 1 1.85209,-1.85209 z" /><path
       id="path7981"
       clip-path="none"
       style="display:inline;fill:#000000;fill-opacity:0.999569;stroke-width:1.05833;stroke-linecap:round;stroke-linejoin:round"
       d="m 139.43544,205.44898 a 1.8520833,1.8520833 0 0 1 1.85208,1.85209 v -1.85209 z" /><path
       id="path7992"
       clip-path="none"
       style="display:inline;fill:#000000;fill-opacity:0.999569;stroke-width:1.05833;stroke-linecap:round;stroke-linejoin:round"
       d="m 141.28752,220.13336 a 1.8520833,1.8520833 0 0 1 -1.85208,1.85208 h 1.85208 z" /></g><g
     inkscape:groupmode="layer"
     id="layer3"
     inkscape:label="numbers"
     sodipodi:insensitive="true"
     transform="translate(0,-2.6458394)"><text
       xml:space="preserve"
       style="font-size:11.9062px;line-height:1.25;font-family:osifont;-inkscape-font-specification:osifont;display:inline;fill:#ffffff;fill-opacity:1;stroke-width:0.264583"
       x="7.8274293"
       y="47.17215"
       id="text6964-0"><tspan
         sodipodi:role="line"
         id="tspan6962-44"
         style="font-size:11.9062px;fill:#ffffff;fill-opacity:1;stroke-width:0.264583"
         x="7.8274293"
         y="47.17215">300</tspan></text><text
       xml:space="preserve"
       style="font-size:11.9062px;line-height:1.25;font-family:osifont;-inkscape-font-specification:osifont;display:inline;fill:#00ff8b;fill-opacity:1;stroke-width:0.264583"
       x="8.8446589"
       y="72.410789"
       id="text6964-8-4"><tspan
         sodipodi:role="line"
         id="tspan6962-4-4"
         style="font-size:11.9062px;fill:#00ff8b;fill-opacity:1;stroke-width:0.264583"
         x="8.8446589"
         y="72.410789">100</tspan></text><text
       xml:space="preserve"
       style="font-size:11.9062px;line-height:1.25;font-family:osifont;-inkscape-font-specification:osifont;display:inline;fill:#6cc1ff;fill-opacity:1;stroke-width:0.264583"
       x="13.91885"
       y="97.943077"
       id="text6964-8-8-7"><tspan
         sodipodi:role="line"
         id="tspan6962-4-1-6"
         style="font-size:11.9062px;fill:#6cc1ff;fill-opacity:1;stroke-width:0.264583"
         x="13.91885"
         y="97.943077">50</tspan></text><text
       xml:space="preserve"
       style="font-size:11.9062px;line-height:1.25;font-family:osifont;-inkscape-font-specification:osifont;display:inline;fill:#ff6496;fill-opacity:1;stroke-width:0.264583"
       x="105.38603"
       y="97.943077"
       id="text852"><tspan
         sodipodi:role="line"
         id="tspan850"
         style="font-size:11.9062px;fill:#ff6496;fill-opacity:1;stroke-width:0.264583"
         x="105.38603"
         y="97.943077">0</tspan></text></g></svg>
