<?xml version="1.0" encoding="UTF-8" standalone="no"?>
<!-- Created with Inkscape (http://www.inkscape.org/) -->

<svg
   width="1024"
   height="1187.2626"
   viewBox="0 0 270.93334 314.12989"
   version="1.1"
   id="svg5"
   inkscape:version="1.2 (dc2aedaf03, 2022-05-15)"
   sodipodi:docname="panel.svg"
   xml:space="preserve"
   xmlns:inkscape="http://www.inkscape.org/namespaces/inkscape"
   xmlns:sodipodi="http://sodipodi.sourceforge.net/DTD/sodipodi-0.dtd"
   xmlns="http://www.w3.org/2000/svg"
   xmlns:svg="http://www.w3.org/2000/svg"><sodipodi:namedview
     id="namedview7"
     pagecolor="#505050"
     bordercolor="#eeeeee"
     borderopacity="1"
     inkscape:pageshadow="0"
     inkscape:pageopacity="0"
     inkscape:pagecheckerboard="0"
     inkscape:document-units="px"
     showgrid="false"
     units="px"
     width="32px"
     inkscape:snap-bbox="true"
     inkscape:bbox-nodes="true"
     inkscape:snap-bbox-midpoints="true"
     inkscape:snap-page="true"
     inkscape:zoom="1"
     inkscape:cx="304.5"
     inkscape:cy="946.5"
     inkscape:window-width="1920"
     inkscape:window-height="1007"
     inkscape:window-x="0"
     inkscape:window-y="0"
     inkscape:window-maximized="1"
     inkscape:current-layer="layer1"
     inkscape:bbox-paths="true"
     inkscape:snap-bbox-edge-midpoints="true"
     inkscape:snap-object-midpoints="true"
     inkscape:snap-center="true"
     showguides="true"
     inkscape:guide-bbox="true"
     fit-margin-top="10"
     fit-margin-left="10"
     fit-margin-right="10"
     fit-margin-bottom="10"
     lock-margins="false"
     inkscape:showpageshadow="0"
     inkscape:deskcolor="#505050" /><defs
     id="defs2"><inkscape:path-effect
       effect="powerclip"
       id="path-effect5676"
       is_visible="true"
       lpeversion="1"
       inverse="true"
       flatten="false"
       hide_clip="false"
       message="Use fill-rule evenodd on &lt;b&gt;fill and stroke&lt;/b&gt; dialog if no flatten result after convert clip to paths." /><inkscape:path-effect
       effect="powerclip"
       id="path-effect5329"
       is_visible="true"
       lpeversion="1"
       inverse="true"
       flatten="false"
       hide_clip="false"
       message="Use fill-rule evenodd on &lt;b&gt;fill and stroke&lt;/b&gt; dialog if no flatten result after convert clip to paths." /><inkscape:path-effect
       effect="powerclip"
       id="path-effect4637"
       is_visible="true"
       lpeversion="1"
       inverse="true"
       flatten="false"
       hide_clip="false"
       message="Use fill-rule evenodd on &lt;b&gt;fill and stroke&lt;/b&gt; dialog if no flatten result after convert clip to paths." /><inkscape:path-effect
       effect="powerclip"
       id="path-effect2077-2"
       is_visible="true"
       lpeversion="1"
       inverse="true"
       flatten="false"
       hide_clip="false"
       message="Use fill-rule evenodd on &lt;b&gt;fill and stroke&lt;/b&gt; dialog if no flatten result after convert clip to paths." /><inkscape:path-effect
       effect="powerclip"
       id="path-effect8168-4-5"
       is_visible="true"
       lpeversion="1"
       inverse="true"
       flatten="false"
       hide_clip="false"
       message="Use fill-rule evenodd on &lt;b&gt;fill and stroke&lt;/b&gt; dialog if no flatten result after convert clip to paths." /><clipPath
       clipPathUnits="userSpaceOnUse"
       id="clipath_lpe_path-effect2077-2"><rect
         style="display:none;fill:#ffffff;fill-opacity:1;stroke-width:2.64567;stroke-linecap:round;stroke-linejoin:round"
         id="rect20898"
         width="19.579166"
         height="19.579166"
         x="146.57916"
         y="203.2"
         rx="1.8520833"
         clip-path="none"
         ry="1.8520833"
         d="m 148.43125,203.2 h 15.875 c 1.02605,0 1.85208,0.82603 1.85208,1.85208 v 15.875 c 0,1.02605 -0.82603,1.85208 -1.85208,1.85208 h -15.875 c -1.02606,0 -1.85209,-0.82603 -1.85209,-1.85208 v -15.875 c 0,-1.02605 0.82603,-1.85208 1.85209,-1.85208 z" /><path
         id="lpe_path-effect2077-2"
         style="display:block;fill:#ffffff;fill-opacity:1;stroke-width:2.64567;stroke-linecap:round;stroke-linejoin:round"
         class="powerclip"
         d="m 141.57916,198.2 h 30.6375 v 29.84375 h -30.6375 z m 6.85209,5 c -1.02606,0 -1.85209,0.82603 -1.85209,1.85208 v 15.875 c 0,1.02605 0.82603,1.85208 1.85209,1.85208 h 15.875 c 1.02605,0 1.85208,-0.82603 1.85208,-1.85208 v -15.875 c 0,-1.02605 -0.82603,-1.85208 -1.85208,-1.85208 z" /></clipPath><clipPath
       clipPathUnits="userSpaceOnUse"
       id="clipath_lpe_path-effect8168-4-5"><path
         style="display:none;fill:#ffffff;fill-opacity:1;stroke-width:2.64567;stroke-linecap:round;stroke-linejoin:round"
         id="path20903"
         width="194"
         height="7"
         x="283"
         y="169"
         ry="3.5"
         rx="3.5"
         sodipodi:type="rect"
         d="m 286.5,169 h 187 c 1.939,0 3.5,1.561 3.5,3.5 0,1.939 -1.561,3.5 -3.5,3.5 h -187 c -1.939,0 -3.5,-1.561 -3.5,-3.5 0,-1.939 1.561,-3.5 3.5,-3.5 z" /><path
         id="lpe_path-effect8168-4-5"
         style="display:block;fill:#ffffff;fill-opacity:1;stroke-width:2.64567;stroke-linecap:round;stroke-linejoin:round"
         class="powerclip"
         d="m 274.75,160.5 h 217.00002 v 24 H 274.75 Z m 11.75,8.5 c -1.939,0 -3.5,1.561 -3.5,3.5 0,1.939 1.561,3.5 3.5,3.5 h 187 c 1.939,0 3.5,-1.561 3.5,-3.5 0,-1.939 -1.561,-3.5 -3.5,-3.5 z" /></clipPath><clipPath
       clipPathUnits="userSpaceOnUse"
       id="clipPath4633"><rect
         style="display:none;opacity:1;fill:#ffffff;stroke-width:0;stroke-linejoin:round"
         id="rect4635"
         width="84.666672"
         height="19.843746"
         x="56.620827"
         y="202.93542"
         d="M 56.620827,202.93542 H 141.2875 v 19.84375 H 56.620827 Z" /><path
         id="lpe_path-effect4637"
         style="display:block;opacity:1;fill:#ffffff;stroke-width:0;stroke-linejoin:round"
         class="powerclip"
         d="M -5.0000022,184.97084 H 202.37915 V 235.1875 H -5.0000022 Z m 61.6208292,17.96458 v 19.84375 H 141.2875 v -19.84375 z" /></clipPath><clipPath
       clipPathUnits="userSpaceOnUse"
       id="clipPath5301"><g
         id="g5327"
         style="display:none;stroke-width:0.999999"><rect
           style="fill:#ffffff;fill-opacity:1;stroke-width:0;stroke-linejoin:round"
           id="rect5303"
           width="28.045834"
           height="8.7312498"
           x="43.920841"
           y="255.68506"
           rx="1.8520833"
           ry="1.8520833"
           d="m 45.772925,255.68506 h 24.341666 c 1.026055,0 1.852084,0.82603 1.852084,1.85208 v 5.02709 c 0,1.02605 -0.826029,1.85208 -1.852084,1.85208 H 45.772925 c -1.026055,0 -1.852084,-0.82603 -1.852084,-1.85208 v -5.02709 c 0,-1.02605 0.826029,-1.85208 1.852084,-1.85208 z" /><rect
           style="fill:#ffffff;fill-opacity:1;stroke-width:0;stroke-linejoin:round"
           id="rect5305"
           width="28.045834"
           height="8.7312498"
           x="43.920841"
           y="265.73923"
           rx="1.8520833"
           ry="1.8520833"
           d="m 45.772925,265.73923 h 24.341666 c 1.026055,0 1.852084,0.82603 1.852084,1.85208 v 5.02708 c 0,1.02606 -0.826029,1.85209 -1.852084,1.85209 H 45.772925 c -1.026055,0 -1.852084,-0.82603 -1.852084,-1.85209 v -5.02708 c 0,-1.02605 0.826029,-1.85208 1.852084,-1.85208 z" /><rect
           style="fill:#ffffff;fill-opacity:1;stroke-width:0;stroke-linejoin:round"
           id="rect5307"
           width="28.045834"
           height="8.7312498"
           x="73.554176"
           y="255.68506"
           rx="1.8520833"
           ry="1.8520833"
           d="m 75.40626,255.68506 h 24.341667 c 1.026053,0 1.852083,0.82603 1.852083,1.85208 v 5.02709 c 0,1.02605 -0.82603,1.85208 -1.852083,1.85208 H 75.40626 c -1.026055,0 -1.852084,-0.82603 -1.852084,-1.85208 v -5.02709 c 0,-1.02605 0.826029,-1.85208 1.852084,-1.85208 z" /><rect
           style="fill:#ffffff;fill-opacity:1;stroke-width:0;stroke-linejoin:round"
           id="rect5309"
           width="28.045834"
           height="8.7312498"
           x="73.554176"
           y="265.73923"
           rx="1.8520833"
           ry="1.8520833"
           d="m 75.40626,265.73923 h 24.341667 c 1.026053,0 1.852083,0.82603 1.852083,1.85208 v 5.02708 c 0,1.02606 -0.82603,1.85209 -1.852083,1.85209 H 75.40626 c -1.026055,0 -1.852084,-0.82603 -1.852084,-1.85209 v -5.02708 c 0,-1.02605 0.826029,-1.85208 1.852084,-1.85208 z" /><rect
           style="fill:#ffffff;fill-opacity:1;stroke-width:0;stroke-linejoin:round"
           id="rect5311"
           width="28.045834"
           height="8.7312498"
           x="103.18751"
           y="255.68506"
           rx="1.8520833"
           ry="1.8520833"
           d="m 105.03959,255.68506 h 24.34167 c 1.02605,0 1.85208,0.82603 1.85208,1.85208 v 5.02709 c 0,1.02605 -0.82603,1.85208 -1.85208,1.85208 h -24.34167 c -1.02605,0 -1.85208,-0.82603 -1.85208,-1.85208 v -5.02709 c 0,-1.02605 0.82603,-1.85208 1.85208,-1.85208 z" /><rect
           style="fill:#ffffff;fill-opacity:1;stroke-width:0;stroke-linejoin:round"
           id="rect5313"
           width="28.045834"
           height="8.7312498"
           x="103.18751"
           y="265.73923"
           rx="1.8520833"
           ry="1.8520833"
           d="m 105.03959,265.73923 h 24.34167 c 1.02605,0 1.85208,0.82603 1.85208,1.85208 v 5.02708 c 0,1.02606 -0.82603,1.85209 -1.85208,1.85209 h -24.34167 c -1.02605,0 -1.85208,-0.82603 -1.85208,-1.85209 v -5.02708 c 0,-1.02605 0.82603,-1.85208 1.85208,-1.85208 z" /><rect
           style="fill:#ffffff;fill-opacity:1;stroke-width:0;stroke-linejoin:round"
           id="rect5315"
           width="44.979164"
           height="8.7312498"
           x="132.82082"
           y="255.68506"
           rx="1.8520833"
           ry="1.8520833"
           d="m 134.6729,255.68506 h 41.275 c 1.02605,0 1.85208,0.82603 1.85208,1.85208 v 5.02709 c 0,1.02605 -0.82603,1.85208 -1.85208,1.85208 h -41.275 c -1.02605,0 -1.85208,-0.82603 -1.85208,-1.85208 v -5.02709 c 0,-1.02605 0.82603,-1.85208 1.85208,-1.85208 z" /><rect
           style="fill:#ffffff;fill-opacity:1;stroke-width:0;stroke-linejoin:round"
           id="rect5317"
           width="44.979164"
           height="8.7312498"
           x="132.82082"
           y="265.73923"
           rx="1.8520833"
           ry="1.8520833"
           d="m 134.6729,265.73923 h 41.275 c 1.02605,0 1.85208,0.82603 1.85208,1.85208 v 5.02708 c 0,1.02606 -0.82603,1.85209 -1.85208,1.85209 h -41.275 c -1.02605,0 -1.85208,-0.82603 -1.85208,-1.85209 v -5.02708 c 0,-1.02605 0.82603,-1.85208 1.85208,-1.85208 z" /><rect
           style="fill:#ffffff;fill-opacity:1;stroke-width:0;stroke-linejoin:round"
           id="rect5319"
           width="44.979164"
           height="8.7312498"
           x="179.3875"
           y="255.68506"
           rx="1.8520833"
           ry="1.8520833"
           d="m 181.23958,255.68506 h 41.275 c 1.02605,0 1.85208,0.82603 1.85208,1.85208 v 5.02709 c 0,1.02605 -0.82603,1.85208 -1.85208,1.85208 h -41.275 c -1.02605,0 -1.85208,-0.82603 -1.85208,-1.85208 v -5.02709 c 0,-1.02605 0.82603,-1.85208 1.85208,-1.85208 z" /><rect
           style="fill:#ffffff;fill-opacity:1;stroke-width:0;stroke-linejoin:round"
           id="rect5321"
           width="44.979164"
           height="8.7312498"
           x="179.3875"
           y="265.73923"
           rx="1.8520833"
           ry="1.8520833"
           d="m 181.23958,265.73923 h 41.275 c 1.02605,0 1.85208,0.82603 1.85208,1.85208 v 5.02708 c 0,1.02606 -0.82603,1.85209 -1.85208,1.85209 h -41.275 c -1.02605,0 -1.85208,-0.82603 -1.85208,-1.85209 v -5.02708 c 0,-1.02605 0.82603,-1.85208 1.85208,-1.85208 z" /><rect
           style="fill:#ffffff;fill-opacity:1;stroke-width:0;stroke-linejoin:round"
           id="rect5323"
           width="28.045834"
           height="8.7312498"
           x="225.95419"
           y="255.68506"
           rx="1.8520833"
           ry="1.8520833"
           d="m 227.80628,255.68506 h 24.34166 c 1.02606,0 1.85209,0.82603 1.85209,1.85208 v 5.02709 c 0,1.02605 -0.82603,1.85208 -1.85209,1.85208 h -24.34166 c -1.02606,0 -1.85209,-0.82603 -1.85209,-1.85208 v -5.02709 c 0,-1.02605 0.82603,-1.85208 1.85209,-1.85208 z" /><rect
           style="fill:#ffffff;fill-opacity:1;stroke-width:0;stroke-linejoin:round"
           id="rect5325"
           width="28.045834"
           height="8.7312498"
           x="225.95419"
           y="265.73923"
           rx="1.8520833"
           ry="1.8520833"
           d="m 227.80628,265.73923 h 24.34166 c 1.02606,0 1.85209,0.82603 1.85209,1.85208 v 5.02708 c 0,1.02606 -0.82603,1.85209 -1.85209,1.85209 h -24.34166 c -1.02606,0 -1.85209,-0.82603 -1.85209,-1.85209 v -5.02708 c 0,-1.02605 0.82603,-1.85208 1.85209,-1.85208 z" /></g><path
         id="lpe_path-effect5329"
         style="stroke-width:0.999999"
         class="powerclip"
         d="M -5.0000022,228.19547 H 275.93335 v 95.7945 H -5.0000022 Z m 50.7729272,27.48959 c -1.026055,0 -1.852084,0.82603 -1.852084,1.85208 v 5.02709 c 0,1.02605 0.826029,1.85208 1.852084,1.85208 h 24.341666 c 1.026055,0 1.852084,-0.82603 1.852084,-1.85208 v -5.02709 c 0,-1.02605 -0.826029,-1.85208 -1.852084,-1.85208 z m 0,10.05417 c -1.026055,0 -1.852084,0.82603 -1.852084,1.85208 v 5.02708 c 0,1.02606 0.826029,1.85209 1.852084,1.85209 h 24.341666 c 1.026055,0 1.852084,-0.82603 1.852084,-1.85209 v -5.02708 c 0,-1.02605 -0.826029,-1.85208 -1.852084,-1.85208 z M 75.40626,255.68506 c -1.026055,0 -1.852084,0.82603 -1.852084,1.85208 v 5.02709 c 0,1.02605 0.826029,1.85208 1.852084,1.85208 h 24.341667 c 1.026053,0 1.852083,-0.82603 1.852083,-1.85208 v -5.02709 c 0,-1.02605 -0.82603,-1.85208 -1.852083,-1.85208 z m 0,10.05417 c -1.026055,0 -1.852084,0.82603 -1.852084,1.85208 v 5.02708 c 0,1.02606 0.826029,1.85209 1.852084,1.85209 h 24.341667 c 1.026053,0 1.852083,-0.82603 1.852083,-1.85209 v -5.02708 c 0,-1.02605 -0.82603,-1.85208 -1.852083,-1.85208 z m 29.63333,-10.05417 c -1.02605,0 -1.85208,0.82603 -1.85208,1.85208 v 5.02709 c 0,1.02605 0.82603,1.85208 1.85208,1.85208 h 24.34167 c 1.02605,0 1.85208,-0.82603 1.85208,-1.85208 v -5.02709 c 0,-1.02605 -0.82603,-1.85208 -1.85208,-1.85208 z m 0,10.05417 c -1.02605,0 -1.85208,0.82603 -1.85208,1.85208 v 5.02708 c 0,1.02606 0.82603,1.85209 1.85208,1.85209 h 24.34167 c 1.02605,0 1.85208,-0.82603 1.85208,-1.85209 v -5.02708 c 0,-1.02605 -0.82603,-1.85208 -1.85208,-1.85208 z m 29.63331,-10.05417 c -1.02605,0 -1.85208,0.82603 -1.85208,1.85208 v 5.02709 c 0,1.02605 0.82603,1.85208 1.85208,1.85208 h 41.275 c 1.02605,0 1.85208,-0.82603 1.85208,-1.85208 v -5.02709 c 0,-1.02605 -0.82603,-1.85208 -1.85208,-1.85208 z m 0,10.05417 c -1.02605,0 -1.85208,0.82603 -1.85208,1.85208 v 5.02708 c 0,1.02606 0.82603,1.85209 1.85208,1.85209 h 41.275 c 1.02605,0 1.85208,-0.82603 1.85208,-1.85209 v -5.02708 c 0,-1.02605 -0.82603,-1.85208 -1.85208,-1.85208 z m 46.56668,-10.05417 c -1.02605,0 -1.85208,0.82603 -1.85208,1.85208 v 5.02709 c 0,1.02605 0.82603,1.85208 1.85208,1.85208 h 41.275 c 1.02605,0 1.85208,-0.82603 1.85208,-1.85208 v -5.02709 c 0,-1.02605 -0.82603,-1.85208 -1.85208,-1.85208 z m 0,10.05417 c -1.02605,0 -1.85208,0.82603 -1.85208,1.85208 v 5.02708 c 0,1.02606 0.82603,1.85209 1.85208,1.85209 h 41.275 c 1.02605,0 1.85208,-0.82603 1.85208,-1.85209 v -5.02708 c 0,-1.02605 -0.82603,-1.85208 -1.85208,-1.85208 z m 46.5667,-10.05417 c -1.02606,0 -1.85209,0.82603 -1.85209,1.85208 v 5.02709 c 0,1.02605 0.82603,1.85208 1.85209,1.85208 h 24.34166 c 1.02606,0 1.85209,-0.82603 1.85209,-1.85208 v -5.02709 c 0,-1.02605 -0.82603,-1.85208 -1.85209,-1.85208 z m 0,10.05417 c -1.02606,0 -1.85209,0.82603 -1.85209,1.85208 v 5.02708 c 0,1.02606 0.82603,1.85209 1.85209,1.85209 h 24.34166 c 1.02606,0 1.85209,-0.82603 1.85209,-1.85209 v -5.02708 c 0,-1.02605 -0.82603,-1.85208 -1.85209,-1.85208 z" /></clipPath><clipPath
       clipPathUnits="userSpaceOnUse"
       id="clipPath5668"><g
         id="g5674"
         style="display:none;stroke-width:0.999999"><circle
           style="fill:#ffffff;stroke-width:0;stroke-linejoin:round"
           id="circle5670"
           r="1.4552083"
           cy="186.66354"
           cx="206.50729"
           d="m 207.9625,186.66354 a 1.4552083,1.4552083 0 0 1 -1.45521,1.45521 1.4552083,1.4552083 0 0 1 -1.4552,-1.45521 1.4552083,1.4552083 0 0 1 1.4552,-1.4552 1.4552083,1.4552083 0 0 1 1.45521,1.4552 z" /><circle
           style="fill:#ffffff;stroke-width:0;stroke-linejoin:round"
           id="circle5672"
           cx="206.50729"
           cy="195.1302"
           r="1.4552083"
           d="m 207.9625,195.1302 a 1.4552083,1.4552083 0 0 1 -1.45521,1.45521 1.4552083,1.4552083 0 0 1 -1.4552,-1.45521 1.4552083,1.4552083 0 0 1 1.4552,-1.45521 1.4552083,1.4552083 0 0 1 1.45521,1.45521 z" /></g><path
         id="lpe_path-effect5676"
         style="stroke-width:0.999999"
         class="powerclip"
         d="m 192.37915,174.12291 h 83.55418 v 64.23958 h -83.55418 z m 15.58335,12.54063 a 1.4552083,1.4552083 0 0 0 -1.45521,-1.4552 1.4552083,1.4552083 0 0 0 -1.4552,1.4552 1.4552083,1.4552083 0 0 0 1.4552,1.45521 1.4552083,1.4552083 0 0 0 1.45521,-1.45521 z m 0,8.46666 a 1.4552083,1.4552083 0 0 0 -1.45521,-1.45521 1.4552083,1.4552083 0 0 0 -1.4552,1.45521 1.4552083,1.4552083 0 0 0 1.4552,1.45521 1.4552083,1.4552083 0 0 0 1.45521,-1.45521 z" /></clipPath></defs><g
     inkscape:label="panels"
     inkscape:groupmode="layer"
     id="layer1"
     transform="translate(2.1617702e-6,-5.0270829)"><rect
       style="opacity:1;fill:#000000;fill-opacity:1;stroke-width:0;stroke-linejoin:round"
       id="rect10894"
       width="197.37917"
       height="14.022919"
       x="-2.1617702e-06"
       y="178.59375" /><path
       style="fill:#000000;fill-opacity:1;stroke-width:0;stroke-linejoin:round"
       id="rect7218"
       width="270.93335"
       height="85.794502"
       x="-2.1617702e-06"
       y="233.19547"
       clip-path="url(#clipPath5301)"
       sodipodi:type="rect"
       d="M -2.1617702e-6,233.19547 H 270.93335 v 85.7945 H -2.1617702e-6 Z"
       inkscape:path-effect="#path-effect5329"
       transform="translate(0,-0.36213938)" /><path
       style="fill:#000000;fill-opacity:1;stroke-width:0;stroke-linejoin:round"
       id="rect2158"
       width="197.37915"
       height="40.216663"
       x="-2.1602254e-06"
       y="189.97084"
       clip-path="url(#clipPath4633)"
       sodipodi:type="rect"
       d="M -2.1602254e-6,189.97084 H 197.37915 V 230.1875 H -2.1602254e-6 Z"
       inkscape:path-effect="#path-effect4637"
       transform="translate(0,2.6458205)" /><path
       style="fill:#000000;stroke-width:0;stroke-linejoin:round"
       id="rect804"
       width="73.554184"
       height="54.239582"
       x="197.37915"
       y="179.12291"
       clip-path="url(#clipPath5668)"
       sodipodi:type="rect"
       d="m 197.37915,179.12291 h 73.55418 v 54.23958 h -73.55418 z"
       inkscape:path-effect="#path-effect5676"
       transform="translate(0,-0.52916438)" /><path
       style="display:inline;fill:#000000;fill-opacity:1;stroke-width:2.94684;stroke-linecap:round;stroke-linejoin:round"
       id="path8315"
       width="20.637499"
       height="19.843754"
       x="146.57916"
       y="203.2"
       sodipodi:type="rect"
       mask="none"
       clip-path="url(#clipath_lpe_path-effect2077-2)"
       d="m 146.57916,203.2 h 20.6375 v 19.84375 h -20.6375 z"
       inkscape:path-effect="#path-effect2077-2"
       transform="translate(-89.958335,2.3812483)" /><path
       style="display:inline;fill:#000000;fill-opacity:0.999569;stroke-width:2.18541;stroke-linecap:round;stroke-linejoin:round"
       id="rect3779-6"
       width="207.00002"
       height="14"
       x="279.75"
       y="165.5"
       mask="none"
       clip-path="url(#clipath_lpe_path-effect8168-4-5)"
       sodipodi:type="rect"
       rx="6.9999995"
       inkscape:path-effect="#path-effect8168-4-5"
       ry="6.9999995"
       transform="matrix(0.26458333,0,0,0.26458333,14.2875,178.32917)"
       d="m 286.75,165.5 h 193.00002 c 3.878,0 7,3.122 7,7 v 0 c 0,3.878 -3.122,7 -7,7 H 286.75 c -3.878,0 -7,-3.122 -7,-7 v 0 c 0,-3.878 3.122,-7 7,-7 z" /><path
       id="rect7456"
       clip-path="none"
       style="display:inline;fill:#000000;fill-opacity:0.999569;stroke-width:1.05833;stroke-linecap:round;stroke-linejoin:round"
       d="m 77.258341,223.30834 v 1.85208 h 1.85209 a 1.8520833,1.8520833 0 0 1 -1.85209,-1.85208 z" /><rect
       style="display:inline;fill:#000000;fill-opacity:1;stroke:none;stroke-width:1.05833;stroke-linecap:round;stroke-linejoin:round"
       id="rect2527"
       width="11.90625"
       height="0.26458272"
       x="77.258347"
       y="225.16042" /><path
       id="path7970"
       clip-path="none"
       style="display:inline;fill:#000000;fill-opacity:0.999569;stroke-width:1.05833;stroke-linecap:round;stroke-linejoin:round"
       d="m 77.258341,205.58125 v 1.85209 a 1.8520833,1.8520833 0 0 1 1.85209,-1.85209 z" /><path
       id="path7981"
       clip-path="none"
       style="display:inline;fill:#000000;fill-opacity:0.999569;stroke-width:1.05833;stroke-linecap:round;stroke-linejoin:round"
       d="m 139.43544,205.58125 a 1.8520833,1.8520833 0 0 1 1.85208,1.85209 v -1.85209 z" /><path
       id="path7992"
       clip-path="none"
       style="display:inline;fill:#000000;fill-opacity:0.999569;stroke-width:1.05833;stroke-linecap:round;stroke-linejoin:round"
       d="m 141.28752,220.26563 a 1.8520833,1.8520833 0 0 1 -1.85208,1.85208 h 1.85208 z" /><rect
       style="opacity:1;fill:#000000;fill-opacity:1;stroke-width:0;stroke-linejoin:round"
       id="rect21874"
       width="270.93335"
       height="0.5291667"
       x="-1.7157189e-06"
       y="318.62781" /><rect
       style="opacity:1;fill:#000000;fill-opacity:1;stroke-width:0;stroke-linejoin:round"
       id="rect22664"
       width="270.93335"
       height="0.5291667"
       x="-2.1575563e-06"
       y="178.06459" /><text
       xml:space="preserve"
       style="font-size:4.23333px;line-height:1.25;font-family:osifont;-inkscape-font-specification:osifont;fill:#ffffff;fill-opacity:1;stroke-width:0.264583"
       x="206.24271"
       y="187.5896"
       id="text344"><tspan
         sodipodi:role="line"
         id="tspan342"
         style="font-size:4.23333px;fill:#ffffff;fill-opacity:1;stroke-width:0.264583"
         x="206.24271"
         y="187.5896"> Export Replay</tspan></text><text
       xml:space="preserve"
       style="font-size:4.23333px;line-height:1.25;font-family:osifont;-inkscape-font-specification:osifont;fill:#ffffff;fill-opacity:1;stroke-width:0.264583"
       x="206.24271"
       y="196.05626"
       id="text1628"><tspan
         sodipodi:role="line"
         id="tspan1626"
         style="font-size:4.23333px;fill:#ffffff;fill-opacity:1;stroke-width:0.264583"
         x="206.24271"
         y="196.05626"> Add to Favorites</tspan></text><rect
       style="fill:#000000;fill-opacity:0.301961;stroke:#000000;stroke-width:0;stroke-linecap:round;stroke-miterlimit:4;stroke-dasharray:none;stroke-opacity:1"
       id="rect852"
       width="158.75"
       height="128.32292"
       x="2.6458318"
       y="5.0270834"
       rx="1.8520833"
       ry="1.8520833" /></g><g
     inkscape:groupmode="layer"
     id="layer3-1"
     inkscape:label="numbers"
     transform="translate(0,-2.6458335)"><text
       xml:space="preserve"
       style="font-size:11.9062px;line-height:1.25;font-family:osifont;-inkscape-font-specification:osifont;display:inline;fill:#ffffff;fill-opacity:1;stroke-width:0.264583"
       x="7.8274293"
       y="47.17215"
       id="text6964-0-2"><tspan
         sodipodi:role="line"
         id="tspan6962-44-7"
         style="font-size:11.9062px;fill:#ffffff;fill-opacity:1;stroke-width:0.264583"
         x="7.8274293"
         y="47.17215">300</tspan></text><text
       xml:space="preserve"
       style="font-size:11.9062px;line-height:1.25;font-family:osifont;-inkscape-font-specification:osifont;display:inline;fill:#00ff8b;fill-opacity:1;stroke-width:0.264583"
       x="8.8446589"
       y="72.410789"
       id="text6964-8-4-0"><tspan
         sodipodi:role="line"
         id="tspan6962-4-4-9"
         style="font-size:11.9062px;fill:#00ff8b;fill-opacity:1;stroke-width:0.264583"
         x="8.8446589"
         y="72.410789">100</tspan></text><text
       xml:space="preserve"
       style="font-size:11.9062px;line-height:1.25;font-family:osifont;-inkscape-font-specification:osifont;display:inline;fill:#6cc1ff;fill-opacity:1;stroke-width:0.264583"
       x="13.91885"
       y="97.943077"
       id="text6964-8-8-7-3"><tspan
         sodipodi:role="line"
         id="tspan6962-4-1-6-6"
         style="font-size:11.9062px;fill:#6cc1ff;fill-opacity:1;stroke-width:0.264583"
         x="13.91885"
         y="97.943077">50</tspan></text><text
       xml:space="preserve"
       style="font-size:11.9062px;line-height:1.25;font-family:osifont;-inkscape-font-specification:osifont;display:inline;fill:#ff6496;fill-opacity:1;stroke-width:0.264583"
       x="105.38603"
       y="97.943077"
       id="text852-0"><tspan
         sodipodi:role="line"
         id="tspan850-6"
         style="font-size:11.9062px;fill:#ff6496;fill-opacity:1;stroke-width:0.264583"
         x="105.38603"
         y="97.943077">0</tspan></text></g></svg>
