<?xml version="1.0" encoding="UTF-8" standalone="no"?>
<!-- Created with Inkscape (http://www.inkscape.org/) -->

<svg
   width="1366"
   height="1374.4999"
   viewBox="0 0 361.42084 363.66976"
   version="1.1"
   id="svg5"
   inkscape:version="1.2 (dc2aedaf03, 2022-05-15)"
   sodipodi:docname="panel.svg"
   xml:space="preserve"
   xmlns:inkscape="http://www.inkscape.org/namespaces/inkscape"
   xmlns:sodipodi="http://sodipodi.sourceforge.net/DTD/sodipodi-0.dtd"
   xmlns:xlink="http://www.w3.org/1999/xlink"
   xmlns="http://www.w3.org/2000/svg"
   xmlns:svg="http://www.w3.org/2000/svg"><sodipodi:namedview
     id="namedview7"
     pagecolor="#505050"
     bordercolor="#eeeeee"
     borderopacity="1"
     inkscape:pageshadow="0"
     inkscape:pageopacity="0"
     inkscape:pagecheckerboard="0"
     inkscape:document-units="px"
     showgrid="false"
     units="px"
     width="32px"
     inkscape:snap-bbox="true"
     inkscape:bbox-nodes="true"
     inkscape:snap-bbox-midpoints="true"
     inkscape:snap-page="true"
     inkscape:zoom="4"
     inkscape:cx="1227.75"
     inkscape:cy="713.24999"
     inkscape:window-width="1920"
     inkscape:window-height="1007"
     inkscape:window-x="0"
     inkscape:window-y="0"
     inkscape:window-maximized="1"
     inkscape:current-layer="layer1"
     inkscape:bbox-paths="true"
     inkscape:snap-bbox-edge-midpoints="true"
     inkscape:snap-object-midpoints="true"
     inkscape:snap-center="true"
     showguides="false"
     inkscape:guide-bbox="true"
     fit-margin-top="10"
     fit-margin-left="10"
     fit-margin-right="10"
     fit-margin-bottom="10"
     lock-margins="false"
     inkscape:showpageshadow="0"
     inkscape:deskcolor="#505050" /><defs
     id="defs2"><linearGradient
       inkscape:collect="always"
       id="linearGradient978"><stop
         style="stop-color:#ffffff;stop-opacity:1;"
         offset="0"
         id="stop974" /><stop
         style="stop-color:#000000;stop-opacity:0;"
         offset="1"
         id="stop976" /></linearGradient><inkscape:path-effect
       effect="powerclip"
       id="path-effect21690"
       is_visible="true"
       lpeversion="1"
       inverse="true"
       flatten="false"
       hide_clip="false"
       message="Use fill-rule evenodd on &lt;b&gt;fill and stroke&lt;/b&gt; dialog if no flatten result after convert clip to paths." /><inkscape:path-effect
       effect="powerclip"
       id="path-effect2369-2"
       is_visible="true"
       lpeversion="1"
       inverse="true"
       flatten="false"
       hide_clip="false"
       message="Use fill-rule evenodd on &lt;b&gt;fill and stroke&lt;/b&gt; dialog if no flatten result after convert clip to paths." /><inkscape:path-effect
       effect="powerclip"
       id="path-effect1039-9"
       is_visible="true"
       lpeversion="1"
       inverse="true"
       flatten="false"
       hide_clip="false"
       message="Use fill-rule evenodd on &lt;b&gt;fill and stroke&lt;/b&gt; dialog if no flatten result after convert clip to paths." /><inkscape:path-effect
       effect="powerclip"
       id="path-effect2077-2"
       is_visible="true"
       lpeversion="1"
       inverse="true"
       flatten="false"
       hide_clip="false"
       message="Use fill-rule evenodd on &lt;b&gt;fill and stroke&lt;/b&gt; dialog if no flatten result after convert clip to paths." /><inkscape:path-effect
       effect="powerclip"
       id="path-effect8168-4-5"
       is_visible="true"
       lpeversion="1"
       inverse="true"
       flatten="false"
       hide_clip="false"
       message="Use fill-rule evenodd on &lt;b&gt;fill and stroke&lt;/b&gt; dialog if no flatten result after convert clip to paths." /><clipPath
       clipPathUnits="userSpaceOnUse"
       id="clipath_lpe_path-effect2369-2"><rect
         style="display:none;opacity:1;fill:#ffffff;stroke-width:0;stroke-linejoin:round"
         id="rect20884"
         width="84.666672"
         height="19.843746"
         x="146.57916"
         y="203.2"
         d="m 146.57916,203.2 h 84.66667 v 19.84374 h -84.66667 z" /><path
         id="lpe_path-effect2369-2"
         style="opacity:1;fill:#ffffff;stroke-width:0;stroke-linejoin:round"
         class="powerclip"
         d="m -5,185.23541 h 297.33749 v 50.21667 H -5 Z M 146.57916,203.2 v 19.84374 h 84.66667 V 203.2 Z" /></clipPath><clipPath
       clipPathUnits="userSpaceOnUse"
       id="clipath_lpe_path-effect1039-9"><g
         id="g20893"
         style="display:none;stroke-width:0.999999"><circle
           style="opacity:1;fill:#ffffff;stroke-width:0;stroke-linejoin:round"
           id="circle20889"
           r="1.4552083"
           cy="183.75313"
           cx="297.25937"
           d="m 298.71458,183.75313 a 1.4552083,1.4552083 0 0 1 -1.45521,1.45521 1.4552083,1.4552083 0 0 1 -1.45521,-1.45521 1.4552083,1.4552083 0 0 1 1.45521,-1.45521 1.4552083,1.4552083 0 0 1 1.45521,1.45521 z" /><circle
           style="opacity:1;fill:#ffffff;stroke-width:0;stroke-linejoin:round"
           id="circle20891"
           cx="297.25937"
           cy="192.21979"
           r="1.4552083"
           d="m 298.71458,192.21979 a 1.4552083,1.4552083 0 0 1 -1.45521,1.45521 1.4552083,1.4552083 0 0 1 -1.45521,-1.45521 1.4552083,1.4552083 0 0 1 1.45521,-1.45521 1.4552083,1.4552083 0 0 1 1.45521,1.45521 z" /></g><path
         id="lpe_path-effect1039-9"
         style="stroke-width:0.999999"
         class="powerclip"
         d="m 282.33749,171.21249 h 84.08334 v 64.23959 h -84.08334 z m 16.37709,12.54064 a 1.4552083,1.4552083 0 0 0 -1.45521,-1.45521 1.4552083,1.4552083 0 0 0 -1.45521,1.45521 1.4552083,1.4552083 0 0 0 1.45521,1.45521 1.4552083,1.4552083 0 0 0 1.45521,-1.45521 z m 0,8.46666 a 1.4552083,1.4552083 0 0 0 -1.45521,-1.45521 1.4552083,1.4552083 0 0 0 -1.45521,1.45521 1.4552083,1.4552083 0 0 0 1.45521,1.45521 1.4552083,1.4552083 0 0 0 1.45521,-1.45521 z" /></clipPath><clipPath
       clipPathUnits="userSpaceOnUse"
       id="clipath_lpe_path-effect2077-2"><rect
         style="display:none;fill:#ffffff;fill-opacity:1;stroke-width:2.64567;stroke-linecap:round;stroke-linejoin:round"
         id="rect20898"
         width="19.579166"
         height="19.579166"
         x="146.57916"
         y="203.2"
         rx="1.8520833"
         clip-path="none"
         ry="1.8520833"
         d="m 148.43125,203.2 h 15.875 c 1.02605,0 1.85208,0.82603 1.85208,1.85208 v 15.875 c 0,1.02605 -0.82603,1.85208 -1.85208,1.85208 h -15.875 c -1.02606,0 -1.85209,-0.82603 -1.85209,-1.85208 v -15.875 c 0,-1.02605 0.82603,-1.85208 1.85209,-1.85208 z" /><path
         id="lpe_path-effect2077-2"
         style="display:block;fill:#ffffff;fill-opacity:1;stroke-width:2.64567;stroke-linecap:round;stroke-linejoin:round"
         class="powerclip"
         d="m 141.57916,198.2 h 30.6375 v 29.84375 h -30.6375 z m 6.85209,5 c -1.02606,0 -1.85209,0.82603 -1.85209,1.85208 v 15.875 c 0,1.02605 0.82603,1.85208 1.85209,1.85208 h 15.875 c 1.02605,0 1.85208,-0.82603 1.85208,-1.85208 v -15.875 c 0,-1.02605 -0.82603,-1.85208 -1.85208,-1.85208 z" /></clipPath><clipPath
       clipPathUnits="userSpaceOnUse"
       id="clipath_lpe_path-effect8168-4-5"><path
         style="display:none;fill:#ffffff;fill-opacity:1;stroke-width:2.64567;stroke-linecap:round;stroke-linejoin:round"
         id="path20903"
         width="194"
         height="7"
         x="283"
         y="169"
         ry="3.5"
         rx="3.5"
         sodipodi:type="rect"
         d="m 286.5,169 h 187 c 1.939,0 3.5,1.561 3.5,3.5 0,1.939 -1.561,3.5 -3.5,3.5 h -187 c -1.939,0 -3.5,-1.561 -3.5,-3.5 0,-1.939 1.561,-3.5 3.5,-3.5 z" /><path
         id="lpe_path-effect8168-4-5"
         style="display:block;fill:#ffffff;fill-opacity:1;stroke-width:2.64567;stroke-linecap:round;stroke-linejoin:round"
         class="powerclip"
         d="m 274.75,160.5 h 217.00002 v 24 H 274.75 Z m 11.75,8.5 c -1.939,0 -3.5,1.561 -3.5,3.5 0,1.939 1.561,3.5 3.5,3.5 h 187 c 1.939,0 3.5,-1.561 3.5,-3.5 0,-1.939 -1.561,-3.5 -3.5,-3.5 z" /></clipPath><clipPath
       clipPathUnits="userSpaceOnUse"
       id="clipPath21662"><g
         id="g21688"
         style="display:none;stroke-width:0.999999"><rect
           style="fill:#ffffff;fill-opacity:1;stroke-width:0;stroke-linejoin:round"
           id="rect21664"
           width="28.045834"
           height="8.7312498"
           x="89.429169"
           y="252.94167"
           rx="1.8520833"
           ry="1.8520833"
           d="m 91.281252,252.94167 h 24.341668 c 1.02605,0 1.85208,0.82602 1.85208,1.85208 v 5.02708 c 0,1.02606 -0.82603,1.85209 -1.85208,1.85209 H 91.281252 c -1.026054,0 -1.852083,-0.82603 -1.852083,-1.85209 v -5.02708 c 0,-1.02606 0.826029,-1.85208 1.852083,-1.85208 z" /><rect
           style="fill:#ffffff;fill-opacity:1;stroke-width:0;stroke-linejoin:round"
           id="rect21666"
           width="28.045834"
           height="8.7312498"
           x="89.429169"
           y="262.99582"
           rx="1.8520833"
           ry="1.8520833"
           d="m 91.281252,262.99582 h 24.341668 c 1.02605,0 1.85208,0.82603 1.85208,1.85208 v 5.02709 c 0,1.02605 -0.82603,1.85208 -1.85208,1.85208 H 91.281252 c -1.026054,0 -1.852083,-0.82603 -1.852083,-1.85208 v -5.02709 c 0,-1.02605 0.826029,-1.85208 1.852083,-1.85208 z" /><rect
           style="fill:#ffffff;fill-opacity:1;stroke-width:0;stroke-linejoin:round"
           id="rect21668"
           width="28.045834"
           height="8.7312498"
           x="119.0625"
           y="252.94167"
           rx="1.8520833"
           ry="1.8520833"
           d="m 120.91458,252.94167 h 24.34167 c 1.02605,0 1.85208,0.82602 1.85208,1.85208 v 5.02708 c 0,1.02606 -0.82603,1.85209 -1.85208,1.85209 h -24.34167 c -1.02605,0 -1.85208,-0.82603 -1.85208,-1.85209 v -5.02708 c 0,-1.02606 0.82603,-1.85208 1.85208,-1.85208 z" /><rect
           style="fill:#ffffff;fill-opacity:1;stroke-width:0;stroke-linejoin:round"
           id="rect21670"
           width="28.045834"
           height="8.7312498"
           x="119.0625"
           y="262.99582"
           rx="1.8520833"
           ry="1.8520833"
           d="m 120.91458,262.99582 h 24.34167 c 1.02605,0 1.85208,0.82603 1.85208,1.85208 v 5.02709 c 0,1.02605 -0.82603,1.85208 -1.85208,1.85208 h -24.34167 c -1.02605,0 -1.85208,-0.82603 -1.85208,-1.85208 v -5.02709 c 0,-1.02605 0.82603,-1.85208 1.85208,-1.85208 z" /><rect
           style="fill:#ffffff;fill-opacity:1;stroke-width:0;stroke-linejoin:round"
           id="rect21672"
           width="28.045834"
           height="8.7312498"
           x="148.69583"
           y="252.94167"
           rx="1.8520833"
           ry="1.8520833"
           d="m 150.54791,252.94167 h 24.34167 c 1.02606,0 1.85208,0.82602 1.85208,1.85208 v 5.02708 c 0,1.02606 -0.82602,1.85209 -1.85208,1.85209 h -24.34167 c -1.02605,0 -1.85208,-0.82603 -1.85208,-1.85209 v -5.02708 c 0,-1.02606 0.82603,-1.85208 1.85208,-1.85208 z" /><rect
           style="fill:#ffffff;fill-opacity:1;stroke-width:0;stroke-linejoin:round"
           id="rect21674"
           width="28.045834"
           height="8.7312498"
           x="148.69583"
           y="262.99582"
           rx="1.8520833"
           ry="1.8520833"
           d="m 150.54791,262.99582 h 24.34167 c 1.02606,0 1.85208,0.82603 1.85208,1.85208 v 5.02709 c 0,1.02605 -0.82602,1.85208 -1.85208,1.85208 h -24.34167 c -1.02605,0 -1.85208,-0.82603 -1.85208,-1.85208 v -5.02709 c 0,-1.02605 0.82603,-1.85208 1.85208,-1.85208 z" /><rect
           style="fill:#ffffff;fill-opacity:1;stroke-width:0;stroke-linejoin:round"
           id="rect21676"
           width="44.979164"
           height="8.7312498"
           x="178.32915"
           y="252.94167"
           rx="1.8520833"
           ry="1.8520833"
           d="m 180.18123,252.94167 h 41.275 c 1.02605,0 1.85208,0.82602 1.85208,1.85208 v 5.02708 c 0,1.02606 -0.82603,1.85209 -1.85208,1.85209 h -41.275 c -1.02605,0 -1.85208,-0.82603 -1.85208,-1.85209 v -5.02708 c 0,-1.02606 0.82603,-1.85208 1.85208,-1.85208 z" /><rect
           style="fill:#ffffff;fill-opacity:1;stroke-width:0;stroke-linejoin:round"
           id="rect21678"
           width="44.979164"
           height="8.7312498"
           x="178.32915"
           y="262.99582"
           rx="1.8520833"
           ry="1.8520833"
           d="m 180.18123,262.99582 h 41.275 c 1.02605,0 1.85208,0.82603 1.85208,1.85208 v 5.02709 c 0,1.02605 -0.82603,1.85208 -1.85208,1.85208 h -41.275 c -1.02605,0 -1.85208,-0.82603 -1.85208,-1.85208 v -5.02709 c 0,-1.02605 0.82603,-1.85208 1.85208,-1.85208 z" /><rect
           style="fill:#ffffff;fill-opacity:1;stroke-width:0;stroke-linejoin:round"
           id="rect21680"
           width="44.979164"
           height="8.7312498"
           x="224.89583"
           y="252.94167"
           rx="1.8520833"
           ry="1.8520833"
           d="m 226.74791,252.94167 h 41.275 c 1.02605,0 1.85208,0.82602 1.85208,1.85208 v 5.02708 c 0,1.02606 -0.82603,1.85209 -1.85208,1.85209 h -41.275 c -1.02605,0 -1.85208,-0.82603 -1.85208,-1.85209 v -5.02708 c 0,-1.02606 0.82603,-1.85208 1.85208,-1.85208 z" /><rect
           style="fill:#ffffff;fill-opacity:1;stroke-width:0;stroke-linejoin:round"
           id="rect21682"
           width="44.979164"
           height="8.7312498"
           x="224.89583"
           y="262.99582"
           rx="1.8520833"
           ry="1.8520833"
           d="m 226.74791,262.99582 h 41.275 c 1.02605,0 1.85208,0.82603 1.85208,1.85208 v 5.02709 c 0,1.02605 -0.82603,1.85208 -1.85208,1.85208 h -41.275 c -1.02605,0 -1.85208,-0.82603 -1.85208,-1.85208 v -5.02709 c 0,-1.02605 0.82603,-1.85208 1.85208,-1.85208 z" /><rect
           style="fill:#ffffff;fill-opacity:1;stroke-width:0;stroke-linejoin:round"
           id="rect21684"
           width="28.045834"
           height="8.7312498"
           x="271.46252"
           y="252.94167"
           rx="1.8520833"
           ry="1.8520833"
           d="m 273.31461,252.94167 h 24.34166 c 1.02606,0 1.85209,0.82602 1.85209,1.85208 v 5.02708 c 0,1.02606 -0.82603,1.85209 -1.85209,1.85209 h -24.34166 c -1.02606,0 -1.85209,-0.82603 -1.85209,-1.85209 v -5.02708 c 0,-1.02606 0.82603,-1.85208 1.85209,-1.85208 z" /><rect
           style="fill:#ffffff;fill-opacity:1;stroke-width:0;stroke-linejoin:round"
           id="rect21686"
           width="28.045834"
           height="8.7312498"
           x="271.46252"
           y="262.99582"
           rx="1.8520833"
           ry="1.8520833"
           d="m 273.31461,262.99582 h 24.34166 c 1.02606,0 1.85209,0.82603 1.85209,1.85208 v 5.02709 c 0,1.02605 -0.82603,1.85208 -1.85209,1.85208 h -24.34166 c -1.02606,0 -1.85209,-0.82603 -1.85209,-1.85208 v -5.02709 c 0,-1.02605 0.82603,-1.85208 1.85209,-1.85208 z" /></g><path
         id="lpe_path-effect21690"
         style="display:block;stroke-width:0.999999"
         class="powerclip"
         d="m -5,225.45207 h 371.42084 v 95.7945 H -5 Z m 96.281252,27.4896 c -1.026054,0 -1.852083,0.82602 -1.852083,1.85208 v 5.02708 c 0,1.02606 0.826029,1.85209 1.852083,1.85209 h 24.341668 c 1.02605,0 1.85208,-0.82603 1.85208,-1.85209 v -5.02708 c 0,-1.02606 -0.82603,-1.85208 -1.85208,-1.85208 z m 0,10.05415 c -1.026054,0 -1.852083,0.82603 -1.852083,1.85208 v 5.02709 c 0,1.02605 0.826029,1.85208 1.852083,1.85208 h 24.341668 c 1.02605,0 1.85208,-0.82603 1.85208,-1.85208 v -5.02709 c 0,-1.02605 -0.82603,-1.85208 -1.85208,-1.85208 z m 29.633328,-10.05415 c -1.02605,0 -1.85208,0.82602 -1.85208,1.85208 v 5.02708 c 0,1.02606 0.82603,1.85209 1.85208,1.85209 h 24.34167 c 1.02605,0 1.85208,-0.82603 1.85208,-1.85209 v -5.02708 c 0,-1.02606 -0.82603,-1.85208 -1.85208,-1.85208 z m 0,10.05415 c -1.02605,0 -1.85208,0.82603 -1.85208,1.85208 v 5.02709 c 0,1.02605 0.82603,1.85208 1.85208,1.85208 h 24.34167 c 1.02605,0 1.85208,-0.82603 1.85208,-1.85208 v -5.02709 c 0,-1.02605 -0.82603,-1.85208 -1.85208,-1.85208 z m 29.63333,-10.05415 c -1.02605,0 -1.85208,0.82602 -1.85208,1.85208 v 5.02708 c 0,1.02606 0.82603,1.85209 1.85208,1.85209 h 24.34167 c 1.02606,0 1.85208,-0.82603 1.85208,-1.85209 v -5.02708 c 0,-1.02606 -0.82602,-1.85208 -1.85208,-1.85208 z m 0,10.05415 c -1.02605,0 -1.85208,0.82603 -1.85208,1.85208 v 5.02709 c 0,1.02605 0.82603,1.85208 1.85208,1.85208 h 24.34167 c 1.02606,0 1.85208,-0.82603 1.85208,-1.85208 v -5.02709 c 0,-1.02605 -0.82602,-1.85208 -1.85208,-1.85208 z m 29.63332,-10.05415 c -1.02605,0 -1.85208,0.82602 -1.85208,1.85208 v 5.02708 c 0,1.02606 0.82603,1.85209 1.85208,1.85209 h 41.275 c 1.02605,0 1.85208,-0.82603 1.85208,-1.85209 v -5.02708 c 0,-1.02606 -0.82603,-1.85208 -1.85208,-1.85208 z m 0,10.05415 c -1.02605,0 -1.85208,0.82603 -1.85208,1.85208 v 5.02709 c 0,1.02605 0.82603,1.85208 1.85208,1.85208 h 41.275 c 1.02605,0 1.85208,-0.82603 1.85208,-1.85208 v -5.02709 c 0,-1.02605 -0.82603,-1.85208 -1.85208,-1.85208 z m 46.56668,-10.05415 c -1.02605,0 -1.85208,0.82602 -1.85208,1.85208 v 5.02708 c 0,1.02606 0.82603,1.85209 1.85208,1.85209 h 41.275 c 1.02605,0 1.85208,-0.82603 1.85208,-1.85209 v -5.02708 c 0,-1.02606 -0.82603,-1.85208 -1.85208,-1.85208 z m 0,10.05415 c -1.02605,0 -1.85208,0.82603 -1.85208,1.85208 v 5.02709 c 0,1.02605 0.82603,1.85208 1.85208,1.85208 h 41.275 c 1.02605,0 1.85208,-0.82603 1.85208,-1.85208 v -5.02709 c 0,-1.02605 -0.82603,-1.85208 -1.85208,-1.85208 z m 46.5667,-10.05415 c -1.02606,0 -1.85209,0.82602 -1.85209,1.85208 v 5.02708 c 0,1.02606 0.82603,1.85209 1.85209,1.85209 h 24.34166 c 1.02606,0 1.85209,-0.82603 1.85209,-1.85209 v -5.02708 c 0,-1.02606 -0.82603,-1.85208 -1.85209,-1.85208 z m 0,10.05415 c -1.02606,0 -1.85209,0.82603 -1.85209,1.85208 v 5.02709 c 0,1.02605 0.82603,1.85208 1.85209,1.85208 h 24.34166 c 1.02606,0 1.85209,-0.82603 1.85209,-1.85208 v -5.02709 c 0,-1.02605 -0.82603,-1.85208 -1.85209,-1.85208 z" /></clipPath><radialGradient
       inkscape:collect="always"
       xlink:href="#linearGradient978"
       id="radialGradient980"
       cx="327.91531"
       cy="171.44535"
       fx="327.91531"
       fy="171.44535"
       r="24.971065"
       gradientTransform="matrix(1,0,0,0.08157775,-2.7734433e-8,157.45922)"
       gradientUnits="userSpaceOnUse" /></defs><g
     inkscape:label="panels"
     inkscape:groupmode="layer"
     id="layer1"
     transform="translate(2e-6,0.26459)"><rect
       style="fill:#000000;fill-opacity:0.301961;stroke:#000000;stroke-width:0;stroke-linecap:round;stroke-miterlimit:4;stroke-dasharray:none;stroke-opacity:1"
       id="rect852"
       width="158.75"
       height="128.32292"
       x="2.6458333"
       y="2.3812499"
       rx="1.8520833"
       ry="1.8520833" /><rect
       style="opacity:1;fill:#000000;fill-opacity:1;stroke-width:0;stroke-linejoin:round"
       id="rect10894"
       width="287.33749"
       height="14.022919"
       x="-2e-06"
       y="175.94792" /><path
       style="fill:#000000;fill-opacity:1;stroke-width:0;stroke-linejoin:round"
       id="rect7218"
       width="361.42084"
       height="85.794502"
       x="0"
       y="230.45207"
       clip-path="url(#clipPath21662)"
       sodipodi:type="rect"
       transform="translate(-2e-6,-0.26457214)"
       inkscape:path-effect="#path-effect21690"
       d="m 0,230.45207 h 361.42084 v 85.7945 H 0 Z" /><path
       style="fill:#000000;fill-opacity:1;stroke-width:0;stroke-linejoin:round"
       id="rect2158"
       width="287.33749"
       height="40.216663"
       x="0"
       y="190.23541"
       clip-path="url(#clipath_lpe_path-effect2369-2)"
       inkscape:path-effect="#path-effect2369-2"
       d="m 0,190.23541 h 287.33749 v 40.21667 H 0 Z"
       sodipodi:type="rect"
       transform="translate(-2e-6,-0.26457214)" /><path
       style="fill:#000000;stroke-width:0;stroke-linejoin:round"
       id="rect804"
       width="74.083336"
       height="54.239582"
       x="287.33749"
       y="176.21249"
       clip-path="url(#clipath_lpe_path-effect1039-9)"
       inkscape:path-effect="#path-effect1039-9"
       d="m 287.33749,176.21249 h 74.08334 v 54.23959 h -74.08334 z"
       sodipodi:type="rect"
       transform="translate(-2e-6,-0.26457214)" /><path
       style="display:inline;fill:#000000;fill-opacity:1;stroke-width:2.94684;stroke-linecap:round;stroke-linejoin:round"
       id="path8315"
       width="20.637499"
       height="19.843754"
       x="146.57916"
       y="203.2"
       sodipodi:type="rect"
       mask="none"
       clip-path="url(#clipath_lpe_path-effect2077-2)"
       d="m 146.57916,203.2 h 20.6375 v 19.84375 h -20.6375 z"
       inkscape:path-effect="#path-effect2077-2"
       transform="translate(-2e-6,-0.26457214)" /><path
       style="display:inline;fill:#000000;fill-opacity:0.999569;stroke-width:2.18541;stroke-linecap:round;stroke-linejoin:round"
       id="rect3779-6"
       width="207.00002"
       height="14"
       x="279.75"
       y="165.5"
       mask="none"
       clip-path="url(#clipath_lpe_path-effect8168-4-5)"
       sodipodi:type="rect"
       rx="6.9999995"
       inkscape:path-effect="#path-effect8168-4-5"
       ry="6.9999995"
       transform="matrix(0.26458333,0,0,0.26458333,104.24583,175.68335)"
       d="m 286.75,165.5 h 193.00002 c 3.878,0 7,3.122 7,7 v 0 c 0,3.878 -3.122,7 -7,7 H 286.75 c -3.878,0 -7,-3.122 -7,-7 v 0 c 0,-3.878 3.122,-7 7,-7 z" /><path
       id="rect7456"
       clip-path="none"
       style="display:inline;fill:#000000;fill-opacity:0.999569;stroke-width:1.05833;stroke-linecap:round;stroke-linejoin:round"
       d="m 167.21667,220.66252 v 1.85208 h 1.85209 a 1.8520833,1.8520833 0 0 1 -1.85209,-1.85208 z" /><rect
       style="display:inline;fill:#000000;fill-opacity:1;stroke:none;stroke-width:1.05833;stroke-linecap:round;stroke-linejoin:round"
       id="rect2527"
       width="11.90625"
       height="0.26458272"
       x="167.21667"
       y="222.51459" /><path
       id="path7970"
       clip-path="none"
       style="display:inline;fill:#000000;fill-opacity:0.999569;stroke-width:1.05833;stroke-linecap:round;stroke-linejoin:round"
       d="m 167.21667,202.93543 v 1.85209 a 1.8520833,1.8520833 0 0 1 1.85209,-1.85209 z" /><path
       id="path7981"
       clip-path="none"
       style="display:inline;fill:#000000;fill-opacity:0.999569;stroke-width:1.05833;stroke-linecap:round;stroke-linejoin:round"
       d="m 229.39376,202.93543 a 1.8520833,1.8520833 0 0 1 1.85208,1.85209 v -1.85209 z" /><path
       id="path7992"
       clip-path="none"
       style="display:inline;fill:#000000;fill-opacity:0.999569;stroke-width:1.05833;stroke-linecap:round;stroke-linejoin:round"
       d="m 231.24584,217.61981 a 1.8520833,1.8520833 0 0 1 -1.85208,1.85208 h 1.85208 z" /><rect
       style="opacity:1;fill:#000000;fill-opacity:1;stroke-width:0;stroke-linejoin:round"
       id="rect21874"
       width="361.42084"
       height="0.5291667"
       x="-2e-06"
       y="315.98199" /><rect
       style="opacity:1;fill:#000000;fill-opacity:1;stroke-width:0;stroke-linejoin:round"
       id="rect22664"
       width="361.42084"
       height="0.5291667"
       x="-2e-06"
       y="175.41876" /><text
       xml:space="preserve"
       style="font-size:4.23333px;line-height:1.25;font-family:osifont;-inkscape-font-specification:osifont;fill:#ffffff;fill-opacity:1;stroke-width:0.264583"
       x="297.25937"
       y="184.94377"
       id="text344"><tspan
         sodipodi:role="line"
         id="tspan342"
         style="font-size:4.23333px;fill:#ffffff;fill-opacity:1;stroke-width:0.264583"
         x="297.25937"
         y="184.94377"> Export Replay</tspan></text><text
       xml:space="preserve"
       style="font-size:4.23333px;line-height:1.25;font-family:osifont;-inkscape-font-specification:osifont;fill:#ffffff;fill-opacity:1;stroke-width:0.264583"
       x="297.25937"
       y="193.41043"
       id="text1628"><tspan
         sodipodi:role="line"
         id="tspan1626"
         style="font-size:4.23333px;fill:#ffffff;fill-opacity:1;stroke-width:0.264583"
         x="297.25937"
         y="193.41043"> Add to Favorites</tspan></text></g><g
     inkscape:groupmode="layer"
     id="layer3"
     inkscape:label="numbers"
     sodipodi:insensitive="true"><text
       xml:space="preserve"
       style="font-size:11.9062px;line-height:1.25;font-family:osifont;-inkscape-font-specification:osifont;display:inline;fill:#ffffff;fill-opacity:1;stroke-width:0.264583"
       x="7.8274293"
       y="47.17215"
       id="text6964-0"><tspan
         sodipodi:role="line"
         id="tspan6962-44"
         style="font-size:11.9062px;fill:#ffffff;fill-opacity:1;stroke-width:0.264583"
         x="7.8274293"
         y="47.17215">300</tspan></text><text
       xml:space="preserve"
       style="font-size:11.9062px;line-height:1.25;font-family:osifont;-inkscape-font-specification:osifont;display:inline;fill:#00ff8b;fill-opacity:1;stroke-width:0.264583"
       x="8.8446589"
       y="72.410789"
       id="text6964-8-4"><tspan
         sodipodi:role="line"
         id="tspan6962-4-4"
         style="font-size:11.9062px;fill:#00ff8b;fill-opacity:1;stroke-width:0.264583"
         x="8.8446589"
         y="72.410789">100</tspan></text><text
       xml:space="preserve"
       style="font-size:11.9062px;line-height:1.25;font-family:osifont;-inkscape-font-specification:osifont;display:inline;fill:#6cc1ff;fill-opacity:1;stroke-width:0.264583"
       x="13.91885"
       y="97.943077"
       id="text6964-8-8-7"><tspan
         sodipodi:role="line"
         id="tspan6962-4-1-6"
         style="font-size:11.9062px;fill:#6cc1ff;fill-opacity:1;stroke-width:0.264583"
         x="13.91885"
         y="97.943077">50</tspan></text><text
       xml:space="preserve"
       style="font-size:11.9062px;line-height:1.25;font-family:osifont;-inkscape-font-specification:osifont;display:inline;fill:#ff6496;fill-opacity:1;stroke-width:0.264583"
       x="105.38603"
       y="97.943077"
       id="text852"><tspan
         sodipodi:role="line"
         id="tspan850"
         style="font-size:11.9062px;fill:#ff6496;fill-opacity:1;stroke-width:0.264583"
         x="105.38603"
         y="97.943077">0</tspan></text></g></svg>
