<?xml version="1.0" encoding="UTF-8" standalone="no"?>
<svg
   version="1.1"
   width="77"
   height="91"
   viewBox="0 0 77 91"
   id="svg4"
   sodipodi:docname="random.svg"
   inkscape:version="1.2.2 (b0a8486541, 2022-12-01)"
   xmlns:inkscape="http://www.inkscape.org/namespaces/inkscape"
   xmlns:sodipodi="http://sodipodi.sourceforge.net/DTD/sodipodi-0.dtd"
   xmlns="http://www.w3.org/2000/svg"
   xmlns:svg="http://www.w3.org/2000/svg">
  <defs
     id="defs8" />
  <sodipodi:namedview
     id="namedview6"
     pagecolor="#505050"
     bordercolor="#eeeeee"
     borderopacity="1"
     inkscape:pageshadow="0"
     inkscape:pageopacity="0"
     inkscape:pagecheckerboard="0"
     showgrid="false"
     inkscape:zoom="7.4895834"
     inkscape:cx="69.897079"
     inkscape:cy="67.5605"
     inkscape:window-width="1920"
     inkscape:window-height="1007"
     inkscape:window-x="0"
     inkscape:window-y="0"
     inkscape:window-maximized="1"
     inkscape:current-layer="svg4"
     inkscape:snap-bbox="true"
     inkscape:bbox-paths="true"
     inkscape:snap-page="true"
     fit-margin-top="0"
     fit-margin-left="0"
     fit-margin-right="0"
     fit-margin-bottom="0"
     inkscape:snap-bbox-midpoints="true"
     inkscape:object-nodes="false"
     inkscape:bbox-nodes="true"
     inkscape:showpageshadow="0"
     inkscape:deskcolor="#505050" />
  <g
     id="g885"
     transform="scale(1,1.0111111)"
     style="stroke-width:0.99449">
    <g
       id="g889"
       style="stroke-width:0.99449">
      <rect
         style="fill:#000000;fill-opacity:1;stroke-width:2.63109;stroke-linecap:round;stroke-linejoin:round"
         id="rect3047"
         width="77"
         height="90"
         x="0"
         y="0" />
    </g>
  </g>
  <path
     d="m 18.640458,7.3 h 39.719084 a 5.6741549,5.6741549 0 0 1 5.674155,5.674155 v 39.719084 a 5.6741549,5.6741549 0 0 1 -5.674155,5.674155 H 18.640458 A 5.6741549,5.6741549 0 0 1 12.966303,52.693239 V 12.974155 A 5.6741549,5.6741549 0 0 1 18.640458,7.3 m 5.674155,5.674155 a 5.6741549,5.6741549 0 0 0 -5.674155,5.674155 5.6741549,5.6741549 0 0 0 5.674155,5.674155 5.6741549,5.6741549 0 0 0 5.674155,-5.674155 5.6741549,5.6741549 0 0 0 -5.674155,-5.674155 m 28.370774,28.370774 a 5.6741549,5.6741549 0 0 0 -5.674155,5.674155 5.6741549,5.6741549 0 0 0 5.674155,5.674155 5.6741549,5.6741549 0 0 0 5.674155,-5.674155 5.6741549,5.6741549 0 0 0 -5.674155,-5.674155 m 0,-14.185387 a 5.6741549,5.6741549 0 0 0 -5.674155,5.674155 5.6741549,5.6741549 0 0 0 5.674155,5.674155 5.6741549,5.6741549 0 0 0 5.674155,-5.674155 5.6741549,5.6741549 0 0 0 -5.674155,-5.674155 m 0,-14.185387 a 5.6741549,5.6741549 0 0 0 -5.674155,5.674155 5.6741549,5.6741549 0 0 0 5.674155,5.674155 5.6741549,5.6741549 0 0 0 5.674155,-5.674155 5.6741549,5.6741549 0 0 0 -5.674155,-5.674155 M 24.314613,27.159542 a 5.6741549,5.6741549 0 0 0 -5.674155,5.674155 5.6741549,5.6741549 0 0 0 5.674155,5.674155 5.6741549,5.6741549 0 0 0 5.674155,-5.674155 5.6741549,5.6741549 0 0 0 -5.674155,-5.674155 m 0,14.185387 a 5.6741549,5.6741549 0 0 0 -5.674155,5.674155 5.6741549,5.6741549 0 0 0 5.674155,5.674155 5.6741549,5.6741549 0 0 0 5.674155,-5.674155 5.6741549,5.6741549 0 0 0 -5.674155,-5.674155 z"
     id="path2"
     style="fill:#ffffff;fill-opacity:1;stroke-width:2.83708" />
  <g
     id="g831"
     transform="translate(0.33804766,-3.5968216)">
    <g
       id="g830">
      <g
         id="g15193"
         transform="translate(-0.61643983)">
        <text
           xml:space="preserve"
           style="font-size:20.3624px;line-height:1.25;font-family:osifont;-inkscape-font-specification:osifont;stroke-width:0.50906"
           x="-3.1020844"
           y="-0.93699408"
           id="text6689"><tspan
             sodipodi:role="line"
             x="-3.1020844"
             y="-0.93699408"
             style="stroke-width:0.50906"
             id="tspan11469">modified: resized, recolored, added background, text</tspan></text>
      </g>
    </g>
  </g>
  <text
     xml:space="preserve"
     style="font-size:30.1884px;line-height:1.25;font-family:osifont;-inkscape-font-specification:osifont;fill:#ffffff;fill-opacity:1;stroke-width:0.754711"
     x="38.5"
     y="85.331444"
     id="text5896-6-3-3-3"><tspan
       sodipodi:role="line"
       id="tspan5894-7-6-6-6"
       x="38.5"
       y="85.331444"
       style="text-align:center;text-anchor:middle;stroke-width:0.754711">RND</tspan></text>
</svg>
