<?xml version="1.0" encoding="UTF-8" standalone="no"?>
<svg
   version="1.1"
   width="64"
   height="64"
   viewBox="0 0 64 64"
   id="svg4"
   sodipodi:docname="selection-mod-hardrock.svg"
   inkscape:version="1.1.1 (3bf5ae0d25, 2021-09-20, custom)"
   xmlns:inkscape="http://www.inkscape.org/namespaces/inkscape"
   xmlns:sodipodi="http://sodipodi.sourceforge.net/DTD/sodipodi-0.dtd"
   xmlns="http://www.w3.org/2000/svg"
   xmlns:svg="http://www.w3.org/2000/svg">
  <defs
     id="defs8">
    <filter
       style="color-interpolation-filters:sRGB;"
       inkscape:label="Blur"
       id="filter9465"
       x="-0.15"
       y="-0.099999998"
       width="1.3"
       height="1.2">
      <feGaussianBlur
         stdDeviation="2 2"
         result="blur"
         id="feGaussianBlur9463" />
    </filter>
  </defs>
  <sodipodi:namedview
     id="namedview6"
     pagecolor="#505050"
     bordercolor="#eeeeee"
     borderopacity="1"
     inkscape:pageshadow="0"
     inkscape:pageopacity="0"
     inkscape:pagecheckerboard="0"
     showgrid="false"
     inkscape:zoom="1.8723958"
     inkscape:cx="171.97219"
     inkscape:cy="56.077887"
     inkscape:window-width="1920"
     inkscape:window-height="1007"
     inkscape:window-x="0"
     inkscape:window-y="0"
     inkscape:window-maximized="1"
     inkscape:current-layer="g15193"
     inkscape:snap-bbox="true"
     inkscape:bbox-paths="true"
     inkscape:snap-page="true" />
  <path
     d="M 48.000001,18.666667 V 8.0000001 H 32 V 36.133334 C 30.426666,35.226667 28.613335,34.666667 26.666667,34.666667 20.773333,34.666667 16,39.44 16,45.333334 c 0,5.893333 4.773333,10.666667 10.666667,10.666667 5.893333,0 10.666668,-4.773334 10.666668,-10.666667 v -16 h 10.666666 v -8 H 37.333335 v -2.666667 z"
     id="path9461"
     style="stroke-width:0.999999;fill:#ffffff;fill-opacity:1;filter:url(#filter9465)" />
  <path
     d="M 48.000001,18.666667 V 8.0000001 H 32 V 36.133334 C 30.426666,35.226667 28.613335,34.666667 26.666667,34.666667 20.773333,34.666667 16,39.44 16,45.333334 c 0,5.893333 4.773333,10.666667 10.666667,10.666667 5.893333,0 10.666668,-4.773334 10.666668,-10.666667 v -16 h 10.666666 v -8 H 37.333335 v -2.666667 z"
     id="path2"
     style="stroke-width:0.999999;fill:#ffffff;fill-opacity:1" />
  <g
     id="g830">
    <g
       id="g15193"
       transform="translate(-0.61643983)">
      <text
         xml:space="preserve"
         style="font-size:20.3624px;line-height:1.25;font-family:osifont;-inkscape-font-specification:osifont;stroke-width:0.50906"
         x="-3.1020844"
         y="-0.93699408"
         id="text6689"><tspan
           sodipodi:role="line"
           x="-3.1020844"
           y="-0.93699408"
           style="stroke-width:0.50906"
           id="tspan11469">MODDED: resized, recolored, glow</tspan></text>
    </g>
  </g>
</svg>
