<?xml version="1.0" encoding="UTF-8" standalone="no"?>
<svg
   version="1.1"
   width="62.933331"
   height="62.933331"
   viewBox="0 0 62.93333 62.93333"
   id="svg4"
   sodipodi:docname="selection-mod-target.svg"
   inkscape:version="1.1.1 (3bf5ae0d25, 2021-09-20, custom)"
   xmlns:inkscape="http://www.inkscape.org/namespaces/inkscape"
   xmlns:sodipodi="http://sodipodi.sourceforge.net/DTD/sodipodi-0.dtd"
   xmlns="http://www.w3.org/2000/svg"
   xmlns:svg="http://www.w3.org/2000/svg">
  <defs
     id="defs8">
    <filter
       style="color-interpolation-filters:sRGB"
       inkscape:label="Blur"
       id="filter829"
       x="-0.089999999"
       y="-0.089999999"
       width="1.18"
       height="1.18">
      <feGaussianBlur
         stdDeviation="2 2"
         result="blur"
         id="feGaussianBlur827" />
    </filter>
  </defs>
  <sodipodi:namedview
     id="namedview6"
     pagecolor="#505050"
     bordercolor="#eeeeee"
     borderopacity="1"
     inkscape:pageshadow="0"
     inkscape:pageopacity="0"
     inkscape:pagecheckerboard="0"
     showgrid="false"
     inkscape:snap-bbox="true"
     inkscape:bbox-paths="true"
     inkscape:snap-page="true"
     fit-margin-top="0"
     fit-margin-left="0"
     fit-margin-right="0"
     fit-margin-bottom="0"
     inkscape:zoom="1.8723959"
     inkscape:cx="84.917939"
     inkscape:cy="55.009734"
     inkscape:window-width="1920"
     inkscape:window-height="1007"
     inkscape:window-x="0"
     inkscape:window-y="0"
     inkscape:window-maximized="1"
     inkscape:current-layer="g830"
     inkscape:bbox-nodes="true" />
  <path
     d="M 31.466667,4.7999999 A 26.666667,26.666667 0 0 0 4.7999999,31.466667 26.666667,26.666667 0 0 0 31.466667,58.133334 26.666667,26.666667 0 0 0 58.133334,31.466667 c 0,-3.093333 -0.56,-6.16 -1.626666,-9.04 l -4.266667,4.266667 c 0.373333,1.573333 0.56,3.173333 0.56,4.773333 A 21.333334,21.333334 0 0 1 31.466667,52.800001 21.333334,21.333334 0 0 1 10.133334,31.466667 21.333334,21.333334 0 0 1 31.466667,10.133334 c 1.6,0 3.2,0.186666 4.773334,0.56 l 4.293333,-4.2933341 c -2.906667,-1.04 -5.973333,-1.6 -9.066667,-1.6 m 18.666667,0 -10.666667,10.6666671 v 4 l -6.8,6.8 c -0.4,-0.133333 -0.8,-0.133333 -1.2,-0.133333 a 5.3333334,5.3333334 0 0 0 -5.333333,5.333333 5.3333334,5.3333334 0 0 0 5.333333,5.333334 5.3333334,5.3333334 0 0 0 5.333334,-5.333334 c 0,-0.4 0,-0.8 -0.133334,-1.2 l 6.800001,-6.8 h 4 L 58.133334,12.800001 h -8 V 4.7999999 M 31.466667,15.466667 a 16,16 0 0 0 -16,16 16,16 0 0 0 16,16.000001 16,16 0 0 0 16.000001,-16.000001 H 42.133334 A 10.666667,10.666667 0 0 1 31.466667,42.133334 10.666667,10.666667 0 0 1 20.800001,31.466667 10.666667,10.666667 0 0 1 31.466667,20.800001 Z"
     id="path825"
     style="fill:#ffffff;fill-opacity:1;stroke-width:1;filter:url(#filter829)" />
  <path
     d="M 31.466667,4.7999999 A 26.666667,26.666667 0 0 0 4.7999999,31.466667 26.666667,26.666667 0 0 0 31.466667,58.133334 26.666667,26.666667 0 0 0 58.133334,31.466667 c 0,-3.093333 -0.56,-6.16 -1.626666,-9.04 l -4.266667,4.266667 c 0.373333,1.573333 0.56,3.173333 0.56,4.773333 A 21.333334,21.333334 0 0 1 31.466667,52.800001 21.333334,21.333334 0 0 1 10.133334,31.466667 21.333334,21.333334 0 0 1 31.466667,10.133334 c 1.6,0 3.2,0.186666 4.773334,0.56 l 4.293333,-4.2933341 c -2.906667,-1.04 -5.973333,-1.6 -9.066667,-1.6 m 18.666667,0 -10.666667,10.6666671 v 4 l -6.8,6.8 c -0.4,-0.133333 -0.8,-0.133333 -1.2,-0.133333 a 5.3333334,5.3333334 0 0 0 -5.333333,5.333333 5.3333334,5.3333334 0 0 0 5.333333,5.333334 5.3333334,5.3333334 0 0 0 5.333334,-5.333334 c 0,-0.4 0,-0.8 -0.133334,-1.2 l 6.800001,-6.8 h 4 L 58.133334,12.800001 h -8 V 4.7999999 M 31.466667,15.466667 a 16,16 0 0 0 -16,16 16,16 0 0 0 16,16.000001 16,16 0 0 0 16.000001,-16.000001 H 42.133334 A 10.666667,10.666667 0 0 1 31.466667,42.133334 10.666667,10.666667 0 0 1 20.800001,31.466667 10.666667,10.666667 0 0 1 31.466667,20.800001 Z"
     id="path2"
     style="fill:#ffffff;fill-opacity:1;stroke-width:1" />
  <g
     id="g830"
     transform="translate(-0.19528581,-4.1301551)">
    <g
       id="g15193"
       transform="translate(-0.08310629,0.53333354)">
      <text
         xml:space="preserve"
         style="font-size:20.3624px;line-height:1.25;font-family:osifont;-inkscape-font-specification:osifont;stroke-width:0.50906"
         x="-3.1020844"
         y="-0.93699408"
         id="text6689"><tspan
           sodipodi:role="line"
           x="-3.1020844"
           y="-0.93699408"
           style="stroke-width:0.50906"
           id="tspan11469">modified: resized, recolored, glow</tspan></text>
    </g>
  </g>
</svg>
