<?xml version="1.0" encoding="UTF-8" standalone="no"?>
<svg
   version="1.1"
   width="64"
   height="64"
   viewBox="0 0 64 64"
   id="svg4"
   sodipodi:docname="selection-mod-hidden.svg"
   inkscape:version="1.1.1 (3bf5ae0d25, 2021-09-20, custom)"
   xmlns:inkscape="http://www.inkscape.org/namespaces/inkscape"
   xmlns:sodipodi="http://sodipodi.sourceforge.net/DTD/sodipodi-0.dtd"
   xmlns="http://www.w3.org/2000/svg"
   xmlns:svg="http://www.w3.org/2000/svg">
  <defs
     id="defs8">
    <filter
       style="color-interpolation-filters:sRGB;"
       inkscape:label="Blur"
       id="filter4459"
       x="-0.09"
       y="-0.09"
       width="1.18"
       height="1.18">
      <feGaussianBlur
         stdDeviation="2 2"
         result="blur"
         id="feGaussianBlur4457" />
    </filter>
  </defs>
  <sodipodi:namedview
     id="namedview6"
     pagecolor="#505050"
     bordercolor="#eeeeee"
     borderopacity="1"
     inkscape:pageshadow="0"
     inkscape:pageopacity="0"
     inkscape:pagecheckerboard="0"
     showgrid="false"
     inkscape:snap-bbox="true"
     inkscape:bbox-paths="true"
     inkscape:snap-page="true"
     inkscape:zoom="1.8723958"
     inkscape:cx="191.19889"
     inkscape:cy="54.475662"
     inkscape:window-width="1920"
     inkscape:window-height="1007"
     inkscape:window-x="0"
     inkscape:window-y="0"
     inkscape:window-maximized="1"
     inkscape:current-layer="g830" />
  <path
     d="m 40.186667,30 -2.4,2.453334 c -1.92,1.92 -3.12,3.546666 -3.12,7.546666 h -5.333333 v -1.333333 c 0,-2.96 1.2,-5.626667 3.12,-7.546667 L 35.76,27.76 c 0.986667,-0.96 1.573334,-2.293333 1.573334,-3.76 0,-2.96 -2.4,-5.333333 -5.333334,-5.333333 A 5.3333334,5.3333334 0 0 0 26.666667,24 H 21.333334 A 10.666667,10.666667 0 0 1 32,13.333334 10.666667,10.666667 0 0 1 42.666667,24 c 0,2.346667 -0.96,4.453334 -2.48,6 m -5.52,20.666667 h -5.333333 v -5.333333 h 5.333333 M 32,5.3333334 A 26.666667,26.666667 0 0 0 5.3333334,32 26.666667,26.666667 0 0 0 32,58.666667 26.666667,26.666667 0 0 0 58.666667,32 c 0,-14.746666 -12,-26.6666666 -26.666667,-26.6666666 z"
     id="path4455"
     style="stroke-width:0.999999;fill:#ffffff;fill-opacity:1;filter:url(#filter4459)" />
  <path
     d="m 40.186667,30 -2.4,2.453334 c -1.92,1.92 -3.12,3.546666 -3.12,7.546666 h -5.333333 v -1.333333 c 0,-2.96 1.2,-5.626667 3.12,-7.546667 L 35.76,27.76 c 0.986667,-0.96 1.573334,-2.293333 1.573334,-3.76 0,-2.96 -2.4,-5.333333 -5.333334,-5.333333 A 5.3333334,5.3333334 0 0 0 26.666667,24 H 21.333334 A 10.666667,10.666667 0 0 1 32,13.333334 10.666667,10.666667 0 0 1 42.666667,24 c 0,2.346667 -0.96,4.453334 -2.48,6 m -5.52,20.666667 h -5.333333 v -5.333333 h 5.333333 M 32,5.3333334 A 26.666667,26.666667 0 0 0 5.3333334,32 26.666667,26.666667 0 0 0 32,58.666667 26.666667,26.666667 0 0 0 58.666667,32 c 0,-14.746666 -12,-26.6666666 -26.666667,-26.6666666 z"
     id="path2"
     style="stroke-width:0.999999;fill:#ffffff;fill-opacity:1" />
  <g
     id="g830">
    <g
       id="g15193"
       transform="translate(-0.61643983)">
      <text
         xml:space="preserve"
         style="font-size:20.3624px;line-height:1.25;font-family:osifont;-inkscape-font-specification:osifont;stroke-width:0.50906"
         x="-3.1020844"
         y="-0.93699408"
         id="text6689"><tspan
           sodipodi:role="line"
           x="-3.1020844"
           y="-0.93699408"
           style="stroke-width:0.50906"
           id="tspan11469">modified: resized, recolored, glow</tspan></text>
    </g>
  </g>
</svg>
