<?xml version="1.0" encoding="UTF-8" standalone="no"?>
<svg
   version="1.1"
   width="62.933331"
   height="62.933331"
   viewBox="0 0 62.933331 62.933331"
   id="svg4"
   sodipodi:docname="selection-mod-nofail.svg"
   inkscape:version="1.1.1 (3bf5ae0d25, 2021-09-20, custom)"
   xmlns:inkscape="http://www.inkscape.org/namespaces/inkscape"
   xmlns:sodipodi="http://sodipodi.sourceforge.net/DTD/sodipodi-0.dtd"
   xmlns="http://www.w3.org/2000/svg"
   xmlns:svg="http://www.w3.org/2000/svg">
  <defs
     id="defs8">
    <filter
       style="color-interpolation-filters:sRGB"
       inkscape:label="Blur"
       id="filter5243"
       x="-0.089999999"
       y="-0.089999999"
       width="1.18"
       height="1.18">
      <feGaussianBlur
         stdDeviation="2 2"
         result="blur"
         id="feGaussianBlur5241" />
    </filter>
  </defs>
  <sodipodi:namedview
     id="namedview6"
     pagecolor="#505050"
     bordercolor="#eeeeee"
     borderopacity="1"
     inkscape:pageshadow="0"
     inkscape:pageopacity="0"
     inkscape:pagecheckerboard="0"
     showgrid="false"
     inkscape:snap-bbox="true"
     inkscape:bbox-paths="true"
     inkscape:snap-page="true"
     inkscape:zoom="3.7447916"
     inkscape:cx="85.452018"
     inkscape:cy="9.613352"
     inkscape:window-width="1920"
     inkscape:window-height="1007"
     inkscape:window-x="0"
     inkscape:window-y="0"
     inkscape:window-maximized="1"
     inkscape:current-layer="g15193"
     inkscape:bbox-nodes="true" />
  <path
     d="M 26.133334,10.133334 V 20.800001 H 36.800001 V 10.133334 H 26.133334 m 16,0 V 20.800001 H 52.800001 V 10.133334 H 42.133334 m 0,16 V 36.800001 H 52.800001 V 26.133334 H 42.133334 m 0,16 V 52.800001 H 52.800001 V 42.133334 H 42.133334 M 36.800001,52.800001 V 42.133334 H 26.133334 v 10.666667 h 10.666667 m -16,0 V 42.133334 H 10.133334 v 10.666667 h 10.666667 m 0,-16 V 26.133334 H 10.133334 v 10.666667 h 10.666667 m 0,-16 V 10.133334 H 10.133334 v 10.666667 h 10.666667 m 5.333333,16 H 36.800001 V 26.133334 H 26.133334 v 10.666667 m -16,-32.0000008 h 42.666667 a 5.3333334,5.3333334 0 0 1 5.333333,5.3333338 v 42.666667 a 5.3333334,5.3333334 0 0 1 -5.333333,5.333333 H 10.133334 c -2.8800004,0 -5.3333338,-2.4 -5.3333338,-5.333333 V 10.133334 A 5.3333334,5.3333334 0 0 1 10.133334,4.8000002 Z"
     id="path5239"
     style="fill:#ffffff;fill-opacity:1;stroke-width:0.999999;filter:url(#filter5243)" />
  <path
     d="M 26.133334,10.133334 V 20.800001 H 36.800001 V 10.133334 H 26.133334 m 16,0 V 20.800001 H 52.800001 V 10.133334 H 42.133334 m 0,16 V 36.800001 H 52.800001 V 26.133334 H 42.133334 m 0,16 V 52.800001 H 52.800001 V 42.133334 H 42.133334 M 36.800001,52.800001 V 42.133334 H 26.133334 v 10.666667 h 10.666667 m -16,0 V 42.133334 H 10.133334 v 10.666667 h 10.666667 m 0,-16 V 26.133334 H 10.133334 v 10.666667 h 10.666667 m 0,-16 V 10.133334 H 10.133334 v 10.666667 h 10.666667 m 5.333333,16 H 36.800001 V 26.133334 H 26.133334 v 10.666667 m -16,-32.0000008 h 42.666667 a 5.3333334,5.3333334 0 0 1 5.333333,5.3333338 v 42.666667 a 5.3333334,5.3333334 0 0 1 -5.333333,5.333333 H 10.133334 c -2.8800004,0 -5.3333338,-2.4 -5.3333338,-5.333333 V 10.133334 A 5.3333334,5.3333334 0 0 1 10.133334,4.8000002 Z"
     id="path2"
     style="fill:#ffffff;fill-opacity:1;stroke-width:0.999999" />
  <g
     id="g830"
     transform="translate(-0.53333319,-0.53333319)">
    <g
       id="g15193"
       transform="translate(-0.61643983)">
      <text
         xml:space="preserve"
         style="font-size:20.3624px;line-height:1.25;font-family:osifont;-inkscape-font-specification:osifont;stroke-width:0.50906"
         x="-2.2307031"
         y="-4.0004821"
         id="text6689"><tspan
           sodipodi:role="line"
           x="-2.2307031"
           y="-4.0004821"
           style="stroke-width:0.50906"
           id="tspan11469">modified: resized, recolored, glow</tspan></text>
    </g>
  </g>
</svg>
