<?xml version="1.0" encoding="UTF-8" standalone="no"?>
<svg
   version="1.1"
   width="64"
   height="64"
   viewBox="0 0 64 64"
   id="svg4"
   sodipodi:docname="selection-mod-doubletime.svg"
   inkscape:version="1.1.1 (3bf5ae0d25, 2021-09-20, custom)"
   xmlns:inkscape="http://www.inkscape.org/namespaces/inkscape"
   xmlns:sodipodi="http://sodipodi.sourceforge.net/DTD/sodipodi-0.dtd"
   xmlns="http://www.w3.org/2000/svg"
   xmlns:svg="http://www.w3.org/2000/svg">
  <defs
     id="defs8">
    <filter
       style="color-interpolation-filters:sRGB;"
       inkscape:label="Blur"
       id="filter957"
       x="-0.085714284"
       y="-0.085714286"
       width="1.1714286"
       height="1.1714286">
      <feGaussianBlur
         stdDeviation="2 2"
         result="blur"
         id="feGaussianBlur955" />
    </filter>
  </defs>
  <sodipodi:namedview
     id="namedview6"
     pagecolor="#505050"
     bordercolor="#eeeeee"
     borderopacity="1"
     inkscape:pageshadow="0"
     inkscape:pageopacity="0"
     inkscape:pagecheckerboard="0"
     showgrid="false"
     inkscape:snap-bbox="true"
     inkscape:snap-page="true"
     inkscape:bbox-paths="true"
     inkscape:zoom="1.8723959"
     inkscape:cx="176.77885"
     inkscape:cy="73.168287"
     inkscape:window-width="1920"
     inkscape:window-height="1007"
     inkscape:window-x="0"
     inkscape:window-y="0"
     inkscape:window-maximized="1"
     inkscape:current-layer="svg4" />
  <path
     d="M 36.586667,58.240001 C 35.093334,58.506667 33.573334,58.666667 32,58.666667 17.333334,58.666667 5.333333,46.666667 5.333333,32 5.333333,17.333334 17.333334,5.333334 32,5.333334 c 14.666667,0 26.666667,12 26.666667,26.666666 0,1.573334 -0.16,3.093334 -0.426666,4.586667 -2.24,-1.226667 -4.826667,-1.92 -7.573334,-1.92 -3.36,0 -6.48,1.04 -9.066666,2.826667 l -8.266667,-4.96 V 18.666667 h -4 v 16 L 38.48,40.293334 c -2.373333,2.8 -3.813333,6.373333 -3.813333,10.373333 0,2.746667 0.693333,5.333334 1.92,7.573334 M 48.000001,40 v 8.000001 H 40 v 5.333333 h 8.000001 v 8 h 5.333333 v -8 h 8 v -5.333333 h -8 V 40 Z"
     id="path2-3"
     style="fill:#ffffff;fill-opacity:1;stroke-width:1;filter:url(#filter957)" />
  <path
     d="M 36.586667,58.240001 C 35.093334,58.506667 33.573334,58.666667 32,58.666667 17.333334,58.666667 5.3333334,46.666667 5.3333334,32 5.3333334,17.333334 17.333334,5.3333334 32,5.3333334 46.666667,5.3333334 58.666667,17.333334 58.666667,32 c 0,1.573334 -0.16,3.093334 -0.426666,4.586667 -2.24,-1.226667 -4.826667,-1.92 -7.573334,-1.92 -3.36,0 -6.48,1.04 -9.066666,2.826667 l -8.266667,-4.96 V 18.666667 h -4 v 16 L 38.48,40.293334 c -2.373333,2.8 -3.813333,6.373333 -3.813333,10.373333 0,2.746667 0.693333,5.333334 1.92,7.573334 M 48.000001,40 v 8.000001 H 40 v 5.333333 h 8.000001 v 8 h 5.333333 v -8 h 8 v -5.333333 h -8 V 40 Z"
     id="path2"
     style="fill:#ffffff;fill-opacity:1;stroke-width:1" />
  <g
     id="g1079">
    <g
       id="g9514"
       transform="translate(-0.89483151)">
      <text
         xml:space="preserve"
         style="font-size:20.3624px;line-height:1.25;font-family:osifont;-inkscape-font-specification:osifont;stroke-width:0.50906"
         x="-3.1020844"
         y="-0.93699408"
         id="text6689-3"><tspan
           sodipodi:role="line"
           x="-3.1020844"
           y="-0.93699408"
           style="stroke-width:0.50906"
           id="tspan11469-6">MODDED: resized, recolored, glow</tspan></text>
    </g>
  </g>
</svg>
