<?xml version="1.0" encoding="UTF-8" standalone="no"?>
<svg
   version="1.1"
   width="68.26667"
   height="62.933331"
   viewBox="0 0 68.26667 62.933331"
   id="svg4"
   sodipodi:docname="selection-mod-perfect.svg"
   inkscape:version="1.1.1 (3bf5ae0d25, 2021-09-20, custom)"
   xmlns:inkscape="http://www.inkscape.org/namespaces/inkscape"
   xmlns:sodipodi="http://sodipodi.sourceforge.net/DTD/sodipodi-0.dtd"
   xmlns="http://www.w3.org/2000/svg"
   xmlns:svg="http://www.w3.org/2000/svg">
  <defs
     id="defs8">
    <filter
       style="color-interpolation-filters:sRGB"
       inkscape:label="Blur"
       id="filter7003"
       x="-0.081818181"
       y="-0.089999999"
       width="1.1636364"
       height="1.18">
      <feGaussianBlur
         stdDeviation="2 2"
         result="blur"
         id="feGaussianBlur7001" />
    </filter>
  </defs>
  <sodipodi:namedview
     id="namedview6"
     pagecolor="#505050"
     bordercolor="#eeeeee"
     borderopacity="1"
     inkscape:pageshadow="0"
     inkscape:pageopacity="0"
     inkscape:pagecheckerboard="0"
     showgrid="false"
     inkscape:snap-bbox="true"
     inkscape:bbox-paths="true"
     inkscape:snap-page="true"
     inkscape:zoom="2.6479676"
     inkscape:cx="68.731959"
     inkscape:cy="98.943809"
     inkscape:window-width="1920"
     inkscape:window-height="1007"
     inkscape:window-x="0"
     inkscape:window-y="0"
     inkscape:window-maximized="1"
     inkscape:current-layer="g15193"
     fit-margin-top="0"
     fit-margin-left="0"
     fit-margin-right="0"
     fit-margin-bottom="0"
     inkscape:bbox-nodes="true" />
  <path
     d="m 63.466667,28.8 c 0,-2.96 -2.4,-5.333333 -5.333333,-5.333333 H 41.28 L 43.84,11.28 c 0.05333,-0.266667 0.08,-0.56 0.08,-0.853333 0,-1.0933337 -0.453333,-2.1066671 -1.173333,-2.8266671 L 39.92,4.7999999 22.373333,22.346667 C 21.386667,23.333333 20.8,24.666667 20.8,26.133333 V 52.8 a 5.3333334,5.3333334 0 0 0 5.333333,5.333334 H 50.133334 C 52.346667,58.133334 54.24,56.8 55.04,54.88 l 8.053334,-18.8 c 0.24,-0.613333 0.373333,-1.253333 0.373333,-1.946667 V 28.8 M 4.7999998,58.133334 H 15.466667 V 26.133333 H 4.7999998 Z"
     id="path2"
     style="fill:#ffffff;fill-opacity:1;stroke-width:0.999999" />
  <path
     d="m 63.466667,28.8 c 0,-2.96 -2.4,-5.333333 -5.333333,-5.333333 H 41.28 L 43.84,11.28 c 0.05333,-0.266667 0.08,-0.56 0.08,-0.853333 0,-1.0933337 -0.453333,-2.1066671 -1.173333,-2.8266671 L 39.92,4.7999999 22.373333,22.346667 C 21.386667,23.333333 20.8,24.666667 20.8,26.133333 V 52.8 a 5.3333334,5.3333334 0 0 0 5.333333,5.333334 H 50.133334 C 52.346667,58.133334 54.24,56.8 55.04,54.88 l 8.053334,-18.8 c 0.24,-0.613333 0.373333,-1.253333 0.373333,-1.946667 V 28.8 M 4.7999998,58.133334 H 15.466667 V 26.133333 H 4.7999998 Z"
     id="path6999"
     style="fill:#ffffff;fill-opacity:1;stroke-width:0.999999;filter:url(#filter7003)" />
  <g
     id="g830"
     transform="translate(2.1333331,2.1333332)">
    <g
       id="g15193"
       transform="translate(-0.61643983)">
      <text
         xml:space="preserve"
         style="font-size:20.3624px;line-height:1.25;font-family:osifont;-inkscape-font-specification:osifont;stroke-width:0.50906"
         x="-4.8973699"
         y="-6.6671491"
         id="text6689"><tspan
           sodipodi:role="line"
           x="-4.8973699"
           y="-6.6671491"
           style="stroke-width:0.50906"
           id="tspan11469">modified: resized, recolored, glow</tspan></text>
    </g>
  </g>
</svg>
