<?xml version="1.0" encoding="UTF-8" standalone="no"?>
<svg
   version="1.1"
   width="65.599998"
   height="65.599998"
   viewBox="0 0 65.599998 65.599998"
   id="svg4"
   sodipodi:docname="selection-mod-doubletime.svg"
   inkscape:version="1.1.1 (3bf5ae0d25, 2021-09-20, custom)"
   xmlns:inkscape="http://www.inkscape.org/namespaces/inkscape"
   xmlns:sodipodi="http://sodipodi.sourceforge.net/DTD/sodipodi-0.dtd"
   xmlns="http://www.w3.org/2000/svg"
   xmlns:svg="http://www.w3.org/2000/svg">
  <defs
     id="defs8">
    <filter
       style="color-interpolation-filters:sRGB"
       inkscape:label="Blur"
       id="filter957"
       x="-0.085714284"
       y="-0.085714286"
       width="1.1714286"
       height="1.1714286">
      <feGaussianBlur
         stdDeviation="2 2"
         result="blur"
         id="feGaussianBlur955" />
    </filter>
  </defs>
  <sodipodi:namedview
     id="namedview6"
     pagecolor="#505050"
     bordercolor="#eeeeee"
     borderopacity="1"
     inkscape:pageshadow="0"
     inkscape:pageopacity="0"
     inkscape:pagecheckerboard="0"
     showgrid="false"
     inkscape:snap-bbox="true"
     inkscape:snap-page="true"
     inkscape:bbox-paths="true"
     inkscape:zoom="1.8723959"
     inkscape:cx="176.24478"
     inkscape:cy="72.634212"
     inkscape:window-width="1920"
     inkscape:window-height="1007"
     inkscape:window-x="0"
     inkscape:window-y="0"
     inkscape:window-maximized="1"
     inkscape:current-layer="g9514"
     inkscape:bbox-nodes="true" />
  <path
     d="m 36.053334,57.706667 c -1.493333,0.266666 -3.013333,0.426666 -4.586667,0.426666 -14.666666,0 -26.6666672,-12 -26.6666672,-26.666667 0,-14.666666 12.0000012,-26.6666659 26.6666672,-26.6666659 14.666667,0 26.666667,11.9999999 26.666667,26.6666659 0,1.573334 -0.16,3.093334 -0.426666,4.586667 -2.24,-1.226667 -4.826667,-1.92 -7.573334,-1.92 -3.36,0 -6.48,1.04 -9.066666,2.826667 L 32.800001,32 V 18.133333 h -4 v 16 L 37.946667,39.76 c -2.373333,2.8 -3.813333,6.373333 -3.813333,10.373333 0,2.746667 0.693333,5.333334 1.92,7.573334 M 47.466668,39.466666 v 8.000001 H 39.466667 V 52.8 h 8.000001 v 8 h 5.333333 v -8 h 8 v -5.333333 h -8 v -8.000001 z"
     id="path2-3"
     style="fill:#ffffff;fill-opacity:1;stroke-width:1;filter:url(#filter957)" />
  <path
     d="m 36.053334,57.706667 c -1.493333,0.266666 -3.013333,0.426666 -4.586667,0.426666 -14.666666,0 -26.6666668,-12 -26.6666668,-26.666667 0,-14.666666 12.0000008,-26.6666665 26.6666668,-26.6666665 14.666667,0 26.666667,12.0000005 26.666667,26.6666665 0,1.573334 -0.16,3.093334 -0.426666,4.586667 -2.24,-1.226667 -4.826667,-1.92 -7.573334,-1.92 -3.36,0 -6.48,1.04 -9.066666,2.826667 L 32.800001,32 V 18.133333 h -4 v 16 L 37.946667,39.76 c -2.373333,2.8 -3.813333,6.373333 -3.813333,10.373333 0,2.746667 0.693333,5.333334 1.92,7.573334 M 47.466668,39.466666 v 8.000001 H 39.466667 V 52.8 h 8.000001 v 8 h 5.333333 v -8 h 8 v -5.333333 h -8 v -8.000001 z"
     id="path2"
     style="fill:#ffffff;fill-opacity:1;stroke-width:1" />
  <g
     id="g1079"
     transform="translate(-0.5333332,-0.53333387)">
    <g
       id="g9514"
       transform="translate(-0.89483151)">
      <text
         xml:space="preserve"
         style="font-size:20.3624px;line-height:1.25;font-family:osifont;-inkscape-font-specification:osifont;stroke-width:0.50906"
         x="-1.9523119"
         y="-4.0004816"
         id="text6689-3"><tspan
           sodipodi:role="line"
           x="-1.9523119"
           y="-4.0004816"
           style="stroke-width:0.50906"
           id="tspan11469-6">modified: resized, recolored, glow</tspan></text>
    </g>
  </g>
</svg>
