<?xml version="1.0" encoding="UTF-8" standalone="no"?>
<svg
   version="1.1"
   width="56"
   height="53.333332"
   viewBox="0 0 56 53.333332"
   id="svg4"
   sodipodi:docname="selection-mod-halftime.svg"
   inkscape:version="1.1.1 (3bf5ae0d25, 2021-09-20, custom)"
   xmlns:inkscape="http://www.inkscape.org/namespaces/inkscape"
   xmlns:sodipodi="http://sodipodi.sourceforge.net/DTD/sodipodi-0.dtd"
   xmlns="http://www.w3.org/2000/svg"
   xmlns:svg="http://www.w3.org/2000/svg">
  <defs
     id="defs8">
    <filter
       style="color-interpolation-filters:sRGB"
       inkscape:label="Blur"
       id="filter6895"
       x="-0.085714281"
       y="-0.089999996"
       width="1.1714286"
       height="1.1799999">
      <feGaussianBlur
         stdDeviation="2 2"
         result="blur"
         id="feGaussianBlur6893" />
    </filter>
  </defs>
  <sodipodi:namedview
     id="namedview6"
     pagecolor="#505050"
     bordercolor="#eeeeee"
     borderopacity="1"
     inkscape:pageshadow="0"
     inkscape:pageopacity="0"
     inkscape:pagecheckerboard="0"
     showgrid="false"
     inkscape:snap-bbox="true"
     inkscape:bbox-paths="true"
     inkscape:snap-grids="true"
     inkscape:snap-page="true"
     fit-margin-top="0"
     fit-margin-left="0"
     fit-margin-right="0"
     fit-margin-bottom="0"
     inkscape:zoom="2.6479676"
     inkscape:cx="178.62756"
     inkscape:cy="8.3082588"
     inkscape:window-width="1920"
     inkscape:window-height="1007"
     inkscape:window-x="0"
     inkscape:window-y="0"
     inkscape:window-maximized="1"
     inkscape:current-layer="svg4"
     inkscape:bbox-nodes="true" />
  <path
     d="m 31.253334,52.906668 c -1.493333,0.266666 -3.013333,0.426666 -4.586667,0.426666 C 12.000001,53.333334 0,41.333334 0,26.666667 0,12.000001 12.000001,0 26.666667,0 c 14.666667,0 26.666667,12.000001 26.666667,26.666667 0,1.573334 -0.16,3.093334 -0.426666,4.586667 -2.24,-1.226667 -4.826667,-1.92 -7.573334,-1.92 -3.36,0 -6.48,1.04 -9.066666,2.826667 l -8.266667,-4.96 V 13.333334 h -4 v 16 l 9.146666,5.626667 c -2.373333,2.8 -3.813333,6.373333 -3.813333,10.373333 0,2.746667 0.693333,5.333334 1.92,7.573334 m 3.413333,-10.24 v 5.333333 h 21.333334 v -5.333333 z"
     id="path2"
     style="fill:#ffffff;fill-opacity:1;stroke-width:0.999999" />
  <g
     id="g830"
     transform="translate(-0.53333363,-0.53333355)">
    <g
       id="g15193"
       transform="translate(-0.61643983)">
      <text
         xml:space="preserve"
         style="font-size:20.3624px;line-height:1.25;font-family:osifont;-inkscape-font-specification:osifont;stroke-width:0.50906"
         x="-2.2307031"
         y="-4.0004821"
         id="text6689"><tspan
           sodipodi:role="line"
           x="-2.2307031"
           y="-4.0004821"
           style="stroke-width:0.50906"
           id="tspan11469">modified: resized, recolored</tspan></text>
    </g>
  </g>
</svg>
