<?xml version="1.0" encoding="UTF-8" standalone="no"?>
<svg
   version="1.1"
   width="58.666668"
   height="53.333332"
   viewBox="0 0 58.666668 53.333332"
   id="svg4"
   sodipodi:docname="selection-mod-cinema.svg"
   inkscape:version="1.1.1 (3bf5ae0d25, 2021-09-20, custom)"
   xmlns:inkscape="http://www.inkscape.org/namespaces/inkscape"
   xmlns:sodipodi="http://sodipodi.sourceforge.net/DTD/sodipodi-0.dtd"
   xmlns="http://www.w3.org/2000/svg"
   xmlns:svg="http://www.w3.org/2000/svg">
  <defs
     id="defs8">
    <filter
       style="color-interpolation-filters:sRGB"
       inkscape:label="Blur"
       id="filter1043"
       x="-0.081818178"
       y="-0.089999996"
       width="1.1636364"
       height="1.1799999">
      <feGaussianBlur
         stdDeviation="2 2"
         result="blur"
         id="feGaussianBlur1041" />
    </filter>
  </defs>
  <sodipodi:namedview
     id="namedview6"
     pagecolor="#505050"
     bordercolor="#eeeeee"
     borderopacity="1"
     inkscape:pageshadow="0"
     inkscape:pageopacity="0"
     inkscape:pagecheckerboard="0"
     showgrid="false"
     inkscape:zoom="2.6479676"
     inkscape:cx="210.35001"
     inkscape:cy="20.770647"
     inkscape:window-width="1920"
     inkscape:window-height="1007"
     inkscape:window-x="0"
     inkscape:window-y="0"
     inkscape:window-maximized="1"
     inkscape:current-layer="svg4"
     inkscape:snap-bbox="true"
     inkscape:bbox-paths="true"
     inkscape:snap-page="true"
     inkscape:snap-bbox-midpoints="false"
     inkscape:bbox-nodes="true" />
  <path
     d="m 8.0000005,34.666667 h 5.3333335 a 5.3333334,5.3333334 0 0 1 5.333334,5.333334 v 5.333333 h 2.666666 v -5.333333 a 5.3333334,5.3333334 0 0 1 5.333334,-5.333334 H 32 a 5.3333334,5.3333334 0 0 1 5.333333,5.333334 v 5.333333 H 40 v -5.333333 a 5.3333334,5.3333334 0 0 1 5.333334,-5.333334 h 5.333334 A 5.3333334,5.3333334 0 0 1 56,40.000001 v 5.333333 h 2.666667 v 8 H 0 v -8 h 2.6666667 v -5.333333 a 5.3333334,5.3333334 0 0 1 5.3333338,-5.333334 m 18.6666675,-21.333333 10.666666,8 -10.666666,8 v -16 M 8.0000005,0 H 50.666668 A 5.3333334,5.3333334 0 0 1 56,5.3333337 V 30.773334 c -1.573333,-0.933333 -3.386666,-1.44 -5.333332,-1.44 V 5.3333337 H 8.0000005 V 29.333334 c -1.946667,0 -3.7600004,0.506667 -5.3333338,1.44 V 5.3333337 A 5.3333334,5.3333334 0 0 1 8.0000005,0 Z"
     id="path2"
     style="fill:#ffffff;fill-opacity:1;stroke-width:1" />
  <g
     id="g9514"
     transform="translate(-0.27839217,-3.5968216)">
    <text
       xml:space="preserve"
       style="font-size:20.3624px;line-height:1.25;font-family:osifont;-inkscape-font-specification:osifont;stroke-width:0.50906"
       x="-3.1020844"
       y="-0.93699408"
       id="text6689-3"><tspan
         sodipodi:role="line"
         x="-3.1020844"
         y="-0.93699408"
         style="stroke-width:0.50906"
         id="tspan11469-6">modified: resized, recolored</tspan></text>
  </g>
</svg>
