<?xml version="1.0" encoding="UTF-8" standalone="no"?>
<svg
   version="1.1"
   width="64"
   height="64"
   viewBox="0 0 64 64"
   id="svg4"
   sodipodi:docname="selection-mod-relax2.svg"
   inkscape:version="1.1.1 (3bf5ae0d25, 2021-09-20, custom)"
   xmlns:inkscape="http://www.inkscape.org/namespaces/inkscape"
   xmlns:sodipodi="http://sodipodi.sourceforge.net/DTD/sodipodi-0.dtd"
   xmlns="http://www.w3.org/2000/svg"
   xmlns:svg="http://www.w3.org/2000/svg">
  <defs
     id="defs8">
    <filter
       style="color-interpolation-filters:sRGB;"
       inkscape:label="Blur"
       id="filter829"
       x="-0.081818181"
       y="-0.081818181"
       width="1.1636364"
       height="1.1636364">
      <feGaussianBlur
         stdDeviation="2 2"
         result="blur"
         id="feGaussianBlur827" />
    </filter>
  </defs>
  <sodipodi:namedview
     id="namedview6"
     pagecolor="#505050"
     bordercolor="#eeeeee"
     borderopacity="1"
     inkscape:pageshadow="0"
     inkscape:pageopacity="0"
     inkscape:pagecheckerboard="0"
     showgrid="false"
     inkscape:snap-bbox="true"
     inkscape:bbox-paths="true"
     inkscape:snap-page="true"
     fit-margin-top="0"
     fit-margin-left="0"
     fit-margin-right="0"
     fit-margin-bottom="0"
     inkscape:zoom="1.8723959"
     inkscape:cx="135.65507"
     inkscape:cy="91.32684"
     inkscape:window-width="1920"
     inkscape:window-height="1007"
     inkscape:window-x="0"
     inkscape:window-y="0"
     inkscape:window-maximized="1"
     inkscape:current-layer="svg4" />
  <path
     d="M 8.1333334,34.666667 H 2.6666667 V 29.333334 H 8.1333334 C 9.3333335,18.213334 18.213334,9.3333335 29.333334,8.1333334 V 2.6666667 h 5.333333 v 5.4666667 c 11.12,1.2000001 20,10.0800006 21.2,21.2000006 h 5.466667 v 5.333333 h -5.466667 c -1.2,11.12 -10.08,20 -21.2,21.2 v 5.466667 h -5.333333 v -5.466667 c -11.12,-1.2 -20.0000005,-10.08 -21.2000006,-21.2 M 32,13.333334 A 18.666667,18.666667 0 0 0 13.333334,32 18.666667,18.666667 0 0 0 32,50.666667 18.666667,18.666667 0 0 0 50.666667,32 18.666667,18.666667 0 0 0 32,13.333334 Z"
     id="path825"
     style="stroke-width:1;fill:#ffffff;fill-opacity:1;filter:url(#filter829)" />
  <path
     d="M 8.1333334,34.666667 H 2.6666667 V 29.333334 H 8.1333334 C 9.3333335,18.213334 18.213334,9.3333335 29.333334,8.1333334 V 2.6666667 h 5.333333 v 5.4666667 c 11.12,1.2000001 20,10.0800006 21.2,21.2000006 h 5.466667 v 5.333333 h -5.466667 c -1.2,11.12 -10.08,20 -21.2,21.2 v 5.466667 h -5.333333 v -5.466667 c -11.12,-1.2 -20.0000005,-10.08 -21.2000006,-21.2 M 32,13.333334 A 18.666667,18.666667 0 0 0 13.333334,32 18.666667,18.666667 0 0 0 32,50.666667 18.666667,18.666667 0 0 0 50.666667,32 18.666667,18.666667 0 0 0 32,13.333334 Z"
     id="path2"
     style="stroke-width:1;fill:#ffffff;fill-opacity:1" />
  <g
     id="g830">
    <g
       id="g15193"
       transform="translate(-0.61643983)">
      <text
         xml:space="preserve"
         style="font-size:20.3624px;line-height:1.25;font-family:osifont;-inkscape-font-specification:osifont;stroke-width:0.50906"
         x="-3.1020844"
         y="-0.93699408"
         id="text6689"><tspan
           sodipodi:role="line"
           x="-3.1020844"
           y="-0.93699408"
           style="stroke-width:0.50906"
           id="tspan11469">MODDED: resized, recolored, glow</tspan></text>
    </g>
  </g>
</svg>
