<?xml version="1.0" encoding="UTF-8" standalone="no"?>
<svg
   version="1.1"
   width="61.477993"
   height="62.933331"
   viewBox="0 0 61.477993 62.933331"
   id="svg4"
   sodipodi:docname="selection-mod-autoplay.svg"
   inkscape:version="1.1.1 (3bf5ae0d25, 2021-09-20, custom)"
   xmlns:inkscape="http://www.inkscape.org/namespaces/inkscape"
   xmlns:sodipodi="http://sodipodi.sourceforge.net/DTD/sodipodi-0.dtd"
   xmlns="http://www.w3.org/2000/svg"
   xmlns:svg="http://www.w3.org/2000/svg">
  <defs
     id="defs8">
    <filter
       style="color-interpolation-filters:sRGB"
       inkscape:label="Blur"
       id="filter9479"
       x="-0.092524787"
       y="-0.089999999"
       width="1.1850496"
       height="1.18">
      <feGaussianBlur
         stdDeviation="2 2"
         result="blur"
         id="feGaussianBlur9477" />
    </filter>
  </defs>
  <sodipodi:namedview
     id="namedview6"
     pagecolor="#505050"
     bordercolor="#eeeeee"
     borderopacity="1"
     inkscape:pageshadow="0"
     inkscape:pageopacity="0"
     inkscape:pagecheckerboard="0"
     showgrid="false"
     inkscape:zoom="2.6479676"
     inkscape:cx="142.75099"
     inkscape:cy="35.121276"
     inkscape:window-width="1920"
     inkscape:window-height="1007"
     inkscape:window-x="0"
     inkscape:window-y="0"
     inkscape:window-maximized="1"
     inkscape:current-layer="svg4"
     inkscape:snap-bbox="true"
     inkscape:bbox-paths="true"
     inkscape:snap-page="true"
     inkscape:bbox-nodes="true" />
  <path
     d="m 30.744885,40.800001 a 9.3333335,9.3333335 0 0 1 -9.333333,-9.333334 9.3333335,9.3333335 0 0 1 9.333333,-9.333333 9.3333335,9.3333335 0 0 1 9.333334,9.333333 9.3333335,9.3333335 0 0 1 -9.333334,9.333334 m 19.813334,-6.746667 c 0.106667,-0.853333 0.186667,-1.706667 0.186667,-2.586667 0,-0.88 -0.08,-1.76 -0.186667,-2.666666 l 5.626667,-4.346667 c 0.506666,-0.4 0.64,-1.12 0.32,-1.706667 l -5.333334,-9.226666 c -0.32,-0.586667 -1.04,-0.826667 -1.626666,-0.586667 l -6.64,2.666667 c -1.386667,-1.04 -2.826667,-1.946667 -4.506667,-2.613334 L 37.411552,5.9199999 c -0.106667,-0.64 -0.666667,-1.12 -1.333333,-1.12 H 25.411552 c -0.666667,0 -1.226667,0.48 -1.333333,1.12 l -0.986667,7.0666671 c -1.68,0.666667 -3.12,1.573334 -4.506667,2.613334 l -6.64,-2.666667 c -0.586667,-0.24 -1.306667,0 -1.626667,0.586667 l -5.3333334,9.226666 c -0.346667,0.586667 -0.186667,1.306667 0.32,1.706667 l 5.6266674,4.346667 c -0.106667,0.906666 -0.186667,1.786666 -0.186667,2.666666 0,0.88 0.08,1.733334 0.186667,2.586667 l -5.6266674,4.426667 c -0.506667,0.4 -0.666667,1.12 -0.32,1.706667 l 5.3333334,9.226666 c 0.32,0.586667 1.04,0.8 1.626667,0.586667 l 6.64,-2.693333 c 1.386667,1.066666 2.826667,1.973333 4.506667,2.64 l 0.986667,7.066666 c 0.106666,0.64 0.666666,1.12 1.333333,1.12 h 10.666667 c 0.666666,0 1.226666,-0.48 1.333333,-1.12 l 0.986667,-7.066666 c 1.68,-0.693334 3.12,-1.573334 4.506667,-2.64 l 6.64,2.693333 c 0.586666,0.213333 1.306666,0 1.626666,-0.586667 l 5.333334,-9.226666 c 0.32,-0.586667 0.186666,-1.306667 -0.32,-1.706667 z"
     id="path2-3"
     style="fill:#ffffff;fill-opacity:1;stroke-width:1;filter:url(#filter9479)" />
  <path
     d="m 30.744885,40.800001 a 9.3333335,9.3333335 0 0 1 -9.333333,-9.333334 9.3333335,9.3333335 0 0 1 9.333333,-9.333333 9.3333335,9.3333335 0 0 1 9.333334,9.333333 9.3333335,9.3333335 0 0 1 -9.333334,9.333334 m 19.813334,-6.746667 c 0.106667,-0.853333 0.186667,-1.706667 0.186667,-2.586667 0,-0.88 -0.08,-1.76 -0.186667,-2.666666 l 5.626667,-4.346667 c 0.506666,-0.4 0.64,-1.12 0.32,-1.706667 l -5.333334,-9.226666 c -0.32,-0.586667 -1.04,-0.826667 -1.626666,-0.586667 l -6.64,2.666667 c -1.386667,-1.04 -2.826667,-1.946667 -4.506667,-2.613334 L 37.411552,5.9200003 c -0.106667,-0.64 -0.666667,-1.12 -1.333333,-1.12 H 25.411552 c -0.666667,0 -1.226667,0.48 -1.333333,1.12 l -0.986667,7.0666667 c -1.68,0.666667 -3.12,1.573334 -4.506667,2.613334 l -6.64,-2.666667 c -0.586667,-0.24 -1.306667,0 -1.626667,0.586667 l -5.3333333,9.226666 c -0.3466667,0.586667 -0.1866667,1.306667 0.32,1.706667 l 5.6266673,4.346667 c -0.106667,0.906666 -0.186667,1.786666 -0.186667,2.666666 0,0.88 0.08,1.733334 0.186667,2.586667 l -5.6266673,4.426667 c -0.5066667,0.4 -0.6666667,1.12 -0.32,1.706667 l 5.3333333,9.226666 c 0.32,0.586667 1.04,0.8 1.626667,0.586667 l 6.64,-2.693333 c 1.386667,1.066666 2.826667,1.973333 4.506667,2.64 l 0.986667,7.066666 c 0.106666,0.64 0.666666,1.12 1.333333,1.12 h 10.666667 c 0.666666,0 1.226666,-0.48 1.333333,-1.12 l 0.986667,-7.066666 c 1.68,-0.693334 3.12,-1.573334 4.506667,-2.64 l 6.64,2.693333 c 0.586666,0.213333 1.306666,0 1.626666,-0.586667 l 5.333334,-9.226666 c 0.32,-0.586667 0.186666,-1.306667 -0.32,-1.706667 z"
     id="path2"
     style="fill:#ffffff;fill-opacity:1;stroke-width:1" />
  <text
     xml:space="preserve"
     style="font-size:20.3624px;line-height:1.25;font-family:osifont;-inkscape-font-specification:osifont;stroke-width:0.50906"
     x="-3.3804765"
     y="-4.5338154"
     id="text6689"><tspan
       sodipodi:role="line"
       x="-3.3804765"
       y="-4.5338154"
       style="stroke-width:0.50906"
       id="tspan11469">modified: resized, recolored, glow</tspan></text>
</svg>
