<?xml version="1.0" encoding="UTF-8" standalone="no"?>
<svg
   version="1.1"
   width="52.500004"
   height="52.500004"
   viewBox="0 0 52.500004 52.500004"
   id="svg4"
   sodipodi:docname="selection-mod-nightmare.svg"
   inkscape:version="1.1.1 (3bf5ae0d25, 2021-09-20, custom)"
   xmlns:inkscape="http://www.inkscape.org/namespaces/inkscape"
   xmlns:sodipodi="http://sodipodi.sourceforge.net/DTD/sodipodi-0.dtd"
   xmlns="http://www.w3.org/2000/svg"
   xmlns:svg="http://www.w3.org/2000/svg">
  <defs
     id="defs8">
    <filter
       style="color-interpolation-filters:sRGB"
       inkscape:label="Blur"
       id="filter957"
       x="-0.085714281"
       y="-0.085714288"
       width="1.1714286"
       height="1.1714286">
      <feGaussianBlur
         stdDeviation="2 2"
         result="blur"
         id="feGaussianBlur955" />
    </filter>
    <filter
       style="color-interpolation-filters:sRGB"
       inkscape:label="Blur"
       id="filter1019"
       x="-0.091428563"
       y="-0.09142857"
       width="1.1828572"
       height="1.1828572">
      <feGaussianBlur
         stdDeviation="2 2"
         result="blur"
         id="feGaussianBlur1017" />
    </filter>
  </defs>
  <sodipodi:namedview
     id="namedview6"
     pagecolor="#505050"
     bordercolor="#eeeeee"
     borderopacity="1"
     inkscape:pageshadow="0"
     inkscape:pageopacity="0"
     inkscape:pagecheckerboard="0"
     showgrid="false"
     inkscape:snap-bbox="true"
     inkscape:snap-page="true"
     inkscape:bbox-paths="true"
     inkscape:zoom="1.8723959"
     inkscape:cx="129.78025"
     inkscape:cy="61.418635"
     inkscape:window-width="1920"
     inkscape:window-height="1007"
     inkscape:window-x="0"
     inkscape:window-y="0"
     inkscape:window-maximized="1"
     inkscape:current-layer="g9514"
     inkscape:bbox-nodes="true" />
  <g
     id="g1079"
     transform="translate(-80.345444,-16.042786)">
    <g
       id="g9514"
       transform="translate(-0.89483151)">
      <text
         xml:space="preserve"
         style="font-size:20.3624px;line-height:1.25;font-family:osifont;-inkscape-font-specification:osifont;stroke-width:0.50906"
         x="77.859802"
         y="11.50897"
         id="text6689-3"><tspan
           sodipodi:role="line"
           x="77.859802"
           y="11.50897"
           style="stroke-width:0.50906"
           id="tspan11469-6">modified: resized, recolored</tspan></text>
      <path
         d="m 127.49028,41.042786 h -3.75 v -10 c 0,-2.775 -2.25,-5 -5,-5 h -10 v -3.75 a 6.25,6.25 0 0 0 -6.25,-6.25 6.25,6.25 0 0 0 -6.250004,6.25 v 3.75 h -10 a 5,5 0 0 0 -5,5 v 9.5 h 3.75 c 3.75,0 6.75,3 6.75,6.750002 0,3.75 -3,6.75 -6.75,6.75 h -3.75 v 9.5 a 5,5 0 0 0 5,5 h 9.5 v -3.75 c 0,-3.75 3,-6.75 6.750004,-6.75 3.75,0 6.75,3 6.75,6.75 v 3.75 h 9.5 a 5,5 0 0 0 5,-5 v -10 h 3.75 a 6.25,6.25 0 0 0 6.25,-6.25 6.25,6.25 0 0 0 -6.25,-6.250002 z"
         id="path908"
         style="fill:#ffffff;fill-opacity:1;stroke-width:1" />
    </g>
  </g>
</svg>
