<?xml version="1.0" encoding="UTF-8" standalone="no"?>
<svg
   version="1.1"
   width="57.600002"
   height="60.26667"
   viewBox="0 0 57.600002 60.26667"
   id="svg4"
   sodipodi:docname="selection-mod-nightcore.svg"
   inkscape:version="1.1.1 (3bf5ae0d25, 2021-09-20, custom)"
   xmlns:inkscape="http://www.inkscape.org/namespaces/inkscape"
   xmlns:sodipodi="http://sodipodi.sourceforge.net/DTD/sodipodi-0.dtd"
   xmlns="http://www.w3.org/2000/svg"
   xmlns:svg="http://www.w3.org/2000/svg">
  <defs
     id="defs8">
    <filter
       style="color-interpolation-filters:sRGB"
       inkscape:label="Blur"
       id="filter1743"
       x="-0.099999998"
       y="-0.094736842"
       width="1.2"
       height="1.1894737">
      <feGaussianBlur
         stdDeviation="2 2"
         result="blur"
         id="feGaussianBlur1741" />
    </filter>
  </defs>
  <sodipodi:namedview
     id="namedview6"
     pagecolor="#505050"
     bordercolor="#eeeeee"
     borderopacity="1"
     inkscape:pageshadow="0"
     inkscape:pageopacity="0"
     inkscape:pagecheckerboard="0"
     showgrid="false"
     inkscape:snap-bbox="true"
     inkscape:bbox-paths="true"
     inkscape:snap-page="true"
     inkscape:zoom="2.6479676"
     inkscape:cx="112.16149"
     inkscape:cy="67.599014"
     inkscape:window-width="1920"
     inkscape:window-height="1007"
     inkscape:window-x="0"
     inkscape:window-y="0"
     inkscape:window-maximized="1"
     inkscape:current-layer="g15193"
     inkscape:bbox-nodes="true" />
  <path
     d="M 28.8,4.8000002 C 15.466667,4.8000002 4.8000002,15.466667 4.8000002,28.8 v 18.666667 a 8.0000001,8.0000001 0 0 0 7.9999998,8 h 8 V 34.133333 H 10.133334 V 28.8 A 18.666667,18.666667 0 0 1 28.8,10.133334 18.666667,18.666667 0 0 1 47.466667,28.8 v 5.333333 H 36.8 v 21.333334 h 8.000001 a 8.0000001,8.0000001 0 0 0 8,-8 V 28.8 C 52.800001,15.466667 42.053334,4.8000002 28.8,4.8000002 Z"
     id="path2"
     style="fill:#ffffff;fill-opacity:1;stroke-width:0.999999" />
  <g
     id="g830"
     transform="translate(-3.1999999,2.1333335)">
    <g
       id="g15193"
       transform="translate(-0.61643983)">
      <text
         xml:space="preserve"
         style="font-size:20.3624px;line-height:1.25;font-family:osifont;-inkscape-font-specification:osifont;stroke-width:0.50906"
         x="0.43596321"
         y="-6.6671491"
         id="text6689"><tspan
           sodipodi:role="line"
           x="0.43596321"
           y="-6.6671491"
           style="stroke-width:0.50906"
           id="tspan11469">modified: resized, recolored, glow</tspan></text>
    </g>
  </g>
  <path
     d="M 28.8,4.8000002 C 15.466667,4.8000002 4.8000002,15.466667 4.8000002,28.8 v 18.666667 a 8.0000001,8.0000001 0 0 0 7.9999998,8 h 8 V 34.133333 H 10.133334 V 28.8 A 18.666667,18.666667 0 0 1 28.8,10.133334 18.666667,18.666667 0 0 1 47.466667,28.8 v 5.333333 H 36.8 v 21.333334 h 8.000001 a 8.0000001,8.0000001 0 0 0 8,-8 V 28.8 C 52.800001,15.466667 42.053334,4.8000002 28.8,4.8000002 Z"
     id="path1739"
     style="fill:#ffffff;fill-opacity:1;stroke-width:0.999999;filter:url(#filter1743)" />
</svg>
