<?xml version="1.0" encoding="UTF-8" standalone="no"?>
<svg
   version="1.1"
   width="64"
   height="64"
   viewBox="0 0 64 64"
   id="svg4"
   sodipodi:docname="selection-mod-target.svg"
   inkscape:version="1.1.1 (3bf5ae0d25, 2021-09-20, custom)"
   xmlns:inkscape="http://www.inkscape.org/namespaces/inkscape"
   xmlns:sodipodi="http://sodipodi.sourceforge.net/DTD/sodipodi-0.dtd"
   xmlns="http://www.w3.org/2000/svg"
   xmlns:svg="http://www.w3.org/2000/svg">
  <defs
     id="defs8">
    <filter
       style="color-interpolation-filters:sRGB;"
       inkscape:label="Blur"
       id="filter829"
       x="-0.09"
       y="-0.09"
       width="1.18"
       height="1.18">
      <feGaussianBlur
         stdDeviation="2 2"
         result="blur"
         id="feGaussianBlur827" />
    </filter>
  </defs>
  <sodipodi:namedview
     id="namedview6"
     pagecolor="#505050"
     bordercolor="#eeeeee"
     borderopacity="1"
     inkscape:pageshadow="0"
     inkscape:pageopacity="0"
     inkscape:pagecheckerboard="0"
     showgrid="false"
     inkscape:snap-bbox="true"
     inkscape:bbox-paths="true"
     inkscape:snap-page="true"
     fit-margin-top="0"
     fit-margin-left="0"
     fit-margin-right="0"
     fit-margin-bottom="0"
     inkscape:zoom="1.8723959"
     inkscape:cx="85.452014"
     inkscape:cy="55.543809"
     inkscape:window-width="1920"
     inkscape:window-height="1007"
     inkscape:window-x="0"
     inkscape:window-y="0"
     inkscape:window-maximized="1"
     inkscape:current-layer="svg4" />
  <path
     d="M 32,5.3333334 A 26.666667,26.666667 0 0 0 5.3333334,32 26.666667,26.666667 0 0 0 32,58.666667 26.666667,26.666667 0 0 0 58.666667,32 c 0,-3.093333 -0.56,-6.16 -1.626666,-9.04 l -4.266667,4.266667 C 53.146667,28.8 53.333334,30.4 53.333334,32 A 21.333334,21.333334 0 0 1 32,53.333334 21.333334,21.333334 0 0 1 10.666667,32 21.333334,21.333334 0 0 1 32,10.666667 c 1.6,0 3.2,0.186666 4.773334,0.56 l 4.293333,-4.2933336 c -2.906667,-1.04 -5.973333,-1.6 -9.066667,-1.6 m 18.666667,0 L 40,16 v 4 l -6.8,6.8 C 32.8,26.666667 32.4,26.666667 32,26.666667 A 5.3333334,5.3333334 0 0 0 26.666667,32 5.3333334,5.3333334 0 0 0 32,37.333334 5.3333334,5.3333334 0 0 0 37.333334,32 c 0,-0.4 0,-0.8 -0.133334,-1.2 L 44.000001,24 h 4 L 58.666667,13.333334 h -8 V 5.3333334 M 32,16 A 16,16 0 0 0 16,32 16,16 0 0 0 32,48.000001 16,16 0 0 0 48.000001,32 H 42.666667 A 10.666667,10.666667 0 0 1 32,42.666667 10.666667,10.666667 0 0 1 21.333334,32 10.666667,10.666667 0 0 1 32,21.333334 Z"
     id="path825"
     style="fill:#ffffff;fill-opacity:1;stroke-width:1;filter:url(#filter829)" />
  <path
     d="M 32,5.3333334 A 26.666667,26.666667 0 0 0 5.3333334,32 26.666667,26.666667 0 0 0 32,58.666667 26.666667,26.666667 0 0 0 58.666667,32 c 0,-3.093333 -0.56,-6.16 -1.626666,-9.04 l -4.266667,4.266667 C 53.146667,28.8 53.333334,30.4 53.333334,32 A 21.333334,21.333334 0 0 1 32,53.333334 21.333334,21.333334 0 0 1 10.666667,32 21.333334,21.333334 0 0 1 32,10.666667 c 1.6,0 3.2,0.186666 4.773334,0.56 l 4.293333,-4.2933336 c -2.906667,-1.04 -5.973333,-1.6 -9.066667,-1.6 m 18.666667,0 L 40,16 v 4 l -6.8,6.8 C 32.8,26.666667 32.4,26.666667 32,26.666667 A 5.3333334,5.3333334 0 0 0 26.666667,32 5.3333334,5.3333334 0 0 0 32,37.333334 5.3333334,5.3333334 0 0 0 37.333334,32 c 0,-0.4 0,-0.8 -0.133334,-1.2 L 44.000001,24 h 4 L 58.666667,13.333334 h -8 V 5.3333334 M 32,16 A 16,16 0 0 0 16,32 16,16 0 0 0 32,48.000001 16,16 0 0 0 48.000001,32 H 42.666667 A 10.666667,10.666667 0 0 1 32,42.666667 10.666667,10.666667 0 0 1 21.333334,32 10.666667,10.666667 0 0 1 32,21.333334 Z"
     id="path2"
     style="fill:#ffffff;fill-opacity:1;stroke-width:1" />
  <g
     id="g830">
    <g
       id="g15193"
       transform="translate(-0.61643983)">
      <text
         xml:space="preserve"
         style="font-size:20.3624px;line-height:1.25;font-family:osifont;-inkscape-font-specification:osifont;stroke-width:0.50906"
         x="-3.1020844"
         y="-0.93699408"
         id="text6689"><tspan
           sodipodi:role="line"
           x="-3.1020844"
           y="-0.93699408"
           style="stroke-width:0.50906"
           id="tspan11469">modified: resized, recolored, glow</tspan></text>
    </g>
  </g>
</svg>
