<?xml version="1.0" encoding="UTF-8" standalone="no"?>
<svg
   version="1.1"
   width="67.099998"
   height="54.599995"
   viewBox="0 0 67.099998 54.599995"
   id="svg4"
   sodipodi:docname="selection-mod-touchdevice.svg"
   inkscape:version="1.1.1 (3bf5ae0d25, 2021-09-20, custom)"
   xmlns:inkscape="http://www.inkscape.org/namespaces/inkscape"
   xmlns:sodipodi="http://sodipodi.sourceforge.net/DTD/sodipodi-0.dtd"
   xmlns="http://www.w3.org/2000/svg"
   xmlns:svg="http://www.w3.org/2000/svg">
  <defs
     id="defs8">
    <filter
       style="color-interpolation-filters:sRGB"
       inkscape:label="Blur"
       id="filter829"
       x="-0.1125"
       y="-0.081818178"
       width="1.225"
       height="1.1636364">
      <feGaussianBlur
         stdDeviation="2 2"
         result="blur"
         id="feGaussianBlur827" />
    </filter>
    <filter
       style="color-interpolation-filters:sRGB"
       inkscape:label="Blur"
       id="filter3148"
       x="-0.083478261"
       y="-0.10666667"
       width="1.1669565"
       height="1.2133333">
      <feGaussianBlur
         stdDeviation="2 2"
         result="blur"
         id="feGaussianBlur3146" />
    </filter>
  </defs>
  <sodipodi:namedview
     id="namedview6"
     pagecolor="#505050"
     bordercolor="#eeeeee"
     borderopacity="1"
     inkscape:pageshadow="0"
     inkscape:pageopacity="0"
     inkscape:pagecheckerboard="0"
     showgrid="false"
     inkscape:snap-bbox="true"
     inkscape:bbox-paths="true"
     inkscape:snap-grids="true"
     inkscape:snap-page="true"
     fit-margin-top="0"
     fit-margin-left="0"
     fit-margin-right="0"
     fit-margin-bottom="0"
     inkscape:zoom="1.8723958"
     inkscape:cx="27.771905"
     inkscape:cy="-3.2044506"
     inkscape:window-width="1920"
     inkscape:window-height="1007"
     inkscape:window-x="0"
     inkscape:window-y="0"
     inkscape:window-maximized="1"
     inkscape:current-layer="svg4"
     inkscape:bbox-nodes="true"
     inkscape:snap-bbox-midpoints="true"
     inkscape:snap-nodes="false" />
  <text
     xml:space="preserve"
     style="font-size:20.3624px;line-height:1.25;font-family:osifont;-inkscape-font-specification:osifont;stroke-width:0.50906"
     x="-3.3804765"
     y="-4.5338159"
     id="text6689"><tspan
       sodipodi:role="line"
       x="-3.3804765"
       y="-4.5338159"
       style="stroke-width:0.50906"
       id="tspan11469">modified: resized, recolored, glow</tspan></text>
  <path
     d="M 9.8000004,4.8000001 H 52.3 a 5,5 0 0 1 5,5 V 14.8 h -10 V 9.8000001 H 14.8 V 39.8 h 22.5 v 5 H 9.8000004 a 5,5 0 0 1 -5.0000002,-5 V 9.8000001 a 5,5 0 0 1 5.0000002,-5 M 44.8,19.8 h 15 a 2.5,2.5 0 0 1 2.5,2.5 v 25 a 2.5,2.5 0 0 1 -2.5,2.5 h -15 a 2.5,2.5 0 0 1 -2.5,-2.5 v -25 a 2.5,2.5 0 0 1 2.5,-2.5 m 2.5,5 v 17.5 h 10 V 24.8 Z"
     id="path828"
     style="fill:#ffffff;fill-opacity:1;stroke-width:1;filter:url(#filter3148)" />
  <path
     d="M 9.8000004,4.8000001 H 52.3 a 5,5 0 0 1 5,5 V 14.8 h -10 V 9.8000001 H 14.8 V 39.8 h 22.5 v 5 H 9.8000004 a 5,5 0 0 1 -5.0000002,-5 V 9.8000001 a 5,5 0 0 1 5.0000002,-5 M 44.8,19.8 h 15 a 2.5,2.5 0 0 1 2.5,2.5 v 25 a 2.5,2.5 0 0 1 -2.5,2.5 h -15 a 2.5,2.5 0 0 1 -2.5,-2.5 v -25 a 2.5,2.5 0 0 1 2.5,-2.5 m 2.5,5 v 17.5 h 10 V 24.8 Z"
     id="path3122"
     style="fill:#ffffff;fill-opacity:1;stroke-width:1" />
</svg>
