<?xml version="1.0" encoding="UTF-8" standalone="no"?>
<svg
   version="1.1"
   width="52.266666"
   height="68.26667"
   viewBox="0 0 52.266666 68.26667"
   id="svg4"
   sodipodi:docname="selection-mod-spunout.svg"
   inkscape:version="1.1.1 (3bf5ae0d25, 2021-09-20, custom)"
   xmlns:inkscape="http://www.inkscape.org/namespaces/inkscape"
   xmlns:sodipodi="http://sodipodi.sourceforge.net/DTD/sodipodi-0.dtd"
   xmlns="http://www.w3.org/2000/svg"
   xmlns:svg="http://www.w3.org/2000/svg">
  <defs
     id="defs8">
    <filter
       style="color-interpolation-filters:sRGB"
       inkscape:label="Blur"
       id="filter829"
       x="-0.1125"
       y="-0.081818181"
       width="1.225"
       height="1.1636364">
      <feGaussianBlur
         stdDeviation="2 2"
         result="blur"
         id="feGaussianBlur827" />
    </filter>
  </defs>
  <sodipodi:namedview
     id="namedview6"
     pagecolor="#505050"
     bordercolor="#eeeeee"
     borderopacity="1"
     inkscape:pageshadow="0"
     inkscape:pageopacity="0"
     inkscape:pagecheckerboard="0"
     showgrid="false"
     inkscape:snap-bbox="true"
     inkscape:bbox-paths="true"
     inkscape:snap-grids="true"
     inkscape:snap-page="true"
     fit-margin-top="0"
     fit-margin-left="0"
     fit-margin-right="0"
     fit-margin-bottom="0"
     inkscape:zoom="2.6479676"
     inkscape:cx="109.14031"
     inkscape:cy="47.583664"
     inkscape:window-width="1920"
     inkscape:window-height="1007"
     inkscape:window-x="0"
     inkscape:window-y="0"
     inkscape:window-maximized="1"
     inkscape:current-layer="g15193"
     inkscape:bbox-nodes="true" />
  <path
     d="m 26.133333,18.133333 v 8 L 36.8,15.466667 26.133333,4.7999998 V 12.8 A 21.333334,21.333334 0 0 0 4.7999999,34.133333 c 0,4.186667 1.226666,8.080001 3.306667,11.360001 L 12,41.6 c -1.2,-2.213333 -1.866667,-4.8 -1.866667,-7.466667 a 16,16 0 0 1 16,-16 m 18.026667,4.64 -3.893333,3.893334 c 1.173333,2.24 1.866667,4.8 1.866667,7.466666 A 16,16 0 0 1 26.133333,50.133334 V 42.133333 L 15.466667,52.8 26.133333,63.466667 v -8 A 21.333334,21.333334 0 0 0 47.466667,34.133333 c 0,-4.186666 -1.226667,-8.08 -3.306667,-11.36 z"
     id="path825"
     style="fill:#ffffff;fill-opacity:1;stroke-width:1;filter:url(#filter829)" />
  <path
     d="m 26.133333,18.133333 v 8 L 36.8,15.466667 26.133333,4.7999998 V 12.8 A 21.333334,21.333334 0 0 0 4.7999999,34.133333 c 0,4.186667 1.226666,8.080001 3.306667,11.360001 L 12,41.6 c -1.2,-2.213333 -1.866667,-4.8 -1.866667,-7.466667 a 16,16 0 0 1 16,-16 m 18.026667,4.64 -3.893333,3.893334 c 1.173333,2.24 1.866667,4.8 1.866667,7.466666 A 16,16 0 0 1 26.133333,50.133334 V 42.133333 L 15.466667,52.8 26.133333,63.466667 v -8 A 21.333334,21.333334 0 0 0 47.466667,34.133333 c 0,-4.186666 -1.226667,-8.08 -3.306667,-11.36 z"
     id="path2"
     style="fill:#ffffff;fill-opacity:1;stroke-width:1" />
  <g
     id="g830"
     transform="translate(-5.8666671,2.1333331)">
    <g
       id="g15193"
       transform="translate(-0.61643983)">
      <text
         xml:space="preserve"
         style="font-size:20.3624px;line-height:1.25;font-family:osifont;-inkscape-font-specification:osifont;stroke-width:0.50906"
         x="3.1026304"
         y="-6.6671486"
         id="text6689"><tspan
           sodipodi:role="line"
           x="3.1026304"
           y="-6.6671486"
           style="stroke-width:0.50906"
           id="tspan11469">modified: resized, recolored, glow</tspan></text>
    </g>
  </g>
</svg>
