<?xml version="1.0" encoding="UTF-8" standalone="no"?>
<svg
   version="1.1"
   width="64"
   height="64"
   viewBox="0 0 64 64"
   id="svg4"
   sodipodi:docname="selection-mod-easy.svg"
   inkscape:version="1.1.1 (3bf5ae0d25, 2021-09-20, custom)"
   xmlns:inkscape="http://www.inkscape.org/namespaces/inkscape"
   xmlns:sodipodi="http://sodipodi.sourceforge.net/DTD/sodipodi-0.dtd"
   xmlns="http://www.w3.org/2000/svg"
   xmlns:svg="http://www.w3.org/2000/svg">
  <defs
     id="defs8">
    <filter
       style="color-interpolation-filters:sRGB;"
       inkscape:label="Blur"
       id="filter961"
       x="-0.15"
       y="-0.099999998"
       width="1.3"
       height="1.2">
      <feGaussianBlur
         stdDeviation="2 2"
         result="blur"
         id="feGaussianBlur959" />
    </filter>
  </defs>
  <sodipodi:namedview
     id="namedview6"
     pagecolor="#505050"
     bordercolor="#eeeeee"
     borderopacity="1"
     inkscape:pageshadow="0"
     inkscape:pageopacity="0"
     inkscape:pagecheckerboard="0"
     showgrid="false"
     inkscape:snap-bbox="true"
     inkscape:bbox-paths="true"
     inkscape:snap-page="true"
     inkscape:zoom="2.6479676"
     inkscape:cx="134.44273"
     inkscape:cy="46.073071"
     inkscape:window-width="1920"
     inkscape:window-height="1007"
     inkscape:window-x="0"
     inkscape:window-y="0"
     inkscape:window-maximized="1"
     inkscape:current-layer="svg4" />
  <path
     d="M 32,8 V 36.133334 C 30.426667,35.226667 28.613334,34.666667 26.666667,34.666667 20.773334,34.666667 16,39.44 16,45.333334 c 0,5.893333 4.773334,10.666667 10.666667,10.666667 5.893333,0 10.666667,-4.773334 10.666667,-10.666667 V 18.666667 H 48.000001 V 8 Z"
     id="path2-3"
     style="fill:#ffffff;fill-opacity:1;stroke-width:1;filter:url(#filter961)" />
  <path
     d="M 32,8.0000001 V 36.133334 C 30.426667,35.226667 28.613334,34.666667 26.666667,34.666667 20.773334,34.666667 16,39.44 16,45.333334 c 0,5.893333 4.773334,10.666667 10.666667,10.666667 5.893333,0 10.666667,-4.773334 10.666667,-10.666667 V 18.666667 H 48.000001 V 8.0000001 Z"
     id="path2"
     style="stroke-width:1;fill:#ffffff;fill-opacity:1" />
  <g
     id="g834">
    <g
       id="g1079">
      <g
         id="g9514"
         transform="translate(-0.89483151)">
        <text
           xml:space="preserve"
           style="font-size:20.3624px;line-height:1.25;font-family:osifont;-inkscape-font-specification:osifont;stroke-width:0.50906"
           x="-3.1020844"
           y="-0.93699408"
           id="text6689-3"><tspan
             sodipodi:role="line"
             x="-3.1020844"
             y="-0.93699408"
             style="stroke-width:0.50906"
             id="tspan11469-6">MODDED: resized, recolored, glow</tspan></text>
      </g>
    </g>
  </g>
</svg>
