<?xml version="1.0" encoding="UTF-8" standalone="no"?>
<svg
   version="1.1"
   width="64"
   height="64"
   viewBox="0 0 64 64"
   id="svg4"
   sodipodi:docname="selection-mod-perfect.svg"
   inkscape:version="1.1.1 (3bf5ae0d25, 2021-09-20, custom)"
   xmlns:inkscape="http://www.inkscape.org/namespaces/inkscape"
   xmlns:sodipodi="http://sodipodi.sourceforge.net/DTD/sodipodi-0.dtd"
   xmlns="http://www.w3.org/2000/svg"
   xmlns:svg="http://www.w3.org/2000/svg">
  <defs
     id="defs8">
    <filter
       style="color-interpolation-filters:sRGB;"
       inkscape:label="Blur"
       id="filter7003"
       x="-0.081818181"
       y="-0.089999998"
       width="1.1636364"
       height="1.18">
      <feGaussianBlur
         stdDeviation="2 2"
         result="blur"
         id="feGaussianBlur7001" />
    </filter>
  </defs>
  <sodipodi:namedview
     id="namedview6"
     pagecolor="#505050"
     bordercolor="#eeeeee"
     borderopacity="1"
     inkscape:pageshadow="0"
     inkscape:pageopacity="0"
     inkscape:pagecheckerboard="0"
     showgrid="false"
     inkscape:snap-bbox="true"
     inkscape:bbox-paths="true"
     inkscape:snap-page="true"
     inkscape:zoom="2.6479676"
     inkscape:cx="66.46607"
     inkscape:cy="96.67792"
     inkscape:window-width="1920"
     inkscape:window-height="1007"
     inkscape:window-x="0"
     inkscape:window-y="0"
     inkscape:window-maximized="1"
     inkscape:current-layer="g15193"
     fit-margin-top="0"
     fit-margin-left="0"
     fit-margin-right="0"
     fit-margin-bottom="0" />
  <path
     d="m 61.333334,26.666667 c 0,-2.96 -2.4,-5.333333 -5.333333,-5.333333 H 39.146667 l 2.56,-12.1866672 c 0.05333,-0.2666667 0.08,-0.56 0.08,-0.8533334 0,-1.0933333 -0.453333,-2.1066667 -1.173333,-2.8266667 l -2.826667,-2.8 L 20.24,20.213334 C 19.253334,21.2 18.666667,22.533334 18.666667,24 V 50.666667 A 5.3333334,5.3333334 0 0 0 24,56.000001 h 24.000001 c 2.213333,0 4.106666,-1.333334 4.906666,-3.253334 l 8.053334,-18.8 C 61.200001,33.333334 61.333334,32.693334 61.333334,32 V 26.666667 M 2.6666667,56.000001 H 13.333334 V 24 H 2.6666667 Z"
     id="path2"
     style="stroke-width:0.999999;fill:#ffffff;fill-opacity:1" />
  <path
     d="m 61.333334,26.666667 c 0,-2.96 -2.4,-5.333333 -5.333333,-5.333333 H 39.146667 l 2.56,-12.1866672 c 0.05333,-0.2666667 0.08,-0.56 0.08,-0.8533334 0,-1.0933333 -0.453333,-2.1066667 -1.173333,-2.8266667 l -2.826667,-2.8 L 20.24,20.213334 C 19.253334,21.2 18.666667,22.533334 18.666667,24 V 50.666667 A 5.3333334,5.3333334 0 0 0 24,56.000001 h 24.000001 c 2.213333,0 4.106666,-1.333334 4.906666,-3.253334 l 8.053334,-18.8 C 61.200001,33.333334 61.333334,32.693334 61.333334,32 V 26.666667 M 2.6666667,56.000001 H 13.333334 V 24 H 2.6666667 Z"
     id="path6999"
     style="stroke-width:0.999999;fill:#ffffff;fill-opacity:1;filter:url(#filter7003)" />
  <g
     id="g830">
    <g
       id="g15193"
       transform="translate(-0.61643983)">
      <text
         xml:space="preserve"
         style="font-size:20.3624px;line-height:1.25;font-family:osifont;-inkscape-font-specification:osifont;stroke-width:0.50906"
         x="-3.1020844"
         y="-0.93699408"
         id="text6689"><tspan
           sodipodi:role="line"
           x="-3.1020844"
           y="-0.93699408"
           style="stroke-width:0.50906"
           id="tspan11469">modified: resized, recolored, glow</tspan></text>
    </g>
  </g>
</svg>
