<?xml version="1.0" encoding="UTF-8" standalone="no"?>
<svg
   version="1.1"
   width="64"
   height="64"
   viewBox="0 0 64 64"
   id="svg4"
   sodipodi:docname="selection-mod-suddendeath.svg"
   inkscape:version="1.1.1 (3bf5ae0d25, 2021-09-20, custom)"
   xmlns:inkscape="http://www.inkscape.org/namespaces/inkscape"
   xmlns:sodipodi="http://sodipodi.sourceforge.net/DTD/sodipodi-0.dtd"
   xmlns="http://www.w3.org/2000/svg"
   xmlns:svg="http://www.w3.org/2000/svg">
  <defs
     id="defs8">
    <filter
       style="color-interpolation-filters:sRGB;"
       inkscape:label="Blur"
       id="filter829"
       x="-0.094736841"
       y="-0.09473684"
       width="1.1894737"
       height="1.1894737">
      <feGaussianBlur
         stdDeviation="2 2"
         result="blur"
         id="feGaussianBlur827" />
    </filter>
  </defs>
  <sodipodi:namedview
     id="namedview6"
     pagecolor="#505050"
     bordercolor="#eeeeee"
     borderopacity="1"
     inkscape:pageshadow="0"
     inkscape:pageopacity="0"
     inkscape:pagecheckerboard="0"
     showgrid="false"
     inkscape:snap-bbox="true"
     inkscape:bbox-paths="true"
     inkscape:snap-page="true"
     fit-margin-top="0"
     fit-margin-left="0"
     fit-margin-right="0"
     fit-margin-bottom="0"
     inkscape:zoom="3.7447918"
     inkscape:cx="60.88456"
     inkscape:cy="-9.0792765"
     inkscape:window-width="1920"
     inkscape:window-height="1007"
     inkscape:window-x="0"
     inkscape:window-y="0"
     inkscape:window-maximized="1"
     inkscape:current-layer="g830" />
  <path
     d="M 30,16 A 8.6666668,8.6666668 0 0 1 38.666667,7.3333334 8.6666668,8.6666668 0 0 1 47.333334,16 c 0,1.12 0.88,2 2,2 1.12,0 2,-0.88 2,-2 v -2 h 4 v 2 a 6.0000001,6.0000001 0 0 1 -6,6 6.0000001,6.0000001 0 0 1 -6,-6 A 4.6666667,4.6666667 0 0 0 38.666667,11.333333 4.6666667,4.6666667 0 0 0 34,16 h 3.333334 v 3.44 c 7.706667,2.293334 13.333333,9.44 13.333333,17.893334 A 18.666667,18.666667 0 0 1 32,56.000001 18.666667,18.666667 0 0 1 13.333334,37.333334 C 13.333334,28.88 18.96,21.733334 26.666667,19.44 V 16 H 30 m 28.666667,0 h 5.333334 v 2.666667 H 58.666667 V 16 m -8,-5.333333 V 5.3333334 h 2.666667 V 10.666667 H 50.666667 M 55.760001,11.68 59.546667,7.8933334 61.440001,9.7866668 57.653334,13.573334 Z"
     id="path825"
     style="stroke-width:1;fill:#ffffff;fill-opacity:1;filter:url(#filter829)" />
  <path
     d="M 30,16 A 8.6666668,8.6666668 0 0 1 38.666667,7.3333334 8.6666668,8.6666668 0 0 1 47.333334,16 c 0,1.12 0.88,2 2,2 1.12,0 2,-0.88 2,-2 v -2 h 4 v 2 a 6.0000001,6.0000001 0 0 1 -6,6 6.0000001,6.0000001 0 0 1 -6,-6 A 4.6666667,4.6666667 0 0 0 38.666667,11.333333 4.6666667,4.6666667 0 0 0 34,16 h 3.333334 v 3.44 c 7.706667,2.293334 13.333333,9.44 13.333333,17.893334 A 18.666667,18.666667 0 0 1 32,56.000001 18.666667,18.666667 0 0 1 13.333334,37.333334 C 13.333334,28.88 18.96,21.733334 26.666667,19.44 V 16 H 30 m 28.666667,0 h 5.333334 v 2.666667 H 58.666667 V 16 m -8,-5.333333 V 5.3333334 h 2.666667 V 10.666667 H 50.666667 M 55.760001,11.68 59.546667,7.8933334 61.440001,9.7866668 57.653334,13.573334 Z"
     id="path2"
     style="stroke-width:1;fill:#ffffff;fill-opacity:1" />
  <g
     id="g830">
    <g
       id="g15193"
       transform="translate(-0.61643983)">
      <text
         xml:space="preserve"
         style="font-size:20.3624px;line-height:1.25;font-family:osifont;-inkscape-font-specification:osifont;stroke-width:0.50906"
         x="-3.1020844"
         y="-0.93699408"
         id="text6689"><tspan
           sodipodi:role="line"
           x="-3.1020844"
           y="-0.93699408"
           style="stroke-width:0.50906"
           id="tspan11469">modified: resized, recolored, glow</tspan></text>
    </g>
  </g>
</svg>
