<?xml version="1.0" encoding="UTF-8" standalone="no"?>
<svg
   version="1.1"
   width="64"
   height="64"
   viewBox="0 0 64 64"
   id="svg4"
   sodipodi:docname="selection-mod-nightcore.svg"
   inkscape:version="1.1.1 (3bf5ae0d25, 2021-09-20, custom)"
   xmlns:inkscape="http://www.inkscape.org/namespaces/inkscape"
   xmlns:sodipodi="http://sodipodi.sourceforge.net/DTD/sodipodi-0.dtd"
   xmlns="http://www.w3.org/2000/svg"
   xmlns:svg="http://www.w3.org/2000/svg">
  <defs
     id="defs8">
    <filter
       style="color-interpolation-filters:sRGB;"
       inkscape:label="Blur"
       id="filter1743"
       x="-0.099999998"
       y="-0.094736841"
       width="1.2"
       height="1.1894737">
      <feGaussianBlur
         stdDeviation="2 2"
         result="blur"
         id="feGaussianBlur1741" />
    </filter>
  </defs>
  <sodipodi:namedview
     id="namedview6"
     pagecolor="#505050"
     bordercolor="#eeeeee"
     borderopacity="1"
     inkscape:pageshadow="0"
     inkscape:pageopacity="0"
     inkscape:pagecheckerboard="0"
     showgrid="false"
     inkscape:snap-bbox="true"
     inkscape:bbox-paths="true"
     inkscape:snap-page="true"
     inkscape:zoom="1.3239838"
     inkscape:cx="148.79336"
     inkscape:cy="141.9957"
     inkscape:window-width="1920"
     inkscape:window-height="1007"
     inkscape:window-x="0"
     inkscape:window-y="0"
     inkscape:window-maximized="1"
     inkscape:current-layer="svg4" />
  <path
     d="m 32,2.6666667 c -13.333333,0 -23.9999999,10.6666673 -23.9999999,24.0000003 v 18.666667 a 8.0000001,8.0000001 0 0 0 7.9999999,8 h 8 V 32 H 13.333334 V 26.666667 A 18.666667,18.666667 0 0 1 32,8.0000001 18.666667,18.666667 0 0 1 50.666667,26.666667 V 32 H 40 v 21.333334 h 8.000001 a 8.0000001,8.0000001 0 0 0 8,-8 V 26.666667 C 56.000001,13.333334 45.253334,2.6666667 32,2.6666667 Z"
     id="path2"
     style="fill:#ffffff;fill-opacity:1;stroke-width:0.999999" />
  <g
     id="g830">
    <g
       id="g15193"
       transform="translate(-0.61643983)">
      <text
         xml:space="preserve"
         style="font-size:20.3624px;line-height:1.25;font-family:osifont;-inkscape-font-specification:osifont;stroke-width:0.50906"
         x="-3.1020844"
         y="-0.93699408"
         id="text6689"><tspan
           sodipodi:role="line"
           x="-3.1020844"
           y="-0.93699408"
           style="stroke-width:0.50906"
           id="tspan11469">MODDED: resized, recolored, glow</tspan></text>
    </g>
  </g>
  <path
     d="m 32,2.6666667 c -13.333333,0 -23.9999999,10.6666673 -23.9999999,24.0000003 v 18.666667 a 8.0000001,8.0000001 0 0 0 7.9999999,8 h 8 V 32 H 13.333334 V 26.666667 A 18.666667,18.666667 0 0 1 32,8.0000001 18.666667,18.666667 0 0 1 50.666667,26.666667 V 32 H 40 v 21.333334 h 8.000001 a 8.0000001,8.0000001 0 0 0 8,-8 V 26.666667 C 56.000001,13.333334 45.253334,2.6666667 32,2.6666667 Z"
     id="path1739"
     style="fill:#ffffff;fill-opacity:1;stroke-width:0.999999;filter:url(#filter1743)" />
</svg>
