<?xml version="1.0" encoding="UTF-8" standalone="no"?>
<svg
   version="1.1"
   width="68.26667"
   height="62.933331"
   viewBox="0 0 68.26667 62.933331"
   id="svg4"
   sodipodi:docname="selection-mod-cinema.svg"
   inkscape:version="1.1.1 (3bf5ae0d25, 2021-09-20, custom)"
   xmlns:inkscape="http://www.inkscape.org/namespaces/inkscape"
   xmlns:sodipodi="http://sodipodi.sourceforge.net/DTD/sodipodi-0.dtd"
   xmlns="http://www.w3.org/2000/svg"
   xmlns:svg="http://www.w3.org/2000/svg">
  <defs
     id="defs8">
    <filter
       style="color-interpolation-filters:sRGB"
       inkscape:label="Blur"
       id="filter1043"
       x="-0.081818181"
       y="-0.089999999"
       width="1.1636364"
       height="1.18">
      <feGaussianBlur
         stdDeviation="2 2"
         result="blur"
         id="feGaussianBlur1041" />
    </filter>
  </defs>
  <sodipodi:namedview
     id="namedview6"
     pagecolor="#505050"
     bordercolor="#eeeeee"
     borderopacity="1"
     inkscape:pageshadow="0"
     inkscape:pageopacity="0"
     inkscape:pagecheckerboard="0"
     showgrid="false"
     inkscape:zoom="5.2959352"
     inkscape:cx="58.913108"
     inkscape:cy="34.554803"
     inkscape:window-width="1920"
     inkscape:window-height="1007"
     inkscape:window-x="0"
     inkscape:window-y="0"
     inkscape:window-maximized="1"
     inkscape:current-layer="svg4"
     inkscape:snap-bbox="true"
     inkscape:bbox-paths="true"
     inkscape:snap-page="true"
     inkscape:snap-bbox-midpoints="false"
     inkscape:bbox-nodes="true" />
  <path
     d="m 12.8,39.466667 h 5.333333 a 5.3333334,5.3333334 0 0 1 5.333334,5.333334 v 5.333333 h 2.666666 v -5.333333 a 5.3333334,5.3333334 0 0 1 5.333334,-5.333334 H 36.8 a 5.3333334,5.3333334 0 0 1 5.333333,5.333334 v 5.333333 H 44.8 v -5.333333 a 5.3333334,5.3333334 0 0 1 5.333334,-5.333334 h 5.333333 A 5.3333334,5.3333334 0 0 1 60.8,44.800001 v 5.333333 h 2.666667 v 8 H 4.7999998 v -8 h 2.666666 V 44.800001 A 5.3333334,5.3333334 0 0 1 12.8,39.466667 m 18.666667,-21.333333 10.666666,8 -10.666666,8 v -16 M 12.8,4.7999999 H 55.466667 A 5.3333334,5.3333334 0 0 1 60.8,10.133334 v 25.44 c -1.573333,-0.933333 -3.386666,-1.44 -5.333333,-1.44 v -24 H 12.8 v 24 c -1.946667,0 -3.7600002,0.506667 -5.3333342,1.44 v -25.44 A 5.3333334,5.3333334 0 0 1 12.8,4.7999999 Z"
     id="path2-7"
     style="fill:#ffffff;fill-opacity:1;stroke-width:1;filter:url(#filter1043)" />
  <path
     d="m 12.8,39.466667 h 5.333333 a 5.3333334,5.3333334 0 0 1 5.333334,5.333334 v 5.333333 h 2.666666 v -5.333333 a 5.3333334,5.3333334 0 0 1 5.333334,-5.333334 H 36.8 a 5.3333334,5.3333334 0 0 1 5.333333,5.333334 v 5.333333 H 44.8 v -5.333333 a 5.3333334,5.3333334 0 0 1 5.333334,-5.333334 h 5.333333 A 5.3333334,5.3333334 0 0 1 60.8,44.800001 v 5.333333 h 2.666667 v 8 H 4.7999995 v -8 H 7.4666662 V 44.800001 A 5.3333334,5.3333334 0 0 1 12.8,39.466667 m 18.666667,-21.333333 10.666666,8 -10.666666,8 v -16 M 12.8,4.8000003 H 55.466667 A 5.3333334,5.3333334 0 0 1 60.8,10.133334 v 25.44 c -1.573333,-0.933333 -3.386666,-1.44 -5.333333,-1.44 v -24 H 12.8 v 24 c -1.946667,0 -3.7600004,0.506667 -5.3333338,1.44 v -25.44 A 5.3333334,5.3333334 0 0 1 12.8,4.8000003 Z"
     id="path2"
     style="fill:#ffffff;fill-opacity:1;stroke-width:1" />
  <g
     id="g9514"
     transform="translate(-0.27839213,-3.5968216)">
    <text
       xml:space="preserve"
       style="font-size:20.3624px;line-height:1.25;font-family:osifont;-inkscape-font-specification:osifont;stroke-width:0.50906"
       x="-3.1020844"
       y="-0.93699408"
       id="text6689-3"><tspan
         sodipodi:role="line"
         x="-3.1020844"
         y="-0.93699408"
         style="stroke-width:0.50906"
         id="tspan11469-6">modified: resized, recolored, glow</tspan></text>
  </g>
</svg>
