<?xml version="1.0" encoding="UTF-8" standalone="no"?>
<svg
   version="1.1"
   width="77"
   height="90"
   viewBox="0 0 77 90"
   id="svg4"
   sodipodi:docname="selection-random.svg"
   inkscape:version="1.1.1 (3bf5ae0d25, 2021-09-20, custom)"
   xmlns:inkscape="http://www.inkscape.org/namespaces/inkscape"
   xmlns:sodipodi="http://sodipodi.sourceforge.net/DTD/sodipodi-0.dtd"
   xmlns="http://www.w3.org/2000/svg"
   xmlns:svg="http://www.w3.org/2000/svg">
  <defs
     id="defs8">
    <filter
       style="color-interpolation-filters:sRGB;"
       inkscape:label="Blur"
       id="filter836"
       x="-0.11001183"
       y="-0.2149406"
       width="1.2200237"
       height="1.4298812">
      <feGaussianBlur
         stdDeviation="2 2"
         result="blur"
         id="feGaussianBlur834" />
    </filter>
    <filter
       style="color-interpolation-filters:sRGB;"
       inkscape:label="Blur"
       id="filter840"
       x="-0.093993439"
       y="-0.093993439"
       width="1.1879869"
       height="1.1879869">
      <feGaussianBlur
         stdDeviation="2 2"
         result="blur"
         id="feGaussianBlur838" />
    </filter>
  </defs>
  <sodipodi:namedview
     id="namedview6"
     pagecolor="#505050"
     bordercolor="#eeeeee"
     borderopacity="1"
     inkscape:pageshadow="0"
     inkscape:pageopacity="0"
     inkscape:pagecheckerboard="0"
     showgrid="false"
     inkscape:zoom="2.6479675"
     inkscape:cx="51.737795"
     inkscape:cy="62.689591"
     inkscape:window-width="1920"
     inkscape:window-height="1007"
     inkscape:window-x="0"
     inkscape:window-y="0"
     inkscape:window-maximized="1"
     inkscape:current-layer="svg4"
     inkscape:snap-bbox="true"
     inkscape:bbox-paths="true"
     inkscape:snap-page="true"
     fit-margin-top="0"
     fit-margin-left="0"
     fit-margin-right="0"
     fit-margin-bottom="0"
     inkscape:snap-bbox-midpoints="true"
     inkscape:object-nodes="false"
     inkscape:bbox-nodes="true" />
  <path
     d="m 18.640458,6.300303 h 39.719084 a 5.6741549,5.6741549 0 0 1 5.674155,5.674155 v 39.719084 a 5.6741549,5.6741549 0 0 1 -5.674155,5.674155 H 18.640458 A 5.6741549,5.6741549 0 0 1 12.966303,51.693542 V 11.974458 a 5.6741549,5.6741549 0 0 1 5.674155,-5.674155 m 5.674155,5.674155 a 5.6741549,5.6741549 0 0 0 -5.674155,5.674155 5.6741549,5.6741549 0 0 0 5.674155,5.674155 5.6741549,5.6741549 0 0 0 5.674155,-5.674155 5.6741549,5.6741549 0 0 0 -5.674155,-5.674155 m 28.370774,28.370774 a 5.6741549,5.6741549 0 0 0 -5.674155,5.674155 5.6741549,5.6741549 0 0 0 5.674155,5.674155 5.6741549,5.6741549 0 0 0 5.674155,-5.674155 5.6741549,5.6741549 0 0 0 -5.674155,-5.674155 m 0,-14.185387 A 5.6741549,5.6741549 0 0 0 47.011232,31.834 5.6741549,5.6741549 0 0 0 52.685387,37.508155 5.6741549,5.6741549 0 0 0 58.359542,31.834 5.6741549,5.6741549 0 0 0 52.685387,26.159845 m 0,-14.185387 a 5.6741549,5.6741549 0 0 0 -5.674155,5.674155 5.6741549,5.6741549 0 0 0 5.674155,5.674155 5.6741549,5.6741549 0 0 0 5.674155,-5.674155 5.6741549,5.6741549 0 0 0 -5.674155,-5.674155 M 24.314613,26.159845 A 5.6741549,5.6741549 0 0 0 18.640458,31.834 5.6741549,5.6741549 0 0 0 24.314613,37.508155 5.6741549,5.6741549 0 0 0 29.988768,31.834 5.6741549,5.6741549 0 0 0 24.314613,26.159845 m 0,14.185387 a 5.6741549,5.6741549 0 0 0 -5.674155,5.674155 5.6741549,5.6741549 0 0 0 5.674155,5.674155 5.6741549,5.6741549 0 0 0 5.674155,-5.674155 5.6741549,5.6741549 0 0 0 -5.674155,-5.674155 z"
     id="path2"
     style="fill:#ffffff;fill-opacity:1;stroke-width:2.83708" />
  <path
     d="m 18.640458,6.300303 h 39.719084 a 5.6741549,5.6741549 0 0 1 5.674155,5.674155 v 39.719084 a 5.6741549,5.6741549 0 0 1 -5.674155,5.674155 H 18.640458 A 5.6741549,5.6741549 0 0 1 12.966303,51.693542 V 11.974458 a 5.6741549,5.6741549 0 0 1 5.674155,-5.674155 m 5.674155,5.674155 a 5.6741549,5.6741549 0 0 0 -5.674155,5.674155 5.6741549,5.6741549 0 0 0 5.674155,5.674155 5.6741549,5.6741549 0 0 0 5.674155,-5.674155 5.6741549,5.6741549 0 0 0 -5.674155,-5.674155 m 28.370774,28.370774 a 5.6741549,5.6741549 0 0 0 -5.674155,5.674155 5.6741549,5.6741549 0 0 0 5.674155,5.674155 5.6741549,5.6741549 0 0 0 5.674155,-5.674155 5.6741549,5.6741549 0 0 0 -5.674155,-5.674155 m 0,-14.185387 A 5.6741549,5.6741549 0 0 0 47.011232,31.834 5.6741549,5.6741549 0 0 0 52.685387,37.508155 5.6741549,5.6741549 0 0 0 58.359542,31.834 5.6741549,5.6741549 0 0 0 52.685387,26.159845 m 0,-14.185387 a 5.6741549,5.6741549 0 0 0 -5.674155,5.674155 5.6741549,5.6741549 0 0 0 5.674155,5.674155 5.6741549,5.6741549 0 0 0 5.674155,-5.674155 5.6741549,5.6741549 0 0 0 -5.674155,-5.674155 M 24.314613,26.159845 A 5.6741549,5.6741549 0 0 0 18.640458,31.834 5.6741549,5.6741549 0 0 0 24.314613,37.508155 5.6741549,5.6741549 0 0 0 29.988768,31.834 5.6741549,5.6741549 0 0 0 24.314613,26.159845 m 0,14.185387 a 5.6741549,5.6741549 0 0 0 -5.674155,5.674155 5.6741549,5.6741549 0 0 0 5.674155,5.674155 5.6741549,5.6741549 0 0 0 5.674155,-5.674155 5.6741549,5.6741549 0 0 0 -5.674155,-5.674155 z"
     id="path828"
     style="fill:#ffffff;fill-opacity:1;stroke-width:2.83708;filter:url(#filter840)" />
  <g
     id="g831">
    <g
       id="g830">
      <g
         id="g15193"
         transform="translate(-0.61643983)">
        <text
           xml:space="preserve"
           style="font-size:20.3624px;line-height:1.25;font-family:osifont;-inkscape-font-specification:osifont;stroke-width:0.50906"
           x="-3.1020844"
           y="-0.93699408"
           id="text6689"><tspan
             sodipodi:role="line"
             x="-3.1020844"
             y="-0.93699408"
             style="stroke-width:0.50906"
             id="tspan11469">MODDED: resized, recolored, added text</tspan></text>
      </g>
    </g>
  </g>
  <text
     xml:space="preserve"
     style="font-size:30.1884px;line-height:1.25;font-family:osifont;-inkscape-font-specification:osifont;fill:#ffffff;fill-opacity:1;stroke-width:0.754711"
     x="12.084664"
     y="82.331749"
     id="text5896-6-3-3"><tspan
       sodipodi:role="line"
       id="tspan5894-7-6-6"
       x="12.084664"
       y="82.331749"
       style="stroke-width:0.754711">rnd</tspan></text>
</svg>
