<?xml version="1.0" encoding="UTF-8" standalone="no"?>
<svg
   version="1.1"
   width="60.26667"
   height="60.26667"
   viewBox="0 0 60.26667 60.26667"
   id="svg4"
   sodipodi:docname="selection-mod-suddendeath.svg"
   inkscape:version="1.1.1 (3bf5ae0d25, 2021-09-20, custom)"
   xmlns:inkscape="http://www.inkscape.org/namespaces/inkscape"
   xmlns:sodipodi="http://sodipodi.sourceforge.net/DTD/sodipodi-0.dtd"
   xmlns="http://www.w3.org/2000/svg"
   xmlns:svg="http://www.w3.org/2000/svg">
  <defs
     id="defs8">
    <filter
       style="color-interpolation-filters:sRGB"
       inkscape:label="Blur"
       id="filter829"
       x="-0.094736842"
       y="-0.094736841"
       width="1.1894737"
       height="1.1894737">
      <feGaussianBlur
         stdDeviation="2 2"
         result="blur"
         id="feGaussianBlur827" />
    </filter>
  </defs>
  <sodipodi:namedview
     id="namedview6"
     pagecolor="#505050"
     bordercolor="#eeeeee"
     borderopacity="1"
     inkscape:pageshadow="0"
     inkscape:pageopacity="0"
     inkscape:pagecheckerboard="0"
     showgrid="false"
     inkscape:snap-bbox="true"
     inkscape:bbox-paths="true"
     inkscape:snap-page="true"
     fit-margin-top="0"
     fit-margin-left="0"
     fit-margin-right="0"
     fit-margin-bottom="0"
     inkscape:zoom="3.7447918"
     inkscape:cx="43.794157"
     inkscape:cy="-10.147427"
     inkscape:window-width="1920"
     inkscape:window-height="1007"
     inkscape:window-x="0"
     inkscape:window-y="0"
     inkscape:window-maximized="1"
     inkscape:current-layer="g830"
     inkscape:bbox-nodes="true" />
  <path
     d="M 21.466666,15.466666 A 8.6666668,8.6666668 0 0 1 30.133333,6.7999998 8.6666668,8.6666668 0 0 1 38.8,15.466666 c 0,1.12 0.88,2 2,2 1.12,0 2,-0.88 2,-2 v -2 h 4 v 2 a 6.0000001,6.0000001 0 0 1 -6,6 6.0000001,6.0000001 0 0 1 -6,-6 4.6666667,4.6666667 0 0 0 -4.666667,-4.666667 4.6666667,4.6666667 0 0 0 -4.666667,4.666667 H 28.8 v 3.44 C 36.506667,21.2 42.133333,28.346666 42.133333,36.8 A 18.666667,18.666667 0 0 1 23.466666,55.466667 18.666667,18.666667 0 0 1 4.8000001,36.8 c 0,-8.453334 5.6266659,-15.6 13.3333329,-17.893334 v -3.44 h 3.333333 m 28.666667,0 h 5.333334 v 2.666667 h -5.333334 v -2.666667 m -8,-5.333333 V 4.7999998 H 44.8 v 5.3333332 h -2.666667 m 5.093334,1.013333 3.786666,-3.7866662 1.893334,1.8933334 L 49.12,13.04 Z"
     id="path825"
     style="fill:#ffffff;fill-opacity:1;stroke-width:1;filter:url(#filter829)" />
  <path
     d="M 21.466666,15.466666 A 8.6666668,8.6666668 0 0 1 30.133333,6.7999998 8.6666668,8.6666668 0 0 1 38.8,15.466666 c 0,1.12 0.88,2 2,2 1.12,0 2,-0.88 2,-2 v -2 h 4 v 2 a 6.0000001,6.0000001 0 0 1 -6,6 6.0000001,6.0000001 0 0 1 -6,-6 4.6666667,4.6666667 0 0 0 -4.666667,-4.666667 4.6666667,4.6666667 0 0 0 -4.666667,4.666667 H 28.8 v 3.44 C 36.506667,21.2 42.133333,28.346666 42.133333,36.8 A 18.666667,18.666667 0 0 1 23.466666,55.466667 18.666667,18.666667 0 0 1 4.8000001,36.8 c 0,-8.453334 5.6266659,-15.6 13.3333329,-17.893334 v -3.44 h 3.333333 m 28.666667,0 h 5.333334 v 2.666667 h -5.333334 v -2.666667 m -8,-5.333333 V 4.7999998 H 44.8 v 5.3333332 h -2.666667 m 5.093334,1.013333 3.786666,-3.7866662 1.893334,1.8933334 L 49.12,13.04 Z"
     id="path2"
     style="fill:#ffffff;fill-opacity:1;stroke-width:1" />
  <g
     id="g830"
     transform="translate(-8.5333339,-0.53333358)">
    <g
       id="g15193"
       transform="translate(8.2549417,-3.0634883)">
      <text
         xml:space="preserve"
         style="font-size:20.3624px;line-height:1.25;font-family:osifont;-inkscape-font-specification:osifont;stroke-width:0.50906"
         x="-3.1020844"
         y="-0.93699408"
         id="text6689"><tspan
           sodipodi:role="line"
           x="-3.1020844"
           y="-0.93699408"
           style="stroke-width:0.50906"
           id="tspan11469">modified: resized, recolored, glow</tspan></text>
    </g>
  </g>
</svg>
