<?xml version="1.0" encoding="UTF-8" standalone="no"?>
<svg
   version="1.1"
   width="41.599998"
   height="57.600002"
   viewBox="0 0 41.599998 57.600002"
   id="svg4"
   sodipodi:docname="selection-mod-hardrock.svg"
   inkscape:version="1.1.1 (3bf5ae0d25, 2021-09-20, custom)"
   xmlns:inkscape="http://www.inkscape.org/namespaces/inkscape"
   xmlns:sodipodi="http://sodipodi.sourceforge.net/DTD/sodipodi-0.dtd"
   xmlns="http://www.w3.org/2000/svg"
   xmlns:svg="http://www.w3.org/2000/svg">
  <defs
     id="defs8">
    <filter
       style="color-interpolation-filters:sRGB"
       inkscape:label="Blur"
       id="filter9465"
       x="-0.15"
       y="-0.099999998"
       width="1.3"
       height="1.2">
      <feGaussianBlur
         stdDeviation="2 2"
         result="blur"
         id="feGaussianBlur9463" />
    </filter>
  </defs>
  <sodipodi:namedview
     id="namedview6"
     pagecolor="#505050"
     bordercolor="#eeeeee"
     borderopacity="1"
     inkscape:pageshadow="0"
     inkscape:pageopacity="0"
     inkscape:pagecheckerboard="0"
     showgrid="false"
     inkscape:zoom="1.8723958"
     inkscape:cx="160.75661"
     inkscape:cy="52.873436"
     inkscape:window-width="1920"
     inkscape:window-height="1007"
     inkscape:window-x="0"
     inkscape:window-y="0"
     inkscape:window-maximized="1"
     inkscape:current-layer="g15193"
     inkscape:snap-bbox="true"
     inkscape:bbox-paths="true"
     inkscape:snap-page="true"
     inkscape:bbox-nodes="true" />
  <path
     d="M 36.800001,15.466667 V 4.8000002 H 20.8 V 32.933334 c -1.573334,-0.906667 -3.386665,-1.466667 -5.333333,-1.466667 -5.8933337,0 -10.6666667,4.773333 -10.6666667,10.666667 0,5.893333 4.773333,10.666667 10.6666667,10.666667 5.893333,0 10.666668,-4.773334 10.666668,-10.666667 v -16 h 10.666666 v -8 H 26.133335 v -2.666667 z"
     id="path9461"
     style="fill:#ffffff;fill-opacity:1;stroke-width:0.999999;filter:url(#filter9465)" />
  <path
     d="M 36.800001,15.466667 V 4.8000002 H 20.8 V 32.933334 c -1.573334,-0.906667 -3.386665,-1.466667 -5.333333,-1.466667 -5.8933337,0 -10.6666667,4.773333 -10.6666667,10.666667 0,5.893333 4.773333,10.666667 10.6666667,10.666667 5.893333,0 10.666668,-4.773334 10.666668,-10.666667 v -16 h 10.666666 v -8 H 26.133335 v -2.666667 z"
     id="path2"
     style="fill:#ffffff;fill-opacity:1;stroke-width:0.999999" />
  <g
     id="g830"
     transform="translate(-11.2,-3.1999999)">
    <g
       id="g15193"
       transform="translate(-0.61643983)">
      <text
         xml:space="preserve"
         style="font-size:20.3624px;line-height:1.25;font-family:osifont;-inkscape-font-specification:osifont;stroke-width:0.50906"
         x="8.4359636"
         y="-1.3338157"
         id="text6689"><tspan
           sodipodi:role="line"
           x="8.4359636"
           y="-1.3338157"
           style="stroke-width:0.50906"
           id="tspan11469">modified: resized, recolored, glow</tspan></text>
    </g>
  </g>
</svg>
