<?xml version="1.0" encoding="UTF-8" standalone="no"?>
<svg
   version="1.1"
   width="56"
   height="56"
   viewBox="0 0 56 56"
   id="svg4"
   sodipodi:docname="doubletime.svg"
   inkscape:version="1.1.2 (0a00cf5339, 2022-02-04)"
   xmlns:inkscape="http://www.inkscape.org/namespaces/inkscape"
   xmlns:sodipodi="http://sodipodi.sourceforge.net/DTD/sodipodi-0.dtd"
   xmlns="http://www.w3.org/2000/svg"
   xmlns:svg="http://www.w3.org/2000/svg">
  <defs
     id="defs8" />
  <sodipodi:namedview
     id="namedview6"
     pagecolor="#505050"
     bordercolor="#eeeeee"
     borderopacity="1"
     inkscape:pageshadow="0"
     inkscape:pageopacity="0"
     inkscape:pagecheckerboard="0"
     showgrid="false"
     inkscape:snap-bbox="true"
     inkscape:snap-page="true"
     inkscape:bbox-paths="true"
     inkscape:zoom="1.8723959"
     inkscape:cx="10.414464"
     inkscape:cy="68.094573"
     inkscape:window-width="1920"
     inkscape:window-height="1007"
     inkscape:window-x="0"
     inkscape:window-y="0"
     inkscape:window-maximized="1"
     inkscape:current-layer="svg4"
     inkscape:bbox-nodes="true" />
  <path
     d="m 31.253334,52.906668 c -1.493333,0.266666 -3.013333,0.426666 -4.586667,0.426666 C 12.000001,53.333334 0,41.333334 0,26.666667 0,12.000001 12.000001,0 26.666667,0 c 14.666667,0 26.666667,12 26.666667,26.666667 0,1.573333 -0.16,3.093334 -0.426666,4.586667 -2.24,-1.226667 -4.826667,-1.92 -7.573334,-1.92 -3.36,0 -6.48,1.039999 -9.066666,2.826667 l -8.266667,-4.96 V 13.333334 h -4 v 16 L 33.146667,34.96 c -2.373333,2.8 -3.813333,6.373334 -3.813333,10.373334 0,2.746667 0.693333,5.333334 1.92,7.573334 M 42.666668,34.666666 v 8.000001 H 34.666667 V 48 h 8.000001 v 8 h 5.333333 v -8 h 8 v -5.333332 h -8 v -8.000001 z"
     id="path2"
     style="fill:#ffffff;fill-opacity:1;stroke-width:1" />
  <g
     id="g1079"
     transform="translate(-0.53333319,-0.53333403)">
    <g
       id="g9514"
       transform="translate(-0.89483151)">
      <text
         xml:space="preserve"
         style="font-size:20.3624px;line-height:1.25;font-family:osifont;-inkscape-font-specification:osifont;stroke-width:0.50906"
         x="-1.9523119"
         y="-4.0004816"
         id="text6689-3"><tspan
           sodipodi:role="line"
           x="-1.9523119"
           y="-4.0004816"
           style="stroke-width:0.50906"
           id="tspan11469-6">modified: resized, recolored</tspan></text>
    </g>
  </g>
</svg>
