<?xml version="1.0" encoding="UTF-8" standalone="no"?>
<svg
   version="1.1"
   width="53.333332"
   height="37.333332"
   viewBox="0 0 53.333332 37.333332"
   id="svg4"
   sodipodi:docname="selection-mod-flashlight.svg"
   inkscape:version="1.1.1 (3bf5ae0d25, 2021-09-20, custom)"
   xmlns:inkscape="http://www.inkscape.org/namespaces/inkscape"
   xmlns:sodipodi="http://sodipodi.sourceforge.net/DTD/sodipodi-0.dtd"
   xmlns="http://www.w3.org/2000/svg"
   xmlns:svg="http://www.w3.org/2000/svg">
  <defs
     id="defs8">
    <filter
       style="color-interpolation-filters:sRGB"
       inkscape:label="Blur"
       id="filter2179"
       x="-0.089999996"
       y="-0.12857144"
       width="1.1799999"
       height="1.2571429">
      <feGaussianBlur
         stdDeviation="2 2"
         result="blur"
         id="feGaussianBlur2177" />
    </filter>
  </defs>
  <sodipodi:namedview
     id="namedview6"
     pagecolor="#505050"
     bordercolor="#eeeeee"
     borderopacity="1"
     inkscape:pageshadow="0"
     inkscape:pageopacity="0"
     inkscape:pagecheckerboard="0"
     showgrid="false"
     inkscape:zoom="2.6479676"
     inkscape:cx="152.94749"
     inkscape:cy="29.078906"
     inkscape:window-width="1920"
     inkscape:window-height="1007"
     inkscape:window-x="0"
     inkscape:window-y="0"
     inkscape:window-maximized="1"
     inkscape:current-layer="svg4"
     inkscape:snap-bbox="true"
     inkscape:bbox-paths="true"
     inkscape:snap-page="true"
     inkscape:bbox-nodes="true" />
  <path
     d="M 18.666667,0 A 18.666667,18.666667 0 0 0 0,18.666666 18.666667,18.666667 0 0 0 18.666667,37.333333 c 2.773334,0 5.493334,-0.64 8,-1.813333 2.506667,1.173333 5.226667,1.813333 8,1.813333 A 18.666667,18.666667 0 0 0 53.333334,18.666666 18.666667,18.666667 0 0 0 34.666667,0 c -2.773333,0 -5.493333,0.64 -8,1.813333 C 24.160001,0.64 21.440001,0 18.666667,0 m 0,5.3333328 c 0.906667,0 1.786667,0.08 2.666667,0.266667 -3.413333,3.493333 -5.333333,8.1866662 -5.333333,13.0666662 0,4.88 1.92,9.573334 5.333333,13.040001 C 20.453334,31.893333 19.573334,32 18.666667,32 A 13.333334,13.333334 0 0 1 5.3333337,18.666666 13.333334,13.333334 0 0 1 18.666667,5.3333328 m 16,0 A 13.333334,13.333334 0 0 1 48.000001,18.666666 13.333334,13.333334 0 0 1 34.666667,32 c -0.906666,0 -1.786666,-0.08 -2.666666,-0.266667 3.413333,-3.493333 5.333333,-8.186667 5.333333,-13.066667 0,-4.88 -1.92,-9.5733332 -5.333333,-13.0400002 0.88,-0.186666 1.76,-0.293333 2.666666,-0.293333 z"
     id="path2"
     style="fill:#ffffff;fill-opacity:1;stroke-width:1" />
  <g
     id="g830"
     transform="translate(-0.53333315,-8.5333338)">
    <g
       id="g15193"
       transform="translate(-0.61643983)">
      <text
         xml:space="preserve"
         style="font-size:20.3624px;line-height:1.25;font-family:osifont;-inkscape-font-specification:osifont;stroke-width:0.50906"
         x="-2.2307036"
         y="3.9995182"
         id="text6689"><tspan
           sodipodi:role="line"
           x="-2.2307036"
           y="3.9995182"
           style="stroke-width:0.50906"
           id="tspan11469">modified: resized, recolored</tspan></text>
    </g>
  </g>
</svg>
