<?xml version="1.0" encoding="UTF-8" standalone="no"?>
<svg
   version="1.1"
   width="48"
   height="50.666668"
   viewBox="0 0 48 50.666668"
   id="svg4"
   sodipodi:docname="nightcore.svg"
   inkscape:version="1.1.2 (0a00cf5339, 2022-02-04)"
   xmlns:inkscape="http://www.inkscape.org/namespaces/inkscape"
   xmlns:sodipodi="http://sodipodi.sourceforge.net/DTD/sodipodi-0.dtd"
   xmlns="http://www.w3.org/2000/svg"
   xmlns:svg="http://www.w3.org/2000/svg">
  <defs
     id="defs8" />
  <sodipodi:namedview
     id="namedview6"
     pagecolor="#505050"
     bordercolor="#eeeeee"
     borderopacity="1"
     inkscape:pageshadow="0"
     inkscape:pageopacity="0"
     inkscape:pagecheckerboard="0"
     showgrid="false"
     inkscape:snap-bbox="true"
     inkscape:bbox-paths="true"
     inkscape:snap-page="true"
     inkscape:zoom="2.6479676"
     inkscape:cx="121.03622"
     inkscape:cy="64.011357"
     inkscape:window-width="1920"
     inkscape:window-height="1007"
     inkscape:window-x="0"
     inkscape:window-y="0"
     inkscape:window-maximized="1"
     inkscape:current-layer="svg4"
     inkscape:bbox-nodes="true" />
  <path
     d="M 24,0 C 10.666667,0 0,10.666667 0,24 v 18.666667 a 8.0000001,8.0000001 0 0 0 7.9999998,8 H 16 V 29.333333 H 5.3333338 V 24 A 18.666667,18.666667 0 0 1 24,5.3333338 18.666667,18.666667 0 0 1 42.666667,24 v 5.333333 H 32 v 21.333334 h 8.000001 a 8.0000001,8.0000001 0 0 0 8,-8 V 24 C 48.000001,10.666667 37.253334,0 24,0 Z"
     id="path2"
     style="fill:#ffffff;fill-opacity:1;stroke-width:0.999999" />
  <g
     id="g830"
     transform="translate(-3.2,2.1333334)">
    <g
       id="g15193"
       transform="translate(-0.61643983)">
      <text
         xml:space="preserve"
         style="font-size:20.3624px;line-height:1.25;font-family:osifont;-inkscape-font-specification:osifont;stroke-width:0.50906"
         x="0.43596321"
         y="-6.6671491"
         id="text6689"><tspan
           sodipodi:role="line"
           x="0.43596321"
           y="-6.6671491"
           style="stroke-width:0.50906"
           id="tspan11469">modified: resized, recolored</tspan></text>
    </g>
  </g>
</svg>
