<?xml version="1.0" encoding="UTF-8" standalone="no"?>
<svg
   version="1.1"
   width="53.333332"
   height="53.333332"
   viewBox="0 0 53.333332 53.333332"
   id="svg4"
   sodipodi:docname="selection-mod-nofail.svg"
   inkscape:version="1.1.1 (3bf5ae0d25, 2021-09-20, custom)"
   xmlns:inkscape="http://www.inkscape.org/namespaces/inkscape"
   xmlns:sodipodi="http://sodipodi.sourceforge.net/DTD/sodipodi-0.dtd"
   xmlns="http://www.w3.org/2000/svg"
   xmlns:svg="http://www.w3.org/2000/svg">
  <defs
     id="defs8">
    <filter
       style="color-interpolation-filters:sRGB"
       inkscape:label="Blur"
       id="filter5243"
       x="-0.089999996"
       y="-0.089999996"
       width="1.1799999"
       height="1.1799999">
      <feGaussianBlur
         stdDeviation="2 2"
         result="blur"
         id="feGaussianBlur5241" />
    </filter>
  </defs>
  <sodipodi:namedview
     id="namedview6"
     pagecolor="#505050"
     bordercolor="#eeeeee"
     borderopacity="1"
     inkscape:pageshadow="0"
     inkscape:pageopacity="0"
     inkscape:pagecheckerboard="0"
     showgrid="false"
     inkscape:snap-bbox="true"
     inkscape:bbox-paths="true"
     inkscape:snap-page="true"
     inkscape:zoom="1.8723958"
     inkscape:cx="61.418638"
     inkscape:cy="-6.4089014"
     inkscape:window-width="1920"
     inkscape:window-height="1007"
     inkscape:window-x="0"
     inkscape:window-y="0"
     inkscape:window-maximized="1"
     inkscape:current-layer="svg4"
     inkscape:bbox-nodes="true" />
  <path
     d="M 21.333334,5.3333338 V 16.000001 H 32.000001 V 5.3333338 H 21.333334 m 16,0 V 16.000001 H 48.000001 V 5.3333338 H 37.333334 m 0,16.0000002 V 32.000001 H 48.000001 V 21.333334 H 37.333334 m 0,16 V 48.000001 H 48.000001 V 37.333334 H 37.333334 M 32.000001,48.000001 V 37.333334 H 21.333334 v 10.666667 h 10.666667 m -16,0 V 37.333334 H 5.3333338 V 48.000001 H 16.000001 m 0,-16 V 21.333334 H 5.3333338 V 32.000001 H 16.000001 m 0,-16 V 5.3333338 H 5.3333338 V 16.000001 H 16.000001 m 5.333333,16 H 32.000001 V 21.333334 H 21.333334 V 32.000001 M 5.3333338,0 H 48.000001 a 5.3333334,5.3333334 0 0 1 5.333333,5.3333338 V 48.000001 a 5.3333334,5.3333334 0 0 1 -5.333333,5.333333 H 5.3333338 C 2.4533334,53.333334 0,50.933334 0,48.000001 V 5.3333338 A 5.3333334,5.3333334 0 0 1 5.3333338,0 Z"
     id="path2"
     style="fill:#ffffff;fill-opacity:1;stroke-width:0.999999" />
  <g
     id="g830"
     transform="translate(-0.53333363,-0.53333355)">
    <g
       id="g15193"
       transform="translate(-0.61643983)">
      <text
         xml:space="preserve"
         style="font-size:20.3624px;line-height:1.25;font-family:osifont;-inkscape-font-specification:osifont;stroke-width:0.50906"
         x="-2.2307031"
         y="-4.0004821"
         id="text6689"><tspan
           sodipodi:role="line"
           x="-2.2307031"
           y="-4.0004821"
           style="stroke-width:0.50906"
           id="tspan11469">modified: resized, recolored</tspan></text>
    </g>
  </g>
</svg>
