<?xml version="1.0" encoding="UTF-8" standalone="no"?>
<svg
   version="1.1"
   width="58.666668"
   height="53.333336"
   viewBox="0 0 58.666668 53.333336"
   id="svg4"
   sodipodi:docname="selection-mod-perfect.svg"
   inkscape:version="1.1.1 (3bf5ae0d25, 2021-09-20, custom)"
   xmlns:inkscape="http://www.inkscape.org/namespaces/inkscape"
   xmlns:sodipodi="http://sodipodi.sourceforge.net/DTD/sodipodi-0.dtd"
   xmlns="http://www.w3.org/2000/svg"
   xmlns:svg="http://www.w3.org/2000/svg">
  <defs
     id="defs8">
    <filter
       style="color-interpolation-filters:sRGB"
       inkscape:label="Blur"
       id="filter7003"
       x="-0.081818178"
       y="-0.089999996"
       width="1.1636364"
       height="1.1799999">
      <feGaussianBlur
         stdDeviation="2 2"
         result="blur"
         id="feGaussianBlur7001" />
    </filter>
  </defs>
  <sodipodi:namedview
     id="namedview6"
     pagecolor="#505050"
     bordercolor="#eeeeee"
     borderopacity="1"
     inkscape:pageshadow="0"
     inkscape:pageopacity="0"
     inkscape:pagecheckerboard="0"
     showgrid="false"
     inkscape:snap-bbox="true"
     inkscape:bbox-paths="true"
     inkscape:snap-page="true"
     inkscape:zoom="2.6479676"
     inkscape:cx="228.09947"
     inkscape:cy="65.333126"
     inkscape:window-width="1920"
     inkscape:window-height="1007"
     inkscape:window-x="0"
     inkscape:window-y="0"
     inkscape:window-maximized="1"
     inkscape:current-layer="svg4"
     fit-margin-top="0"
     fit-margin-left="0"
     fit-margin-right="0"
     fit-margin-bottom="0"
     inkscape:bbox-nodes="true" />
  <path
     d="m 58.666667,24 c 0,-2.96 -2.4,-5.333333 -5.333333,-5.333333 H 36.48 L 39.04,6.4800001 c 0.05333,-0.266667 0.08,-0.56 0.08,-0.853333 C 39.12,4.5333334 38.666667,3.52 37.946667,2.8 L 35.12,0 17.573333,17.546667 C 16.586667,18.533333 16,19.866667 16,21.333333 V 48 a 5.3333334,5.3333334 0 0 0 5.333333,5.333334 H 45.333334 C 47.546667,53.333334 49.44,52 50.24,50.08 l 8.053334,-18.8 c 0.24,-0.613333 0.373333,-1.253333 0.373333,-1.946667 V 24 M 0,53.333334 H 10.666667 V 21.333333 H 0 Z"
     id="path2"
     style="fill:#ffffff;fill-opacity:1;stroke-width:0.999999" />
  <g
     id="g830"
     transform="translate(2.1333331,2.1333334)">
    <g
       id="g15193"
       transform="translate(-0.61643983)">
      <text
         xml:space="preserve"
         style="font-size:20.3624px;line-height:1.25;font-family:osifont;-inkscape-font-specification:osifont;stroke-width:0.50906"
         x="-4.8973699"
         y="-6.6671491"
         id="text6689"><tspan
           sodipodi:role="line"
           x="-4.8973699"
           y="-6.6671491"
           style="stroke-width:0.50906"
           id="tspan11469">modified: resized, recolored</tspan></text>
    </g>
  </g>
</svg>
