<?xml version="1.0" encoding="UTF-8" standalone="no"?>
<svg
   version="1.1"
   width="58.666668"
   height="58.666668"
   viewBox="0 0 58.666668 58.666668"
   id="svg4"
   sodipodi:docname="relax2.svg"
   inkscape:version="1.1.2 (0a00cf5339, 2022-02-04)"
   xmlns:inkscape="http://www.inkscape.org/namespaces/inkscape"
   xmlns:sodipodi="http://sodipodi.sourceforge.net/DTD/sodipodi-0.dtd"
   xmlns="http://www.w3.org/2000/svg"
   xmlns:svg="http://www.w3.org/2000/svg">
  <defs
     id="defs8" />
  <sodipodi:namedview
     id="namedview6"
     pagecolor="#505050"
     bordercolor="#eeeeee"
     borderopacity="1"
     inkscape:pageshadow="0"
     inkscape:pageopacity="0"
     inkscape:pagecheckerboard="0"
     showgrid="false"
     inkscape:snap-bbox="true"
     inkscape:bbox-paths="true"
     inkscape:snap-page="true"
     fit-margin-top="0"
     fit-margin-left="0"
     fit-margin-right="0"
     fit-margin-bottom="0"
     inkscape:zoom="1.8723959"
     inkscape:cx="-33.913768"
     inkscape:cy="73.435324"
     inkscape:window-width="1920"
     inkscape:window-height="1007"
     inkscape:window-x="0"
     inkscape:window-y="0"
     inkscape:window-maximized="1"
     inkscape:current-layer="svg4"
     inkscape:bbox-nodes="true" />
  <path
     d="M 5.4666672,32 H 0 v -5.333333 h 5.4666672 c 1.2,-11.12 10.0799998,-19.9999998 21.1999998,-21.1999998 V 0 H 32 v 5.4666672 c 11.12,1.2 20,10.0799998 21.2,21.1999998 h 5.466667 V 32 H 53.2 C 52,43.12 43.12,52 32,53.2 v 5.466667 H 26.666667 V 53.2 C 15.546667,52 6.6666672,43.12 5.4666672,32 M 29.333333,10.666667 A 18.666667,18.666667 0 0 0 10.666667,29.333333 18.666667,18.666667 0 0 0 29.333333,48 18.666667,18.666667 0 0 0 48,29.333333 18.666667,18.666667 0 0 0 29.333333,10.666667 Z"
     id="path2"
     style="fill:#ffffff;fill-opacity:1;stroke-width:1" />
  <g
     id="g830"
     transform="translate(2.1333331,2.133333)">
    <g
       id="g15193"
       transform="translate(-0.61643983)">
      <text
         xml:space="preserve"
         style="font-size:20.3624px;line-height:1.25;font-family:osifont;-inkscape-font-specification:osifont;stroke-width:0.50906"
         x="-4.8973699"
         y="-6.6671486"
         id="text6689"><tspan
           sodipodi:role="line"
           x="-4.8973699"
           y="-6.6671486"
           style="stroke-width:0.50906"
           id="tspan11469">modified: resized, recolored</tspan></text>
    </g>
  </g>
</svg>
