<?xml version="1.0" encoding="UTF-8" standalone="no"?>
<svg
   version="1.1"
   width="50.666668"
   height="50.666668"
   viewBox="0 0 50.666668 50.666668"
   id="svg4"
   sodipodi:docname="suddendeath.svg"
   inkscape:version="1.1.2 (0a00cf5339, 2022-02-04)"
   xmlns:inkscape="http://www.inkscape.org/namespaces/inkscape"
   xmlns:sodipodi="http://sodipodi.sourceforge.net/DTD/sodipodi-0.dtd"
   xmlns="http://www.w3.org/2000/svg"
   xmlns:svg="http://www.w3.org/2000/svg">
  <defs
     id="defs8" />
  <sodipodi:namedview
     id="namedview6"
     pagecolor="#505050"
     bordercolor="#eeeeee"
     borderopacity="1"
     inkscape:pageshadow="0"
     inkscape:pageopacity="0"
     inkscape:pagecheckerboard="0"
     showgrid="false"
     inkscape:snap-bbox="true"
     inkscape:bbox-paths="true"
     inkscape:snap-page="true"
     fit-margin-top="0"
     fit-margin-left="0"
     fit-margin-right="0"
     fit-margin-bottom="0"
     inkscape:zoom="1.8723959"
     inkscape:cx="-59.015297"
     inkscape:cy="54.208621"
     inkscape:window-width="1920"
     inkscape:window-height="1007"
     inkscape:window-x="0"
     inkscape:window-y="0"
     inkscape:window-maximized="1"
     inkscape:current-layer="svg4"
     inkscape:bbox-nodes="true" />
  <path
     d="M 16.666666,10.666666 A 8.6666668,8.6666668 0 0 1 25.333333,2 8.6666668,8.6666668 0 0 1 34,10.666666 c 0,1.12 0.88,2 2,2 1.12,0 2,-0.88 2,-2 V 8.6666662 h 4 v 1.9999998 a 6.0000001,6.0000001 0 0 1 -6,6 6.0000001,6.0000001 0 0 1 -6,-6 4.6666667,4.6666667 0 0 0 -4.666667,-4.6666668 4.6666667,4.6666667 0 0 0 -4.666667,4.6666668 H 24 v 3.44 C 31.706667,16.4 37.333333,23.546666 37.333333,32 A 18.666667,18.666667 0 0 1 18.666666,50.666667 18.666667,18.666667 0 0 1 0,32 C 0,23.546666 5.6266659,16.4 13.333333,14.106666 v -3.44 h 3.333333 m 28.666667,0 h 5.333334 v 2.666667 h -5.333334 v -2.666667 m -8,-5.3333328 V 0 H 40 V 5.3333332 H 37.333333 M 42.426667,6.3466662 46.213333,2.56 48.106667,4.4533334 44.32,8.2400002 Z"
     id="path2"
     style="fill:#ffffff;fill-opacity:1;stroke-width:1" />
  <g
     id="g830"
     transform="translate(-8.5333339,-0.53333326)">
    <g
       id="g15193"
       transform="translate(8.2549417,-3.0634883)">
      <text
         xml:space="preserve"
         style="font-size:20.3624px;line-height:1.25;font-family:osifont;-inkscape-font-specification:osifont;stroke-width:0.50906"
         x="-3.1020844"
         y="-0.93699408"
         id="text6689"><tspan
           sodipodi:role="line"
           x="-3.1020844"
           y="-0.93699408"
           style="stroke-width:0.50906"
           id="tspan11469">modified: resized, recolored</tspan></text>
    </g>
  </g>
</svg>
