<?xml version="1.0" encoding="UTF-8" standalone="no"?>
<svg
   version="1.1"
   width="53.333336"
   height="53.333336"
   viewBox="0 0 53.333335 53.333335"
   id="svg4"
   sodipodi:docname="target.svg"
   inkscape:version="1.1.2 (0a00cf5339, 2022-02-04)"
   xmlns:inkscape="http://www.inkscape.org/namespaces/inkscape"
   xmlns:sodipodi="http://sodipodi.sourceforge.net/DTD/sodipodi-0.dtd"
   xmlns="http://www.w3.org/2000/svg"
   xmlns:svg="http://www.w3.org/2000/svg">
  <defs
     id="defs8" />
  <sodipodi:namedview
     id="namedview6"
     pagecolor="#505050"
     bordercolor="#eeeeee"
     borderopacity="1"
     inkscape:pageshadow="0"
     inkscape:pageopacity="0"
     inkscape:pagecheckerboard="0"
     showgrid="false"
     inkscape:snap-bbox="true"
     inkscape:bbox-paths="true"
     inkscape:snap-page="true"
     fit-margin-top="0"
     fit-margin-left="0"
     fit-margin-right="0"
     fit-margin-bottom="0"
     inkscape:zoom="1.8723959"
     inkscape:cx="-80.912375"
     inkscape:cy="49.93602"
     inkscape:window-width="1920"
     inkscape:window-height="1007"
     inkscape:window-x="0"
     inkscape:window-y="0"
     inkscape:window-maximized="1"
     inkscape:current-layer="svg4"
     inkscape:bbox-nodes="true" />
  <path
     d="M 26.666667,0 A 26.666667,26.666667 0 0 0 0,26.666667 26.666667,26.666667 0 0 0 26.666667,53.333334 26.666667,26.666667 0 0 0 53.333334,26.666667 c 0,-3.093333 -0.56,-6.16 -1.626666,-9.04 l -4.266667,4.266667 c 0.373333,1.573333 0.56,3.173333 0.56,4.773333 A 21.333334,21.333334 0 0 1 26.666667,48.000001 21.333334,21.333334 0 0 1 5.3333341,26.666667 21.333334,21.333334 0 0 1 26.666667,5.3333341 c 1.6,0 3.2,0.186666 4.773334,0.56 L 35.733334,1.6 C 32.826667,0.56 29.760001,0 26.666667,0 M 45.333334,0 34.666667,10.666667 v 4 l -6.8,6.8 c -0.4,-0.133333 -0.8,-0.133333 -1.2,-0.133333 a 5.3333334,5.3333334 0 0 0 -5.333333,5.333333 5.3333334,5.3333334 0 0 0 5.333333,5.333334 5.3333334,5.3333334 0 0 0 5.333334,-5.333334 c 0,-0.4 0,-0.8 -0.133334,-1.2 l 6.800001,-6.8 h 4 L 53.333334,8.0000011 h -8 V 0 M 26.666667,10.666667 a 16,16 0 0 0 -16,16 16,16 0 0 0 16,16.000001 16,16 0 0 0 16.000001,-16.000001 H 37.333334 A 10.666667,10.666667 0 0 1 26.666667,37.333334 10.666667,10.666667 0 0 1 16.000001,26.666667 10.666667,10.666667 0 0 1 26.666667,16.000001 Z"
     id="path2"
     style="fill:#ffffff;fill-opacity:1;stroke-width:1" />
  <g
     id="g830"
     transform="translate(-0.19528588,-4.1301551)">
    <g
       id="g15193"
       transform="translate(-0.08310629,0.53333354)">
      <text
         xml:space="preserve"
         style="font-size:20.3624px;line-height:1.25;font-family:osifont;-inkscape-font-specification:osifont;stroke-width:0.50906"
         x="-3.1020844"
         y="-0.93699408"
         id="text6689"><tspan
           sodipodi:role="line"
           x="-3.1020844"
           y="-0.93699408"
           style="stroke-width:0.50906"
           id="tspan11469">modified: resized, recolored</tspan></text>
    </g>
  </g>
</svg>
